<svg id="Layer_1" xmlns="http://www.w3.org/2000/svg" viewBox="0 0 82.2 103.8"><style>.st0{fill:#f4e9dc}.st1{fill:#34512a}.st2{fill:#5e7a52}.st3{fill:#7a4a3d}.st4{fill:#99675c}.st5{fill:#93594d}.st6{fill:#c6947d}.st7{fill:#dd4b47}.st8{opacity:.21;fill:#FFF}.st9{fill:#bbcc5a}.st10{fill:#e2ba86}.st11{fill:#cca479}.st12{fill:#9e7e5a}.st13{fill:#b56b52}.st14{fill:#9a513e}.st15{opacity:.2;fill:#FFF}.st16{fill:#915c4a}.st17{fill:#a9562c}.st18{fill:#953715}.st19{fill:#7a4c40}.st20{fill:#b7805b}.st21{fill:#3a2a1f}.st22{fill:#a57250}.st23{fill:#6d4137}.st24{fill:#7c4b43}.st25{fill:#3e6e2d}.st26{fill:#66a349}.st27{fill:#4c8a32}.st28{fill:#e2cbbc}.st29{fill:#edd3c6}.st30{fill:#d8bcad}.st31{fill:#773d4d}.st32{fill:#54242e}.st33{fill:#663041}.st34{fill:#80485a}.st35{opacity:.49}.st36{clip-path:url(#SVGID_2_)}.st37{fill:#FFF}.st38{fill:#005c2f}.st39{fill:#057333}.st40{fill:#073f21}.st41{fill:#0c512a}.st42{fill:#d6a667}.st43{fill:#cc9a5d}.st44{fill:#cc9d63}.st45{fill:#c18c52}.st46{fill:#2d3f25}.st47{opacity:.43;fill:#FFF}.st48{fill:#9d9d9c}.st49{fill:#b2b2b2}.st50{fill:#c6c6c6}.st51{fill:#383a35}.st52{fill:#3c3c3b}.st53{fill:#f9f8da}.st54{fill:#cd2b1a}.st55{fill:#b22018}</style><path class="st1" d="M46 85.5s18.8-33.8 5.1-61.3C41.6 4.9 47.2 0 47.2 0S24.5 8.7 22.3 35.2C20.1 61.8 46 85.5 46 85.5z"/><path class="st2" d="M46.4 1.2c-1.5 5.6-.4 12.6 4.7 23C64.8 51.8 46 85.5 46 85.5s-4.6-16.4-7.5-37.1c-2.2-15.8 2.9-38.7 7.9-47.2z"/><path class="st1" d="M46 84.8S70.4 73.9 74.3 53c2.7-14.7 7.9-15.1 7.9-15.1S66 33.3 53.8 47.1C41.6 60.9 46 84.8 46 84.8z"/><path class="st2" d="M81.3 38.2c-3.2 2.5-5.5 6.8-6.9 14.7C70.5 73.9 46 84.8 46 84.8s4.2-11 11.2-23.7c5.4-9.7 17.8-20.2 24.1-22.9z"/><g><path class="st1" d="M45.9 84.8s-9.5-25-30.2-30.1C1.3 51.1 1.2 46 1.2 46s-5.5 15.9 7.6 28.9c13 13 37.1 9.9 37.1 9.9z"/><path class="st2" d="M1.4 46.9c2.3 3.3 6.5 5.8 14.3 7.8 20.7 5.1 30.2 30.1 30.2 30.1s-10.7-4.8-23-12.5c-9.4-6-19.2-19-21.5-25.4z"/></g><g><path class="st1" d="M46.2 84.6s-16-.9-23.8 9.2c-5.5 7.1-8.3 5.9-8.3 5.9s7.4 6.9 17.7 2.9c10.2-4 14.4-18 14.4-18z"/><path class="st2" d="M14.6 99.8c2.4-.5 4.8-2.1 7.7-6 7.8-10.1 23.8-9.2 23.8-9.2s-5.3 4.7-12.5 9.5c-5.4 3.7-14.9 6-19 5.7z"/></g></svg>