<svg id="Layer_1" xmlns="http://www.w3.org/2000/svg" viewBox="0 0 179.4 179.8"><style>.st0{fill:#f4e9dc}.st1{fill:#34512a}.st2{fill:#5e7a52}.st3{fill:#7a4a3d}.st4{fill:#99675c}.st5{fill:#93594d}.st6{fill:#c6947d}.st7{fill:#dd4b47}.st8{opacity:.21;fill:#FFF}.st9{fill:#bbcc5a}.st10{fill:#e2ba86}.st11{fill:#cca479}.st12{fill:#9e7e5a}.st13{fill:#b56b52}.st14{fill:#9a513e}.st15{opacity:.2;fill:#FFF}.st16{fill:#915c4a}.st17{fill:#a9562c}.st18{fill:#953715}.st19{fill:#7a4c40}.st20{fill:#b7805b}.st21{fill:#3a2a1f}.st22{fill:#a57250}.st23{fill:#6d4137}.st24{fill:#7c4b43}.st25{fill:#3e6e2d}.st26{fill:#66a349}.st27{fill:#4c8a32}.st28{fill:#e2cbbc}.st29{fill:#edd3c6}.st30{fill:#d8bcad}.st31{fill:#773d4d}.st32{fill:#54242e}.st33{fill:#663041}.st34{fill:#80485a}.st35{opacity:.49}.st36{clip-path:url(#SVGID_2_)}.st37{fill:#FFF}.st38{fill:#005c2f}.st39{fill:#057333}.st40{fill:#073f21}.st41{fill:#0c512a}.st42{fill:#d6a667}.st43{fill:#cc9a5d}.st44{fill:#cc9d63}.st45{fill:#c18c52}.st46{fill:#2d3f25}.st47{opacity:.43;fill:#FFF}.st48{fill:#9d9d9c}.st49{fill:#b2b2b2}.st50{fill:#c6c6c6}.st51{fill:#383a35}.st52{fill:#3c3c3b}.st53{fill:#f9f8da}.st54{fill:#cd2b1a}.st55{fill:#b22018}</style><circle class="st42" cx="85.5" cy="94.3" r="85.5"/><circle class="st43" cx="85.6" cy="94.3" r="74.4"/><path class="st45" d="M85.6 151.3c-31.4 0-57-25.6-57-57s25.6-57 57-57 57 25.6 57 57c-.1 31.4-25.6 57-57 57z"/><path class="st42" d="M69.8 78.6C59.4 90 60.3 107.7 71.7 118c11.4 10.4 29.1 9.5 39.4-1.9 4.5-5 6.4-9.5 6.7-15.7.2-2.9-.4-7.4-.5-10.3 0-5.3.2-11.6 5.6-18.6l54.6-60.2c2.5-2.8 2.3-7.1-.5-9.6s-7.1-2.3-9.6.5l-52.8 58.2c-7.1 7.9-22.9 9-24.2 9-7.5 0-15.1 3.1-20.6 9.2zM174.1 5.5c1.2 1.1 1.3 3 .2 4.3-1.1 1.2-3 1.3-4.3.2-1.2-1.1-1.3-3-.2-4.3 1.2-1.2 3.1-1.3 4.3-.2z"/><path class="st43" d="M111.6 94.8c-.1-2.8-.2-7.1-1.5-8.3-4.6-4.2-8.2-7.4-13.3-12.1-1.5-1.3-4.7-.2-6.8.3-5.8 1.4-11.4 3.7-15.5 8.2-8 8.8-7.3 22.4 1.5 30.4s22.4 7.3 30.4-1.5c3.5-3.9 4.8-6.9 5.1-11.7.1-1.3.2-3.4.1-5.3z"/></svg>