<svg id="Layer_1" xmlns="http://www.w3.org/2000/svg" viewBox="0 0 74.8 97.6"><style>.st0{fill:#f4e9dc}.st1{fill:#34512a}.st2{fill:#5e7a52}.st3{fill:#7a4a3d}.st4{fill:#99675c}.st5{fill:#93594d}.st6{fill:#c6947d}.st7{fill:#dd4b47}.st8{opacity:.21;fill:#FFF}.st9{fill:#bbcc5a}.st10{fill:#e2ba86}.st11{fill:#cca479}.st12{fill:#9e7e5a}.st13{fill:#b56b52}.st14{fill:#9a513e}.st15{opacity:.2;fill:#FFF}.st16{fill:#915c4a}.st17{fill:#a9562c}.st18{fill:#953715}.st19{fill:#7a4c40}.st20{fill:#b7805b}.st21{fill:#3a2a1f}.st22{fill:#a57250}.st23{fill:#6d4137}.st24{fill:#7c4b43}.st25{fill:#3e6e2d}.st26{fill:#66a349}.st27{fill:#4c8a32}.st28{fill:#e2cbbc}.st29{fill:#edd3c6}.st30{fill:#d8bcad}.st31{fill:#773d4d}.st32{fill:#54242e}.st33{fill:#663041}.st34{fill:#80485a}.st35{opacity:.49}.st36{clip-path:url(#SVGID_2_)}.st37{fill:#FFF}.st38{fill:#005c2f}.st39{fill:#057333}.st40{fill:#073f21}.st41{fill:#0c512a}.st42{fill:#d6a667}.st43{fill:#cc9a5d}.st44{fill:#cc9d63}.st45{fill:#c18c52}.st46{fill:#2d3f25}.st47{opacity:.43;fill:#FFF}.st48{fill:#9d9d9c}.st49{fill:#b2b2b2}.st50{fill:#c6c6c6}.st51{fill:#383a35}.st52{fill:#3c3c3b}.st53{fill:#f9f8da}.st54{fill:#cd2b1a}.st55{fill:#b22018}</style><path class="st38" d="M21.5 75.6c-16.4-24.8-15.3-47.9.2-47.9 0 0 5.5-4.4 9.4-.6C35 31 40.4 47.2 48.5 59.4c8.1 12.3 26.2 30.2 26.3 34.4.1 4.2-33.9 11-53.3-18.2z"/><path class="st39" d="M42.9 75.6C19.4 53.9 21.7 27.7 21.7 27.7c-15.5 0-16.6 23.1-.2 47.8C40.9 104.8 74.9 98 74.8 93.9v-.3c-7-1.2-18.2-5.3-31.9-18z"/><path class="st40" d="M16.2 29.3s3.6-1.8 5.7 1.7c0 0 1.1-3 4.2-5.2 0 0-3.8-6.9-7.9-13.2C14.1 6.2 10.3-1.4 3.7.2c-6.6 1.6-2.4 5.7-2.4 5.7l2.7.4S2.9 1.2 7.4 2.9s6.2 10.8 7.2 14.5 1.6 11.9 1.6 11.9z"/><path class="st41" d="M11.1 2.6C9 .6 6.7-.5 3.7.2c-6.6 1.6-2.4 5.7-2.4 5.7l2.7.4S2.9 1.2 7.4 2.9s6.2 10.8 7.2 14.5 1.6 11.9 1.6 11.9 3.3-1.6 5.4 1.2c-.5-4.4-2.8-19.9-10.5-27.9z"/></svg>