<svg id="Layer_1" xmlns="http://www.w3.org/2000/svg" viewBox="0 0 64.6 121.8"><style>.st0{fill:#f4e9dc}.st1{fill:#34512a}.st2{fill:#5e7a52}.st3{fill:#7a4a3d}.st4{fill:#99675c}.st5{fill:#93594d}.st6{fill:#c6947d}.st7{fill:#dd4b47}.st8{opacity:.21;fill:#FFF}.st9{fill:#bbcc5a}.st10{fill:#e2ba86}.st11{fill:#cca479}.st12{fill:#9e7e5a}.st13{fill:#b56b52}.st14{fill:#9a513e}.st15{opacity:.2;fill:#FFF}.st16{fill:#915c4a}.st17{fill:#a9562c}.st18{fill:#953715}.st19{fill:#7a4c40}.st20{fill:#b7805b}.st21{fill:#3a2a1f}.st22{fill:#a57250}.st23{fill:#6d4137}.st24{fill:#7c4b43}.st25{fill:#3e6e2d}.st26{fill:#66a349}.st27{fill:#4c8a32}.st28{fill:#e2cbbc}.st29{fill:#edd3c6}.st30{fill:#d8bcad}.st31{fill:#773d4d}.st32{fill:#54242e}.st33{fill:#663041}.st34{fill:#80485a}.st35{opacity:.49}.st36{clip-path:url(#SVGID_2_)}.st37{fill:#FFF}.st38{fill:#005c2f}.st39{fill:#057333}.st40{fill:#073f21}.st41{fill:#0c512a}.st42{fill:#d6a667}.st43{fill:#cc9a5d}.st44{fill:#cc9d63}.st45{fill:#c18c52}.st46{fill:#2d3f25}.st47{opacity:.43;fill:#FFF}.st48{fill:#9d9d9c}.st49{fill:#b2b2b2}.st50{fill:#c6c6c6}.st51{fill:#383a35}.st52{fill:#3c3c3b}.st53{fill:#f9f8da}.st54{fill:#cd2b1a}.st55{fill:#b22018}</style><path class="st7" d="M54.3 25.8c-10.4-3.2-17.9-1.5-18 13.9-.1 37.5-26.5 63.7-35.1 78-8.7 14.3 33.7-10.9 48.4-34.2C57.9 70.5 69.9 42.1 62 31c-3.1-4.4-7.7-5.2-7.7-5.2z"/><path class="st8" d="M2 121.8c10-5.8 30.9-27.4 43.1-52.2 9.6-19.5 8.9-37.4 8.1-44.2.3.1.7.2 1.1.3 0 0 4.6.8 7.7 5.2 7.9 11.1-4.1 39.5-12.4 52.5C38.1 101.6 9.9 120.9 2 121.8z"/><path class="st9" d="M63.8 34.7S59.7 27.8 55 31c0 0-4.1-6.5-10.2-1.2 0 0-2.7-3.9-6.4-.8 0 0 5.3-6.2 7.9-12.9 2-5.1 3.1-13.6 9.6-16 0 0-4.3 5.5-1.9 9.3 3 4.9 6.1 9.1 7.6 13.9 1.8 5.7 2.2 11.4 2.2 11.4z"/><path class="st8" d="M53.3 29.1c-.3-2.1-.3-5.3-1.2-14.2-.8-8.1.7-12.9 3.6-14.8.1 0 .1-.1.2-.1 0 0-4.3 5.5-1.9 9.3 3 4.9 6.1 9.1 7.6 13.9 1.8 5.8 2.2 11.5 2.2 11.5S59.7 27.8 55 31c0-.1-.7-1-1.7-1.9z"/></svg>