<svg id="Layer_1" xmlns="http://www.w3.org/2000/svg" viewBox="0 0 84.8 118.2"><style>.st0{fill:#f4e9dc}.st1{fill:#34512a}.st2{fill:#5e7a52}.st3{fill:#7a4a3d}.st4{fill:#99675c}.st5{fill:#93594d}.st6{fill:#c6947d}.st7{fill:#dd4b47}.st8{opacity:.21;fill:#FFF}.st9{fill:#bbcc5a}.st10{fill:#e2ba86}.st11{fill:#cca479}.st12{fill:#9e7e5a}.st13{fill:#b56b52}.st14{fill:#9a513e}.st15{opacity:.2;fill:#FFF}.st16{fill:#915c4a}.st17{fill:#a9562c}.st18{fill:#953715}.st19{fill:#7a4c40}.st20{fill:#b7805b}.st21{fill:#3a2a1f}.st22{fill:#a57250}.st23{fill:#6d4137}.st24{fill:#7c4b43}.st25{fill:#3e6e2d}.st26{fill:#66a349}.st27{fill:#4c8a32}.st28{fill:#e2cbbc}.st29{fill:#edd3c6}.st30{fill:#d8bcad}.st31{fill:#773d4d}.st32{fill:#54242e}.st33{fill:#663041}.st34{fill:#80485a}.st35{opacity:.49}.st36{clip-path:url(#SVGID_2_)}.st37{fill:#FFF}.st38{fill:#005c2f}.st39{fill:#057333}.st40{fill:#073f21}.st41{fill:#0c512a}.st42{fill:#d6a667}.st43{fill:#cc9a5d}.st44{fill:#cc9d63}.st45{fill:#c18c52}.st46{fill:#2d3f25}.st47{opacity:.43;fill:#FFF}.st48{fill:#9d9d9c}.st49{fill:#b2b2b2}.st50{fill:#c6c6c6}.st51{fill:#383a35}.st52{fill:#3c3c3b}.st53{fill:#f9f8da}.st54{fill:#cd2b1a}.st55{fill:#b22018}</style><path class="st3" d="M84.8 11.8L18.6 115.5.8 104.2 67 .5s6.1-1.9 11.7 1.7c5.1 3.2 6.1 9.6 6.1 9.6z"/><path class="st4" d="M77.3 1.4C72.1-1.1 67 .5 67 .5L.8 104.2l7.7 4.9L77.3 1.4z"/><ellipse transform="rotate(-57.45 9.733 109.844)" class="st5" cx="9.7" cy="109.8" rx="7.3" ry="10.6"/><path class="st6" d="M11.1 115.6c-1.4 0-2.9-.5-4.2-1.3-3-1.9-4.3-5.1-2.9-7.3.7-1.1 2-1.7 3.6-1.7 1.4 0 2.9.5 4.2 1.3 3 1.9 4.3 5.1 2.9 7.3-.7 1.1-2 1.7-3.6 1.7zm-3.5-9.3c-1.3 0-2.3.5-2.8 1.3-1.1 1.7.1 4.3 2.6 5.9 1.2.7 2.5 1.2 3.7 1.2 1.3 0 2.3-.5 2.8-1.3 1.1-1.7-.1-4.3-2.6-5.9-1.2-.8-2.5-1.2-3.7-1.2z"/></svg>