<svg id="Layer_1" xmlns="http://www.w3.org/2000/svg" viewBox="0 0 101.3 125.4"><style>.st0{fill:#f4e9dc}.st1{fill:#34512a}.st2{fill:#5e7a52}.st3{fill:#7a4a3d}.st4{fill:#99675c}.st5{fill:#93594d}.st6{fill:#c6947d}.st7{fill:#dd4b47}.st8{opacity:.21;fill:#FFF}.st9{fill:#bbcc5a}.st10{fill:#e2ba86}.st11{fill:#cca479}.st12{fill:#9e7e5a}.st13{fill:#b56b52}.st14{fill:#9a513e}.st15{opacity:.2;fill:#FFF}.st16{fill:#915c4a}.st17{fill:#a9562c}.st18{fill:#953715}.st19{fill:#7a4c40}.st20{fill:#b7805b}.st21{fill:#3a2a1f}.st22{fill:#a57250}.st23{fill:#6d4137}.st24{fill:#7c4b43}.st25{fill:#3e6e2d}.st26{fill:#66a349}.st27{fill:#4c8a32}.st28{fill:#e2cbbc}.st29{fill:#edd3c6}.st30{fill:#d8bcad}.st31{fill:#773d4d}.st32{fill:#54242e}.st33{fill:#663041}.st34{fill:#80485a}.st35{opacity:.49}.st36{clip-path:url(#SVGID_2_)}.st37{fill:#FFF}.st38{fill:#005c2f}.st39{fill:#057333}.st40{fill:#073f21}.st41{fill:#0c512a}.st42{fill:#d6a667}.st43{fill:#cc9a5d}.st44{fill:#cc9d63}.st45{fill:#c18c52}.st46{fill:#2d3f25}.st47{opacity:.43;fill:#FFF}.st48{fill:#9d9d9c}.st49{fill:#b2b2b2}.st50{fill:#c6c6c6}.st51{fill:#383a35}.st52{fill:#3c3c3b}.st53{fill:#f9f8da}.st54{fill:#cd2b1a}.st55{fill:#b22018}</style><path class="st3" d="M30.7 118.5s-8.8-6.1-12.5-1.5c-3.7 4.6-1.7 6.2.9 5.4 0 0-1.8-2.7.5-3.4 2.2-.7 11.1-.5 11.1-.5zM34.1 119.4s-6.7 1.9-8.6 1.3l.3 2s7.7.7 11.1-2.8l-2.8-.5zM38.6 125.4l-2.8-.9s0-3.1 2.2-3.1c2.2.1 2.6-1.7 2.6-1.7l1.5-.2-3.5 5.9zM47.1 121.2l1.7-.3s1.3 2.9 3.4 2.4c2.1-.5 3.1-.5 3.1-.5l.3 2s-4 1.1-5.8-.3c-1.6-1.4-2.7-3.3-2.7-3.3zM58.6 120.8l1.2-.2 2.6 3.2-2.4.4zM65.8 118.5s6.7 3.7 10.3 2.5l.4 2.6s-7.1-1.2-8.7-2.7c-1.5-1.5-2-2.4-2-2.4zM70.9 117.5s6.2 1.6 9.6-.1c3.4-1.7 4.5 4.9 4.5 4.9l-2.1.3s-.1-3.9-1.9-3.5c-6.4 1.4-10.1-1.6-10.1-1.6z"/><path class="st28" d="M42.6 2.2s3.7 7.9 2.2 22.9c-.7 7.2-3.1 18.9-13.9 23.2C20.1 52.6 3.1 60.7.3 79.3c-2.8 18.7 13.5 38.9 42.2 41.4 0 0 14.5 2.4 22.3-1.9 0 0 11.9 2.5 20.5-7.2 0 0 13.6-5.5 15.3-16.2 1.7-10.7 1-28-17.2-38.9-18.2-10.9-29-11.6-24.6-38.6.8-4.6 5-17.8 5-17.8S56 5.2 53.9 3.3C49.1-1 42.6 2.2 42.6 2.2z"/><path class="st29" d="M60 54.2S45.7 89.4 65.9 119c3.1.4 12.4.6 19.4-7.4 0 0 7.4-36-25.3-57.4zM44.6 53.8S25.2 80.9 32.5 119c0 0-15.7-17.6-10.9-39.8s23-25.4 23-25.4z"/><path class="st30" d="M48.2 114.5C28.3 115.6 10.5 100.3.7 89.8c3.3 15.1 18.5 28.9 41.9 30.9 0 0 14.5 2.4 22.3-1.9 0 0 11.9 2.5 20.5-7.2 0 0 13.6-5.5 15.3-16.2.3-1.9.5-3.9.6-6.1-7.2 14.2-27.8 23.8-53.1 25.2z"/><path class="st30" d="M60 54.2c4.8 1.7 9 4.7 12.7 8.2 3.7 3.5 6.7 7.7 9 12.3 2.3 4.6 3.8 9.5 4.6 14.6.7 5 .7 10.1-.2 15-.8-4.9-1.6-9.8-2.9-14.4-1.3-4.7-2.9-9.1-5.1-13.4-2.1-4.3-4.7-8.3-7.8-12-3-3.7-6.4-7.2-10.3-10.3zM44.6 53.8c-1.8 4.8-3.5 9.5-5.1 14.2-1.6 4.7-3 9.5-4.2 14.3-1.2 4.8-2.2 9.6-2.8 14.5-.7 4.9-1 9.9-1.1 15-1.6-4.9-2.2-10.1-2.1-15.2.1-5.2.8-10.3 2.1-15.3s3-9.8 5.2-14.5c2.2-4.5 4.7-9 8-13z"/><path class="st29" d="M8.6 68.8C15.3 56.6 27.1 50.9 32 47.7c-.4.2-.8.4-1.2.5C20 52.5 3 60.6.2 79.2c-1.1 7.1.6 14.5 4.8 21 .1 0-5.8-14.3 3.6-31.4z"/><path class="st30" d="M54.6 19.6c-.2 2.7-.2 5.3-.1 7.9.1 2.6.4 5.2 1 7.7.5 2.5 1.4 4.9 2.5 7.3 1.1 2.3 2.5 4.5 4.2 6.6-2.2-1.5-4.2-3.5-5.6-5.8-1.5-2.3-2.4-4.9-3-7.6-.6-2.7-.8-5.4-.6-8.1.1-2.8.6-5.5 1.6-8zM48.8 30.1c.3 2.1.2 4.1-.1 6.2-.3 2-.9 4.1-1.8 6-.8 1.9-2 3.7-3.5 5.3-1.4 1.5-3.2 2.8-5.2 3.4 1.6-1.4 2.9-2.8 4-4.4 1.1-1.6 2-3.3 2.8-5.1 1.7-3.6 2.7-7.4 3.8-11.4zM51.4 40.6c.2 1.3.4 2.5.5 3.7.2 1.1.3 2.2.6 3.2s.6 2 1 3 1 2 1.7 3.2c-1.4-.1-2.7-.8-3.7-1.8s-1.7-2.3-2-3.7c-.3-1.4-.3-2.8 0-4.1.4-1.2 1-2.5 1.9-3.5z"/><path class="st29" d="M53 7.7c3.4 3.6 8.2-2.8 10.7-7.1.1-.4.1-.6.1-.6S56 5.2 53.9 3.3C49.1-1 42.6 2.2 42.6 2.2s.1.1.1.3c2.8.6 7.2 2 10.3 5.2z"/></svg>