<svg id="Layer_1" xmlns="http://www.w3.org/2000/svg" viewBox="0 0 97.8 115.7"><style>.st0{fill:#f4e9dc}.st1{fill:#34512a}.st2{fill:#5e7a52}.st3{fill:#7a4a3d}.st4{fill:#99675c}.st5{fill:#93594d}.st6{fill:#c6947d}.st7{fill:#dd4b47}.st8{opacity:.21;fill:#FFF}.st9{fill:#bbcc5a}.st10{fill:#e2ba86}.st11{fill:#cca479}.st12{fill:#9e7e5a}.st13{fill:#b56b52}.st14{fill:#9a513e}.st15{opacity:.2;fill:#FFF}.st16{fill:#915c4a}.st17{fill:#a9562c}.st18{fill:#953715}.st19{fill:#7a4c40}.st20{fill:#b7805b}.st21{fill:#3a2a1f}.st22{fill:#a57250}.st23{fill:#6d4137}.st24{fill:#7c4b43}.st25{fill:#3e6e2d}.st26{fill:#66a349}.st27{fill:#4c8a32}.st28{fill:#e2cbbc}.st29{fill:#edd3c6}.st30{fill:#d8bcad}.st31{fill:#773d4d}.st32{fill:#54242e}.st33{fill:#663041}.st34{fill:#80485a}.st35{opacity:.49}.st36{clip-path:url(#SVGID_2_)}.st37{fill:#FFF}.st38{fill:#005c2f}.st39{fill:#057333}.st40{fill:#073f21}.st41{fill:#0c512a}.st42{fill:#d6a667}.st43{fill:#cc9a5d}.st44{fill:#cc9d63}.st45{fill:#c18c52}.st46{fill:#2d3f25}.st47{opacity:.43;fill:#FFF}.st48{fill:#9d9d9c}.st49{fill:#b2b2b2}.st50{fill:#c6c6c6}.st51{fill:#383a35}.st52{fill:#3c3c3b}.st53{fill:#f9f8da}.st54{fill:#cd2b1a}.st55{fill:#b22018}</style><path class="st10" d="M48.3 37.2S38.9 2.8 24.3 0C24.3 0 .6 5.1 0 25.8c0 0 2.6 28.4 27.2 32l21.1-20.6z"/><path class="st11" d="M32.2 52.9s-8.5-3.9-10.1-7C20.4 42.8 8.5 32.6 8.5 32.6c-1.9-4.6-.9-17 0-24.6C4 12 .2 17.7 0 25.8c0 0 3 30.2 27.6 33.8l4.6-6.7z"/><path class="st12" d="M35.9 15.8c-2.1-.5-4.3-.5-6.3-.1-2.1.3-4 1-5.8 2.1-3.6 2.2-6.1 5.7-8.3 9.4.6-2.1 1.6-4.1 2.9-5.9 1.3-1.8 2.9-3.4 4.8-4.6 1.9-1.2 4.1-1.9 6.3-2 2.1-.2 4.4.2 6.4 1.1zM40.7 26.5c-1.8.1-3.6.4-5.3.8-1.7.5-3.3 1.1-4.8 2-1.5.9-2.8 2-4 3.3-1.2 1.3-2.2 2.8-3.1 4.4.4-1.8 1.2-3.5 2.3-5 1.1-1.5 2.5-2.8 4.1-3.8 3.3-2 7.3-2.6 10.8-1.7z"/><g><path class="st10" d="M17.5 89.5S21.1 55.9 36 43.7c0 0 20.2-22.8 46.8-21.6 0 0 20.8 20.8 13.5 38.9 0 0-18.1 14.8-24.3 27.9 0 0-10.6 25.8-23.1 26.9 0 0-8.7-1-19.4-9.8-11.6-9.6-12-16.5-12-16.5z"/><path class="st11" d="M64.8 65.1S63.9 90 51.3 93.7L38.6 112s1.5 1.6 5.6 2.9c2.5.8 4.8.8 4.8.8 12.5-1.1 23-26.9 23-26.9 6.2-13.1 24.3-27.9 24.3-27.9 2.1-5.2 1.9-10.6.5-15.6-7.7 3.1-31.9 13.5-32 19.8z"/><path class="st12" d="M40.2 40.9c.9 2.1 2 3.9 3.4 5.6 1.3 1.7 2.9 3.2 4.6 4.4 3.5 2.5 7.8 3.7 12.2 4.2-2.2.2-4.5.1-6.7-.4s-4.3-1.5-6.2-2.8c-1.9-1.3-3.5-3-4.7-4.9-1.4-1.8-2.3-3.9-2.6-6.1zM27.9 56.2c.6 1.3 1.3 2.6 2.1 3.7.8 1.2 1.6 2.3 2.6 3.4 1.9 2.1 4 4 6.5 5.3 2.4 1.4 5.1 2.2 7.9 2.5 1.4.2 2.8.2 4.2.1 1.4 0 2.8-.2 4.3-.4-2.7 1-5.6 1.5-8.6 1.3-2.9-.1-5.9-.9-8.5-2.4-2.6-1.4-4.8-3.5-6.6-5.8-1.8-2.3-3.2-4.9-3.9-7.7zM20.5 74.4c.8 1.3 1.6 2.6 2.5 3.8.9 1.2 1.9 2.4 2.9 3.4 2.1 2.1 4.4 4.1 7 5.5 2.6 1.4 5.4 2.4 8.4 2.7 3 .4 6 .2 9-.3-1.4.5-2.9.9-4.5 1.1-1.5.2-3.1.3-4.6.2-3.1-.2-6.2-1.1-8.9-2.6s-5.1-3.6-7.1-5.9c-2-2.4-3.7-5-4.7-7.9z"/></g></svg>