<svg id="Layer_1" xmlns="http://www.w3.org/2000/svg" viewBox="0 0 64.2 180.4"><style>.st0{fill:#f4e9dc}.st1{fill:#34512a}.st2{fill:#5e7a52}.st3{fill:#7a4a3d}.st4{fill:#99675c}.st5{fill:#93594d}.st6{fill:#c6947d}.st7{fill:#dd4b47}.st8{opacity:.21;fill:#FFF}.st9{fill:#bbcc5a}.st10{fill:#e2ba86}.st11{fill:#cca479}.st12{fill:#9e7e5a}.st13{fill:#b56b52}.st14{fill:#9a513e}.st15{opacity:.2;fill:#FFF}.st16{fill:#915c4a}.st17{fill:#a9562c}.st18{fill:#953715}.st19{fill:#7a4c40}.st20{fill:#b7805b}.st21{fill:#3a2a1f}.st22{fill:#a57250}.st23{fill:#6d4137}.st24{fill:#7c4b43}.st25{fill:#3e6e2d}.st26{fill:#66a349}.st27{fill:#4c8a32}.st28{fill:#e2cbbc}.st29{fill:#edd3c6}.st30{fill:#d8bcad}.st31{fill:#773d4d}.st32{fill:#54242e}.st33{fill:#663041}.st34{fill:#80485a}.st35{opacity:.49}.st36{clip-path:url(#SVGID_2_)}.st37{fill:#FFF}.st38{fill:#005c2f}.st39{fill:#057333}.st40{fill:#073f21}.st41{fill:#0c512a}.st42{fill:#d6a667}.st43{fill:#cc9a5d}.st44{fill:#cc9d63}.st45{fill:#c18c52}.st46{fill:#2d3f25}.st47{opacity:.43;fill:#FFF}.st48{fill:#9d9d9c}.st49{fill:#b2b2b2}.st50{fill:#c6c6c6}.st51{fill:#383a35}.st52{fill:#3c3c3b}.st53{fill:#f9f8da}.st54{fill:#cd2b1a}.st55{fill:#b22018}</style><path class="st42" d="M64.2 32.1C64.2 14.4 49.8 0 32.1 0 14.4 0 0 14.4 0 32.1c0 7.7 1.8 13 6.4 18.5 2.1 2.6 6 5.9 8.3 8.4 4.1 4.5 8.7 10 9.6 20.2v93.4c0 4.3 3.5 7.8 7.8 7.8s7.8-3.5 7.8-7.8V82.3c0-12.2 12.5-25.3 13.6-26.4 6.6-5.8 10.7-14.3 10.7-23.8zM31.8 174.9c-1.9 0-3.5-1.6-3.5-3.5s1.6-3.5 3.5-3.5 3.5 1.6 3.5 3.5-1.6 3.5-3.5 3.5z"/><path class="st43" d="M16 50.6c2.2 2.2 5.7 5.9 7.6 5.9h20.7c2.3 0 4.2-3.5 5.6-5.5 3.8-5.7 6.9-11.9 6.9-18.9 0-13.6-11.1-24.7-24.7-24.7S7.4 18.5 7.4 32.1c0 6 1.2 9.6 4.7 13.9.9 1.1 2.4 3.1 3.9 4.6z"/></svg>