<svg id="Layer_1" xmlns="http://www.w3.org/2000/svg" viewBox="0 0 68.7 85.5"><style>.st0{fill:#f4e9dc}.st1{fill:#34512a}.st2{fill:#5e7a52}.st3{fill:#7a4a3d}.st4{fill:#99675c}.st5{fill:#93594d}.st6{fill:#c6947d}.st7{fill:#dd4b47}.st8{opacity:.21;fill:#FFF}.st9{fill:#bbcc5a}.st10{fill:#e2ba86}.st11{fill:#cca479}.st12{fill:#9e7e5a}.st13{fill:#b56b52}.st14{fill:#9a513e}.st15{opacity:.2;fill:#FFF}.st16{fill:#915c4a}.st17{fill:#a9562c}.st18{fill:#953715}.st19{fill:#7a4c40}.st20{fill:#b7805b}.st21{fill:#3a2a1f}.st22{fill:#a57250}.st23{fill:#6d4137}.st24{fill:#7c4b43}.st25{fill:#3e6e2d}.st26{fill:#66a349}.st27{fill:#4c8a32}.st28{fill:#e2cbbc}.st29{fill:#edd3c6}.st30{fill:#d8bcad}.st31{fill:#773d4d}.st32{fill:#54242e}.st33{fill:#663041}.st34{fill:#80485a}.st35{opacity:.49}.st36{clip-path:url(#SVGID_2_)}.st37{fill:#FFF}.st38{fill:#005c2f}.st39{fill:#057333}.st40{fill:#073f21}.st41{fill:#0c512a}.st42{fill:#d6a667}.st43{fill:#cc9a5d}.st44{fill:#cc9d63}.st45{fill:#c18c52}.st46{fill:#2d3f25}.st47{opacity:.43;fill:#FFF}.st48{fill:#9d9d9c}.st49{fill:#b2b2b2}.st50{fill:#c6c6c6}.st51{fill:#383a35}.st52{fill:#3c3c3b}.st53{fill:#f9f8da}.st54{fill:#cd2b1a}.st55{fill:#b22018}</style><path class="st13" d="M48.6 1.4c17.1 5.9 24.8 28.4 17.2 50.3-7.6 21.9-21 40.1-45.5 31.6C-1.3 75.8-3.5 52.2 4 30.3 11.5 8.5 31.5-4.5 48.6 1.4z"/><path class="st14" d="M54.9 73c-5.1 3.3-22.3 11.4-38.5-9-17.2-21.8 0-53.4.3-53.9-5.4 5.2-10 12-12.8 20.2-7.6 21.9-5.3 45.5 16.3 53 15.7 5.4 26.8 0 34.7-10.3z"/><path class="st14" d="M33.7 14.3c-2.2 2.2-4.2 4.5-5.5 6.9-.7 1.2-1.2 2.5-1.4 3.7-.2 1.3-.2 2.5 0 3.7l.2 1.1-1 .8c-1 .9-2.1 2.2-3 3.4-.9 1.2-1.6 2.6-2.2 4-.5 1.4-.9 3-1 4.6-.1 1.6.1 3.3.4 5-1.1-1.4-1.9-3-2.4-4.8-.4-1.8-.5-3.7-.1-5.6.4-1.9 1.1-3.6 2.1-5.3 1-1.6 2.1-3 3.7-4.4l-.7 1.8c-.3-1.8-.2-3.6.3-5.3.5-1.7 1.4-3.2 2.5-4.5 1.1-1.3 2.3-2.3 3.6-3.2 1.6-.7 3-1.5 4.5-1.9z"/><path class="st15" d="M57.1 13c6.8 7.5 10 16.4 11.5 23.9.7-16.5-6.9-30.9-20-35.5C44.7.1 40.7-.3 36.6.2 42.4 2 50.5 5.6 57.1 13z"/><path class="st14" d="M46.4 19.4c-2.5 2.3-4.4 5.1-5.2 8.1-.9 3-.8 6.1 0 9.1l.3 1.3-1.3.8c-1.1.6-2.3 1.5-3.2 2.5-1 1-1.8 2-2.4 3.1-.6 1.1-1 2.3-1.1 3.6-.1 1.3.1 2.6.4 3.9l.4 1.5-1.2.5c-.8.3-1.7 1-2.5 1.7S29.2 57 28.8 58c-.9 1.9-1 4.3-.6 6.7-1.2-2.1-1.9-4.7-1.3-7.3.3-1.3.9-2.6 1.7-3.7.9-1.1 1.8-2 3.1-2.8l-.8 2c-.7-1.6-1.1-3.3-1.1-5.1 0-1.8.5-3.6 1.3-5.2s1.9-3 3.1-4.1c1.3-1.2 2.5-2.1 4.1-3l-1 2c-.3-1.8-.4-3.7-.2-5.5.2-1.8.7-3.7 1.5-5.3 1.8-3.4 4.6-6 7.8-7.3zM50.9 35.2c.8 1.4 1.3 2.9 1.7 4.4.3 1.6.5 3.2.4 4.8-.1 1.7-.5 3.4-1.3 4.9-.8 1.6-2 3-3.4 4.1l.8-1.8c.2 2 0 3.8-.3 5.7-.4 1.8-1.1 3.6-2.1 5.2s-2.4 3-3.9 4c-1.6 1-3.3 1.6-5.1 1.8 1.4-1 2.7-2.1 3.8-3.3 1.1-1.2 1.9-2.5 2.5-4 .6-1.4 1-2.9 1.2-4.4.2-1.5.3-3.2.2-4.5l-.3-1.1.9-.6c1-.7 1.9-1.6 2.6-2.7.7-1.1 1.2-2.3 1.5-3.7.7-2.6.9-5.6.8-8.8z"/></svg>