<svg id="Layer_1" xmlns="http://www.w3.org/2000/svg" xmlns:xlink="http://www.w3.org/1999/xlink" viewBox="0 0 85.6 138.9"><style>.st0{fill:#f4e9dc}.st1{fill:#34512a}.st2{fill:#5e7a52}.st3{fill:#7a4a3d}.st4{fill:#99675c}.st5{fill:#93594d}.st6{fill:#c6947d}.st7{fill:#dd4b47}.st8{opacity:.21;fill:#FFF}.st9{fill:#bbcc5a}.st10{fill:#e2ba86}.st11{fill:#cca479}.st12{fill:#9e7e5a}.st13{fill:#b56b52}.st14{fill:#9a513e}.st15{opacity:.2;fill:#FFF}.st16{fill:#915c4a}.st17{fill:#a9562c}.st18{fill:#953715}.st19{fill:#7a4c40}.st20{fill:#b7805b}.st21{fill:#3a2a1f}.st22{fill:#a57250}.st23{fill:#6d4137}.st24{fill:#7c4b43}.st25{fill:#3e6e2d}.st26{fill:#66a349}.st27{fill:#4c8a32}.st28{fill:#e2cbbc}.st29{fill:#edd3c6}.st30{fill:#d8bcad}.st31{fill:#773d4d}.st32{fill:#54242e}.st33{fill:#663041}.st34{fill:#80485a}.st35{opacity:.49}.st36{clip-path:url(#SVGID_2_)}.st37{fill:#FFF}.st38{fill:#005c2f}.st39{fill:#057333}.st40{fill:#073f21}.st41{fill:#0c512a}.st42{fill:#d6a667}.st43{fill:#cc9a5d}.st44{fill:#cc9d63}.st45{fill:#c18c52}.st46{fill:#2d3f25}.st47{opacity:.43;fill:#FFF}.st48{fill:#9d9d9c}.st49{fill:#b2b2b2}.st50{fill:#c6c6c6}.st51{fill:#383a35}.st52{fill:#3c3c3b}.st53{fill:#f9f8da}.st54{fill:#cd2b1a}.st55{fill:#b22018}</style><path class="st31" d="M32.8 25.9c8.6-8.5 9.4-19.2 15.3-22.3 5.9-3.1 7 4.5 7 4.5s-8.4 7.3-4.9 12.7c3.5 5.4 7.3 9.3 16 14.8 8.7 5.6 20.9 18.4 19.2 43-1.7 24.6-35.5 36.1-45.6 35 0 0-39.8-5.9-39.8-39.2 0-31.8 21.9-37.7 32.8-48.5z"/><path class="st32" d="M25.8 109.5s15.1 5.7 30.7.8c0 0-8.1 9.4-15.4 9.4-7.2-.1-15.3-10.2-15.3-10.2z"/><path class="st33" d="M54.4 103.5c-24 7.9-45.5-9.1-51.4-14.4 9.3 20.5 36.7 24.5 36.7 24.5 10.1 1 43.9-10.4 45.6-35 .2-2.5.2-4.9.1-7.2-2.9 9.1-11 25.5-31 32.1z"/><path class="st34" d="M11.5 55.5c5.9-13.1 19.6-27.1 23.3-31.8-.6.7-1.3 1.5-2 2.2C21.9 36.7 0 42.6 0 74.5c0 11 4.4 19 10.2 24.8-3.8-9.1-5.6-28.4 1.3-43.8z"/><g class="st35"><defs><path id="SVGID_1_" class="st35" d="M32.8 25.9c8.6-8.5 9.4-19.2 15.3-22.3 5.9-3.1 7 4.5 7 4.5s-8.4 7.3-4.9 12.7c3.5 5.4 7.3 9.3 16 14.8 8.7 5.6 20.9 18.4 19.2 43-1.7 24.6-35.5 36.1-45.6 35 0 0-39.8-5.9-39.8-39.2 0-31.8 21.9-37.7 32.8-48.5z"/></defs><clipPath id="SVGID_2_"><use xlink:href="#SVGID_1_" overflow="visible"/></clipPath><g class="st36"><path class="st37" d="M24 128.6C9.8 107.8 4 87.8 6.8 69.1c2.3-14.8 9.9-28.6 22.7-41.3l.5.5C9.9 48.2-7.3 81.6 24.6 128.2l-.6.4z"/><path class="st37" d="M21.3 107.7c-3.6-9.6-5.7-34.7-.7-52.2 4.8-16.9 14.8-35.6 14.9-35.7l.6.3c-.1.2-10 18.8-14.8 35.6-5 17.3-2.9 42.2.7 51.8l-.7.2zM34.5 125c-.1-.2-11.7-20.3-3.1-69.5C35.9 29.7 51.8.3 52 0l.6.3c-.2.3-16 29.6-20.5 55.3-8.6 48.9 2.9 68.9 3 69.1l-.6.3zM47.7 124.3l-.7-.1c0-.3 5-32.2 7.4-56.9 1.8-19.2-1.2-51.5-1.2-51.8l.7-.1c0 .3 3.1 32.7 1.2 52-2.4 24.7-7.4 56.6-7.4 56.9z"/><path class="st37" d="M37.9 138.9C35.5 52.9 50.1 18 50.3 17.7l.6.3c-.1.3-14.7 35.1-12.3 120.9h-.7zM55.4 117.4l-.6-.3C76 68.8 58.6 24.4 58.4 24l.6-.3c.2.5 17.8 45.2-3.6 93.7z"/><path class="st37" d="M67.4 109.7l-.6-.4c22.4-35.9 1.1-78.5.9-78.9l.6-.3c.1.1 5.5 10.9 8.1 26 2.4 14 2.8 34.6-9 53.6z"/></g></g></svg>