<svg id="Layer_1" xmlns="http://www.w3.org/2000/svg" viewBox="0 0 112.7 144.8"><style>.st0{fill:#f4e9dc}.st1{fill:#34512a}.st2{fill:#5e7a52}.st3{fill:#7a4a3d}.st4{fill:#99675c}.st5{fill:#93594d}.st6{fill:#c6947d}.st7{fill:#dd4b47}.st8{opacity:.21;fill:#FFF}.st9{fill:#bbcc5a}.st10{fill:#e2ba86}.st11{fill:#cca479}.st12{fill:#9e7e5a}.st13{fill:#b56b52}.st14{fill:#9a513e}.st15{opacity:.2;fill:#FFF}.st16{fill:#915c4a}.st17{fill:#a9562c}.st18{fill:#953715}.st19{fill:#7a4c40}.st20{fill:#b7805b}.st21{fill:#3a2a1f}.st22{fill:#a57250}.st23{fill:#6d4137}.st24{fill:#7c4b43}.st25{fill:#3e6e2d}.st26{fill:#66a349}.st27{fill:#4c8a32}.st28{fill:#e2cbbc}.st29{fill:#edd3c6}.st30{fill:#d8bcad}.st31{fill:#773d4d}.st32{fill:#54242e}.st33{fill:#663041}.st34{fill:#80485a}.st35{opacity:.49}.st36{clip-path:url(#SVGID_2_)}.st37{fill:#FFF}.st38{fill:#005c2f}.st39{fill:#057333}.st40{fill:#073f21}.st41{fill:#0c512a}.st42{fill:#d6a667}.st43{fill:#cc9a5d}.st44{fill:#cc9d63}.st45{fill:#c18c52}.st46{fill:#2d3f25}.st47{opacity:.43;fill:#FFF}.st48{fill:#9d9d9c}.st49{fill:#b2b2b2}.st50{fill:#c6c6c6}.st51{fill:#383a35}.st52{fill:#3c3c3b}.st53{fill:#f9f8da}.st54{fill:#cd2b1a}.st55{fill:#b22018}</style><path class="st25" d="M74.9 32.3s-7.5 3.1-12.6.7c0 0 2.4-2.5 4.7-2.7 0 0-4.8-.4-6-2.4-1.2-2-1.7-4.6-2.9-4.7l4-.4s-.7-.7-1.1-2.5c0 0 4.3-.4 6.8 2.1 0 0-2.6-1.8-3.4-3.8-.7-1.6 0-2.6 0-2.6l1.7 1.3s-.7-3.5 1.6-6.2c0 0 3.2 1.2 5.1 4.5 0 0 0-1.6 1.1-2.7 0 0 3 2.9 3.3 6.7 0 0 .1-1.5 1.6-3.7 0 0 2.2 1.9 1.4 5.5 0 0 .9-1.2 2.3-1.1 0 0-.3 2.9-2.8 7.2-2.1 3.6-4.8 4.8-4.8 4.8z"/><path class="st26" d="M76 23.2c-.6 1.2-1 2.6-1.2 4-.1.7-.1 1.4-.1 2.1 0 .7.1 1.4.2 2l.5 2.6-1.1-2.4c-.3-.6-.8-1.3-1.3-1.8s-1.2-.9-1.8-1.3c-.7-.4-1.4-.7-2.1-.9-.7-.2-1.5-.4-2.3-.6v-.1c.8-.1 1.6-.1 2.4 0 .8.1 1.6.4 2.4.8.7.4 1.4.9 2 1.5.6.6 1 1.3 1.3 2.1l-.6.2c-.1-.7-.1-1.4-.1-2.1 0-.7.1-1.4.2-2.1.3-1.5.8-2.9 1.6-4z"/><path class="st26" d="M74.6 30.9c-.6-.7-1.1-1.5-1.5-2.3-.4-.8-.8-1.7-1-2.5-.5-1.7-.7-3.6-.2-5.4.2 1.8.6 3.5 1.1 5.2.4 1.7 1 3.3 1.6 5z"/><path class="st27" d="M57.3 40.4s-8.7 5.4-15.4 3.5c0 0 2.5-3.6 5.3-4.3 0 0-6 .5-7.9-1.7-1.9-2.3-3-5.3-4.5-5.2l4.8-1.3s-1-.7-1.9-2.8c0 0 5.2-1.4 8.8 1.2 0 0-3.5-1.7-5-4-1.2-1.8-.5-3.1-.5-3.1l2.4 1.2s-1.6-4.2.7-8c0 0 4.2.8 7.2 4.5 0 0-.4-1.9.8-3.6 0 0 4.3 2.9 5.5 7.6 0 0-.1-1.8 1.3-4.9 0 0 3.1 1.8 2.9 6.4 0 0 .9-1.7 2.6-1.8 0 0 .3 3.6-2 9.4-2 4.9-5.1 6.9-5.1 6.9z"/><path class="st26" d="M56.8 28.9c-.5 1.7-.7 3.4-.6 5.1 0 .9.1 1.7.3 2.6.2.8.4 1.7.6 2.5l.9 2.5-1.4-2.2c-.5-.8-1.2-1.4-2-2-.8-.5-1.6-.9-2.5-1.3-.9-.3-1.8-.5-2.8-.7-1-.1-1.9-.2-2.9-.2v-.1c1-.3 2-.4 3-.4s2 .1 3 .5c1 .3 1.9.8 2.7 1.4.8.6 1.5 1.4 2.1 2.3l-.6.3c-.3-.9-.4-1.7-.6-2.6-.1-.9-.2-1.8-.2-2.6 0-1.7.3-3.5 1-5.1z"/><path class="st26" d="M56.6 38.8c-1.7-1.5-3-3.4-4-5.4-1-2-1.7-4.3-1.5-6.6.5 2.2 1.3 4.2 2.3 6.2.5 1 1 2 1.5 2.9.6.9 1.1 1.9 1.7 2.9z"/><path class="st26" d="M60.9 59l-.9-.2c2-9.6-3.7-19.7-3.8-19.8l.7-.4c.4.4 6.1 10.5 4 20.4zM76.5 43.5l-.8-.2c2-6.8-2.3-13.8-2.4-13.9l.7-.5c.3.3 4.7 7.3 2.5 14.6z"/><path class="st26" d="M29 144.8l-1.7-.2c0-.3 2.6-27.3 9.3-48.8 6.9-22.2 21-35.7 35.9-50.1 15.1-14.6 19.7-32 19.7-32.2l1.6.4c0 .2-4.7 18.1-20.2 33C59 61.2 45 74.6 38.2 96.4c-6.6 21.3-9.2 48.1-9.2 48.4z"/><path class="st27" d="M89.7 22.3s-8.5-4.2-10.2-10.4c0 0 4 .2 5.9 2.1 0 0-3.4-4.5-2.5-7 .9-2.6 2.7-4.9 1.9-6l3.3 3.2s.1-1.1 1.3-2.9c0 0 3.6 3.4 3.3 7.5 0 0-.4-3.6.7-5.8.9-1.9 2.2-2 2.2-2l.2 2.5S98.4.2 102.4.2c0 0 1.4 3.7-.1 7.8 0 0 1.3-1.2 3.2-1.1 0 0-.2 4.8-3.3 8 0 0 1.4-1 4.5-1.4 0 0 .1 3.3-3.7 5.4 0 0 1.8-.1 2.7 1.2 0 0-2.7 2-8.3 3-4.6.7-7.7-.8-7.7-.8z"/><path class="st26" d="M98.5 16.3c-1.6.4-3 1.1-4.3 2-.7.5-1.3.9-1.9 1.5-.6.5-1.2 1.1-1.6 1.7l-1.6 2 1.1-2.4c.4-.8.5-1.7.6-2.5 0-.9-.1-1.7-.2-2.6-.2-.9-.5-1.7-.8-2.5-.4-.8-.8-1.6-1.3-2.4l.1-.1c.7.6 1.3 1.4 1.8 2.2.5.8.9 1.7 1.1 2.6.2.9.3 1.9.2 2.9-.1 1-.3 1.9-.8 2.8l-.5-.4c.6-.6 1.2-1.2 1.8-1.7.6-.5 1.3-1 2-1.4 1.2-.9 2.7-1.5 4.3-1.7z"/><path class="st26" d="M90.7 21c.1-1 .5-2 .9-3s.9-1.9 1.4-2.8c1.1-1.8 2.6-3.4 4.4-4.4-1.4 1.5-2.7 3.1-3.7 4.8-1.1 1.7-2 3.5-3 5.4z"/><path class="st25" d="M22.7 75.2s-3.7 8.6-9.9 10.6c0 0 0-4 1.8-6 0 0-4.3 3.5-6.9 2.8-2.6-.7-5-2.4-6.1-1.6l3-3.4s-1.1-.1-2.9-1.2c0 0 3.2-3.7 7.3-3.6 0 0-3.6.5-5.8-.4-1.9-.8-2.1-2.1-2.1-2.1l2.4-.3S.1 67.6-.1 63.6c0 0 3.6-1.5 7.8-.3 0 0-1.3-1.3-1.3-3.1 0 0 4.8 0 8.1 2.9 0 0-1-1.3-1.6-4.3 0 0 3.3-.2 5.5 3.4 0 0-.2-1.7 1.1-2.7 0 0 2.1 2.6 3.4 8.1 1.1 4.4-.2 7.6-.2 7.6z"/><path class="st26" d="M16.3 66.8c.5 1.5 1.2 2.9 2.2 4.2l1.5 1.8c.6.6 1.1 1.1 1.8 1.5l2.1 1.5-2.4-1c-.8-.3-1.7-.4-2.5-.4-.9 0-1.7.1-2.6.4-.8.2-1.7.5-2.5.9s-1.6.9-2.3 1.4V77c.6-.7 1.3-1.3 2.1-1.9.8-.5 1.6-1 2.5-1.2.9-.3 1.9-.4 2.8-.3 1 .1 1.9.3 2.8.7l-.3.5c-.7-.5-1.2-1.1-1.8-1.7-.5-.6-1-1.2-1.5-1.9-.9-1.4-1.6-2.8-1.9-4.4z"/><path class="st26" d="M21.3 74.3c-1-.1-2-.4-3-.7-1-.3-1.9-.8-2.8-1.3-1.8-1-3.5-2.4-4.5-4.2 1.6 1.4 3.2 2.5 4.9 3.5 1.7 1 3.5 1.8 5.4 2.7z"/><path class="st26" d="M34.6 108.4l-.8-.2c4.7-24.6-13-34.1-13.2-34.2l.4-.7c.1.1 18.4 9.9 13.6 35.1z"/><path class="st27" d="M26 63.9s10.7 1 16.2-4.1c0 0-4.1-2.2-7-1.5 0 0 5.9-2.4 6.6-5.4.7-3 .3-6.4 1.8-7L38.5 47s.6-1.2.5-3.6c0 0-5.5 1.1-7.7 5.3 0 0 2.5-3.3 2.8-6.1.2-2.3-1-3.3-1-3.3l-1.7 2.3s-.6-4.7-4.4-7.2c0 0-3.5 2.8-4.6 7.7 0 0-.6-2-2.4-3 0 0-2.7 4.8-1.5 9.8 0 0-.7-1.8-3.5-4 0 0-2 3.2.4 7.4 0 0-1.7-1.1-3.3-.4 0 0 1.5 3.6 6.3 7.9 3.8 3.7 7.6 4.1 7.6 4.1z"/><path class="st26" d="M21.1 52.8c1.4 1.2 2.5 2.8 3.3 4.4.4.8.8 1.7 1.1 2.6.3.9.6 1.8.7 2.7h-.6c.1-1.1.4-2.2.9-3.2s1.1-1.9 1.9-2.7c.8-.8 1.7-1.4 2.6-1.9 1-.5 2-.9 3-1.1v.1c-.9.5-1.9 1-2.7 1.5-.9.6-1.6 1.2-2.3 1.9-.7.7-1.3 1.5-1.8 2.4-.5.9-.8 1.9-.9 2.8l-.3 2.9-.3-2.6c-.1-.9-.3-1.8-.6-2.6-.3-.9-.6-1.7-1-2.6-.7-1.7-1.7-3.3-3-4.6z"/><path class="st26" d="M25.9 62c.1-1.2.2-2.4.3-3.5.1-1.2.1-2.3.1-3.5 0-2.3-.3-4.6-.8-6.9 1.2 2.1 1.6 4.5 1.7 6.9-.1 2.4-.4 4.8-1.3 7z"/><path class="st26" d="M30.1 83.5c-6.8-8.4-4-23.1-3.9-23.7l.8.2c0 .1-2.8 14.9 3.7 23l-.6.5z"/><path class="st25" d="M90.5 36.9s-.2 8.2 3.8 12c0 0 1.5-3.2.8-5.4 0 0 2.1 4.4 4.4 4.7 2.3.4 4.9-.1 5.4 1l-1.1-3.8s.9.4 2.7.2c0 0-1.1-4.1-4.4-5.6 0 0 2.6 1.7 4.8 1.8 1.8.1 2.4-.9 2.4-.9l-1.8-1.1s3.6-.6 5.2-3.7c0 0-2.3-2.5-6-3.1 0 0 1.5-.5 2.2-2 0 0-3.7-1.8-7.5-.7 0 0 1.3-.6 2.9-2.8 0 0-2.5-1.4-5.6.6 0 0 .8-1.3.2-2.5 0 0-2.6 1.3-5.7 5.2-2.5 3.2-2.7 6.1-2.7 6.1z"/><path class="st26" d="M98.7 32.7c-.9 1.1-2 2-3.2 2.8-.6.4-1.2.7-1.9 1-.7.3-1.3.5-2 .7l-.1-.6c.9 0 1.7.2 2.5.5s1.5.7 2.1 1.3c.6.6 1.1 1.2 1.5 1.9.4.7.7 1.5.9 2.2h-.1c-.4-.7-.9-1.3-1.3-1.9-.5-.6-1-1.1-1.6-1.6-.6-.5-1.2-.9-1.9-1.2-.7-.3-1.4-.6-2.1-.6l-2.6-.2 2.6-.5c.6-.1 1.3-.3 2-.6.6-.2 1.3-.5 1.9-.8 1.2-.6 2.3-1.4 3.3-2.4z"/><path class="st27" d="M74.9 60.3s-2 10 2.2 15.7c0 0 2.5-3.6 2.1-6.5 0 0 1.6 5.8 4.4 6.8 2.8.9 6 .9 6.4 2.3l-.5-5s1 .6 3.3.8c0 0-.5-5.3-4.3-7.8 0 0 2.9 2.7 5.5 3.2 2.2.4 3.2-.6 3.2-.6l-2-1.8s4.5-.1 7.2-3.5c0 0-2.3-3.6-6.8-5.1 0 0 1.9-.3 3.1-2 0 0-4.3-3-9.1-2.4 0 0 1.7-.5 4.1-2.9 0 0-2.8-2.2-7-.4 0 0 1.2-1.4.7-3.1 0 0-3.5 1.1-8.1 5.2-3.6 3.5-4.4 7.1-4.4 7.1z"/><path class="st26" d="M85.9 56.8c-1.3 1.2-2.8 2.1-4.5 2.7-.8.3-1.7.6-2.5.8-.9.2-1.7.4-2.6.4v-.6c1.1.2 2 .6 2.9 1.1.9.5 1.7 1.2 2.3 2 .6.8 1.1 1.7 1.5 2.7.4 1 .6 1.9.7 2.9h-.1c-.4-.9-.7-1.8-1.2-2.7-.4-.9-1-1.7-1.6-2.4-.6-.7-1.3-1.4-2.1-1.9s-1.7-1-2.6-1.2l-2.6-.6 2.6-.1c.8 0 1.7-.1 2.5-.3.8-.2 1.7-.4 2.5-.6 1.8-.4 3.4-1.2 4.8-2.2z"/><path class="st26" d="M76.7 60.4l3.3.6c1.1.2 2.2.3 3.3.4 2.2.2 4.4.2 6.6-.1-2.1.9-4.4 1.1-6.7.9-2.3-.2-4.5-.8-6.5-1.8zM56.7 64.4l-.5-.7c8.5-5.5 20-3.8 20.4-3.7l-.1.8S65 59 56.7 64.4z"/><path class="st25" d="M55.8 106.1s-6.7 6.6-6.4 13c0 0 3.7-1.5 4.9-3.8 0 0-1.8 5.3-.1 7.4 1.6 2.2 4.1 3.8 3.7 5.1l2.1-4s.4 1 2.1 2.3c0 0 2.3-4.3.8-8.1 0 0 .8 3.5 2.5 5.3 1.4 1.5 2.7 1.2 2.7 1.2l-.6-2.4s3.4 2.3 7.2 1.1c0 0 .1-3.9-2.5-7.4 0 0 1.6.7 3.4.1 0 0-1.7-4.5-5.6-6.5 0 0 1.6.5 4.6-.1 0 0-1-3.2-5.1-3.9 0 0 1.7-.5 2.1-2 0 0-3.2-1-8.8-.2-4.5.6-7 2.9-7 2.9z"/><path class="st26" d="M66 109.2c-1.6.2-3.2.1-4.8-.2-.8-.2-1.6-.4-2.3-.7-.8-.3-1.5-.6-2.2-1l.4-.5c.7.7 1.2 1.5 1.6 2.4.4.9.6 1.8.7 2.8.1.9 0 1.9-.2 2.8-.2.9-.5 1.8-1 2.6h-.1c.2-.9.4-1.8.5-2.7.1-.9.1-1.8 0-2.6-.1-.9-.3-1.7-.6-2.5s-.8-1.6-1.3-2.2l-1.8-1.9 2.2 1.4c.6.4 1.4.8 2.1 1.1.7.3 1.5.6 2.2.8 1.4.2 3 .4 4.6.4z"/><path class="st26" d="M57.1 107.1c1.5 1.4 2.9 2.8 4.5 4.1 1.6 1.3 3.2 2.4 5 3.4-2.1-.3-3.9-1.4-5.5-2.7-.8-.7-1.5-1.4-2.2-2.2-.7-.8-1.3-1.7-1.8-2.6z"/><path class="st26" d="M57.6 107.7c-.1-.1-8.6-7.5-21.7-5.7l-.1-.8c13.5-1.8 22.3 5.9 22.4 5.9l-.6.6z"/><path class="st27" d="M65.1 99s-4.7-9.7-2-16.6c0 0 3.5 3 3.9 6 0 0 .1-6.4 2.7-8.1 2.6-1.7 5.9-2.6 5.9-4.1l.8 5.2s.9-.9 3.2-1.7c0 0 .9 5.6-2.2 9.1 0 0 2.2-3.5 4.7-4.8 2.1-1 3.4-.3 3.4-.3L84 86.1s4.6-1.2 8.3 1.6c0 0-1.3 4.3-5.5 7.1 0 0 2.1-.2 3.7 1.2 0 0-3.5 4.2-8.6 4.9 0 0 1.9.1 5 1.9 0 0-2.3 3.1-7.1 2.3 0 0 1.7 1.1 1.6 2.9 0 0-3.9-.1-9.7-3.1-4.8-2.4-6.6-5.9-6.6-5.9z"/><path class="st26" d="M77.3 99.7c-1.7-.7-3.5-1.1-5.3-1.2-.9-.1-1.8 0-2.7 0-.9.1-1.8.2-2.7.4l-2.6.6 2.4-1.2c.9-.4 1.7-1.1 2.3-1.9.6-.8 1.2-1.6 1.6-2.5.4-.9.8-1.9 1-2.9.2-1 .4-2 .5-3.1h.1c.2 1 .2 2.1.1 3.2s-.4 2.1-.8 3.1-1 1.9-1.8 2.7c-.8.8-1.6 1.5-2.6 1.9l-.2-.6c.9-.2 1.9-.3 2.8-.3.9 0 1.9 0 2.8.1 1.6.3 3.5.8 5.1 1.7z"/><path class="st26" d="M66.9 98.5c1.8-1.6 3.9-2.8 6.1-3.6 2.2-.8 4.7-1.3 7.1-.9-2.4.3-4.6.9-6.8 1.7-1.1.4-2.2.8-3.2 1.3-1 .4-2.1.9-3.2 1.5z"/><path class="st26" d="M50.9 103c-1.9 0-3.8-.2-5.6-.8l.3-.8c9.9 3.2 22.7-4.7 22.8-4.7l.4.7c-.4.2-9.1 5.6-17.9 5.6zM78.5 41.3l-.5-.6c5.5-5.1 14.6-4.2 15-4.2l-.1.8c-.1 0-9.1-.9-14.4 4z"/></svg>