<svg id="Layer_1" xmlns="http://www.w3.org/2000/svg" viewBox="0 0 138 115.3"><style>.st0{fill:#f4e9dc}.st1{fill:#34512a}.st2{fill:#5e7a52}.st3{fill:#7a4a3d}.st4{fill:#99675c}.st5{fill:#93594d}.st6{fill:#c6947d}.st7{fill:#dd4b47}.st8{opacity:.21;fill:#FFF}.st9{fill:#bbcc5a}.st10{fill:#e2ba86}.st11{fill:#cca479}.st12{fill:#9e7e5a}.st13{fill:#b56b52}.st14{fill:#9a513e}.st15{opacity:.2;fill:#FFF}.st16{fill:#915c4a}.st17{fill:#a9562c}.st18{fill:#953715}.st19{fill:#7a4c40}.st20{fill:#b7805b}.st21{fill:#3a2a1f}.st22{fill:#a57250}.st23{fill:#6d4137}.st24{fill:#7c4b43}.st25{fill:#3e6e2d}.st26{fill:#66a349}.st27{fill:#4c8a32}.st28{fill:#e2cbbc}.st29{fill:#edd3c6}.st30{fill:#d8bcad}.st31{fill:#773d4d}.st32{fill:#54242e}.st33{fill:#663041}.st34{fill:#80485a}.st35{opacity:.49}.st36{clip-path:url(#SVGID_2_)}.st37{fill:#FFF}.st38{fill:#005c2f}.st39{fill:#057333}.st40{fill:#073f21}.st41{fill:#0c512a}.st42{fill:#d6a667}.st43{fill:#cc9a5d}.st44{fill:#cc9d63}.st45{fill:#c18c52}.st46{fill:#2d3f25}.st47{opacity:.43;fill:#FFF}.st48{fill:#9d9d9c}.st49{fill:#b2b2b2}.st50{fill:#c6c6c6}.st51{fill:#383a35}.st52{fill:#3c3c3b}.st53{fill:#f9f8da}.st54{fill:#cd2b1a}.st55{fill:#b22018}</style><path class="st42" d="M121.4 56.9c-.1-2.7-2.4-4.9-5.2-4.9H5.2c-2.8 0-5 2.2-5.2 4.9v.2c0 .2 0 .3.1.5 1.7 32.1 28.3 57.7 60.9 57.7 32.8 0 59.6-25.9 60.9-58.4h-.5z"/><path class="st43" d="M16.1 95.7l-6.3-8.1c1.9 2.8 4 5.5 6.3 8.1zM16.3 95.8c11.1 12 27 19.5 44.7 19.5 30.2 0 55.3-22 60.1-50.9C86.7 120 17.2 96.1 16.3 95.8z"/><path class="st44" d="M101.3 52C139.2 6.6 140.5 3.5 136.5.3 133-2.6 112.9 20.8 87.2 52h14.1zm30.3-47c.5-.7 1.5-.8 2.2-.2.7.5.8 1.5.2 2.2-.5.7-1.5.8-2.2.2-.7-.5-.8-1.5-.2-2.2z"/></svg>