<svg id="Layer_1" xmlns="http://www.w3.org/2000/svg" viewBox="0 0 149.9 120.5"><style>.st0{fill:#f4e9dc}.st1{fill:#34512a}.st2{fill:#5e7a52}.st3{fill:#7a4a3d}.st4{fill:#99675c}.st5{fill:#93594d}.st6{fill:#c6947d}.st7{fill:#dd4b47}.st8{opacity:.21;fill:#FFF}.st9{fill:#bbcc5a}.st10{fill:#e2ba86}.st11{fill:#cca479}.st12{fill:#9e7e5a}.st13{fill:#b56b52}.st14{fill:#9a513e}.st15{opacity:.2;fill:#FFF}.st16{fill:#915c4a}.st17{fill:#a9562c}.st18{fill:#953715}.st19{fill:#7a4c40}.st20{fill:#b7805b}.st21{fill:#3a2a1f}.st22{fill:#a57250}.st23{fill:#6d4137}.st24{fill:#7c4b43}.st25{fill:#3e6e2d}.st26{fill:#66a349}.st27{fill:#4c8a32}.st28{fill:#e2cbbc}.st29{fill:#edd3c6}.st30{fill:#d8bcad}.st31{fill:#773d4d}.st32{fill:#54242e}.st33{fill:#663041}.st34{fill:#80485a}.st35{opacity:.49}.st36{clip-path:url(#SVGID_2_)}.st37{fill:#FFF}.st38{fill:#005c2f}.st39{fill:#057333}.st40{fill:#073f21}.st41{fill:#0c512a}.st42{fill:#d6a667}.st43{fill:#cc9a5d}.st44{fill:#cc9d63}.st45{fill:#c18c52}.st46{fill:#2d3f25}.st47{opacity:.43;fill:#FFF}.st48{fill:#9d9d9c}.st49{fill:#b2b2b2}.st50{fill:#c6c6c6}.st51{fill:#383a35}.st52{fill:#3c3c3b}.st53{fill:#f9f8da}.st54{fill:#cd2b1a}.st55{fill:#b22018}</style><path class="st3" d="M149.9 104.1c-6.9 1-13.8 1.6-20.8 2-6.9.4-13.9.6-20.9.2-3.5-.2-7-.5-10.5-1.1-1.7-.3-3.5-.6-5.2-1.1-.9-.2-1.7-.5-2.6-.8-.8-.3-1.6-.6-2.5-.9-6.6-2.4-12.8-5.9-18.2-10.5-2.7-2.3-5.1-4.8-7.4-7.4-1.1-1.3-2.2-2.7-3.3-4.1-1.1-1.4-2-2.8-3-4.3-3.9-5.7-7.8-11.4-11.9-17-4.2-5.5-9.4-10.9-14.1-16-4.7-5-9.5-8.5-14.6-13.8 5.6 4 10.9 8.6 15.7 13.6 4.8 5 9.3 10.3 13.6 15.7 4.3 5.5 8.3 11.1 12.3 16.8 1 1.4 2 2.8 3.1 4.1l3.3 3.9c2.3 2.5 4.7 4.9 7.4 7.1 5.3 4.3 11.4 7.6 17.8 9.8 6.4 2.4 13.2 3.9 20.1 4.1 6.8.2 13.7-.1 20.6-.6 6.8-.6 13.7-1.4 20.5-2.4l.6 2.7z"/><path class="st1" d="M0 53.3s14.4 4.2 23.7-3.3c6.5-5.3 8.9-3.6 8.9-3.6s-5.2-7.9-15.5-6.4S0 53.3 0 53.3z"/><path class="st2" d="M32.1 46.3c-2.3-.1-4.8.9-8.3 3.8C14.4 57.6 0 53.3 0 53.3s5.8-3.2 13.4-6c5.9-2.2 15-2.2 18.7-1z"/><path class="st1" d="M9.7 67.1s14.9 2.3 23.1-6.5c5.7-6.1 8.3-4.7 8.3-4.7s-6.2-7.1-16.2-4.3S9.7 67.1 9.7 67.1z"/><path class="st2" d="M40.6 55.8c-2.3.2-4.7 1.6-7.8 4.9-8.2 8.7-23.1 6.5-23.1 6.5s5.3-3.9 12.5-7.8c5.5-3 14.6-4.3 18.4-3.6z"/><path class="st1" d="M19.7 79.7s14.9 2.3 23.1-6.5c5.7-6.1 8.3-4.7 8.3-4.7s-6.2-7.1-16.2-4.3-15.2 15.5-15.2 15.5z"/><path class="st2" d="M50.6 68.3c-2.3.2-4.7 1.5-7.8 4.9-8.2 8.7-23.1 6.5-23.1 6.5s5.3-3.9 12.5-7.8c5.5-3 14.6-4.2 18.4-3.6z"/><path class="st1" d="M29.2 93s14.9 2.3 23.1-6.5c5.7-6.1 8.3-4.7 8.3-4.7s-6.2-7.1-16.2-4.3C34.4 80.4 29.2 93 29.2 93z"/><path class="st2" d="M60 81.7c-2.3.2-4.7 1.5-7.8 4.9-8.1 8.7-23 6.4-23 6.4s5.3-3.9 12.5-7.8c5.5-2.9 14.6-4.2 18.3-3.5z"/><path class="st1" d="M43.8 104.3s12.6 0 18.3-8.3c4-5.8 6.3-5 6.3-5s-6.1-5.1-14-1.5c-7.9 3.6-10.6 14.8-10.6 14.8z"/><path class="st2" d="M67.9 91c-1.9.5-3.7 1.9-5.8 5-5.7 8.3-18.3 8.3-18.3 8.3s3.9-3.9 9.4-8c4.2-3.2 11.5-5.4 14.7-5.3z"/><path class="st1" d="M58.1 115.4s11-3.7 13.5-12.6c1.8-6.2 4-6.2 4-6.2S68.8 94 63 99.4c-5.9 5.5-4.9 16-4.9 16z"/><path class="st2" d="M75.2 96.7c-1.5.9-2.6 2.7-3.6 6.1-2.5 8.9-13.5 12.6-13.5 12.6s2.3-4.6 5.8-9.8c2.7-3.9 8.5-8 11.3-8.9z"/><path class="st1" d="M72.7 120.5s8.7-5.4 9.1-13.6c.3-5.7 2.2-6.1 2.2-6.1s-6.4-.9-10.3 5c-4 5.8-1 14.7-1 14.7z"/><path class="st2" d="M83.7 100.9c-1.1 1.1-1.7 2.9-1.9 6-.4 8.2-9.1 13.6-9.1 13.6s1-4.4 3-9.6c1.6-4 5.7-8.7 8-10z"/><path class="st1" d="M83.7 119.6s7.2-4.3 7.7-11c.3-4.7 1.9-5 1.9-5s-5.2-.9-8.5 3.9c-3.4 4.8-1.1 12.1-1.1 12.1z"/><path class="st2" d="M93 103.8c-.9.9-1.5 2.3-1.6 4.9-.5 6.7-7.7 11-7.7 11s.9-3.6 2.6-7.8c1.3-3.3 4.8-7.1 6.7-8.1z"/><g><path class="st1" d="M40.9 13.3s3.8 14.6-4.1 23.6c-5.5 6.3-3.9 8.7-3.9 8.7s-7.7-5.5-5.9-15.7c1.8-10.2 13.9-16.6 13.9-16.6z"/><path class="st2" d="M32.8 45.1c0-2.3 1.1-4.8 4.1-8.2 7.9-9 4.1-23.6 4.1-23.6s-3.4 5.7-6.5 13.2c-2.5 5.8-2.8 14.9-1.7 18.6z"/></g><g><path class="st1" d="M53.8 24.6s1.8 14.9-7.2 22.8c-6.3 5.5-5 8.1-5 8.1s-6.9-6.5-3.7-16.4c3.1-9.7 15.9-14.5 15.9-14.5z"/><path class="st2" d="M41.5 55.1c.3-2.3 1.7-4.6 5.1-7.6 9-7.9 7.2-22.8 7.2-22.8s-4.1 5.2-8.2 12.2c-3.1 5.4-4.7 14.4-4.1 18.2z"/></g><g><path class="st1" d="M63.4 36.5s1.7 14.9-7.3 22.8c-6.3 5.5-5 8.1-5 8.1s-6.8-6.5-3.7-16.4c3.1-9.8 16-14.5 16-14.5z"/><path class="st2" d="M50.9 66.9c.3-2.3 1.7-4.6 5.1-7.6 9-7.9 7.3-22.8 7.3-22.8s-4.1 5.2-8.2 12.2c-3.1 5.4-4.7 14.4-4.2 18.2z"/></g><g><path class="st1" d="M71.5 49.4s2.3 14.9-6.4 23.1c-6.1 5.7-4.7 8.3-4.7 8.3s-7.1-6.2-4.3-16.2 15.4-15.2 15.4-15.2z"/><path class="st2" d="M60.2 80.3c.2-2.3 1.5-4.7 4.9-7.8 8.7-8.2 6.4-23.1 6.4-23.1s-3.9 5.3-7.8 12.5c-2.9 5.5-4.1 14.6-3.5 18.4z"/></g><g><path class="st1" d="M80.5 65s1.7 12.5-5.8 19.3c-5.2 4.7-4.1 6.9-4.1 6.9s-5.9-5.3-3.3-13.7C69.8 69.1 80.5 65 80.5 65z"/><path class="st2" d="M70.6 90.7c.2-1.9 1.4-3.9 4.2-6.4 7.5-6.7 5.8-19.3 5.8-19.3s-3.4 4.4-6.7 10.4c-2.7 4.5-3.8 12.1-3.3 15.3z"/></g><g><path class="st1" d="M90.9 74.3s.7 11.6-6.7 17.3c-5.1 4-4.3 6-4.3 6s-5-5.3-2.1-12.8c3-7.5 13.1-10.5 13.1-10.5z"/><path class="st2" d="M79.9 97.2c.3-1.7 1.5-3.5 4.3-5.6 7.3-5.7 6.7-17.3 6.7-17.3s-3.4 3.8-6.9 9c-2.7 4.1-4.3 10.9-4.1 13.9z"/></g><g><path class="st1" d="M97 88.9s-.9 6.5-5.5 8.8c-3.3 1.6-3 2.9-3 2.9s-2.2-3.5.2-7.3c2.4-3.9 8.3-4.4 8.3-4.4z"/><path class="st2" d="M88.4 100.3c.4-.9 1.2-1.7 3-2.6 4.6-2.3 5.5-8.8 5.5-8.8s-2.3 1.7-4.8 4.2c-1.8 1.9-3.5 5.5-3.7 7.2z"/></g><g><path class="st1" d="M9 0s14.2 11.5 13 26c-.8 10.2 2.5 11.3 2.5 11.3s-11.4.3-17.1-11C1.8 15 9 0 9 0z"/><path class="st2" d="M24 37c-1.7-2.2-2.4-5.5-2-11C23.2 11.5 9 0 9 0s.8 8 3.2 17.6C14 25 20.3 34.1 24 37z"/></g></svg>