<svg id="Layer_1" xmlns="http://www.w3.org/2000/svg" viewBox="0 0 44.7 86.6"><style>.st0{fill:#f4e9dc}.st1{fill:#34512a}.st2{fill:#5e7a52}.st3{fill:#7a4a3d}.st4{fill:#99675c}.st5{fill:#93594d}.st6{fill:#c6947d}.st7{fill:#dd4b47}.st8{opacity:.21;fill:#FFF}.st9{fill:#bbcc5a}.st10{fill:#e2ba86}.st11{fill:#cca479}.st12{fill:#9e7e5a}.st13{fill:#b56b52}.st14{fill:#9a513e}.st15{opacity:.2;fill:#FFF}.st16{fill:#915c4a}.st17{fill:#a9562c}.st18{fill:#953715}.st19{fill:#7a4c40}.st20{fill:#b7805b}.st21{fill:#3a2a1f}.st22{fill:#a57250}.st23{fill:#6d4137}.st24{fill:#7c4b43}.st25{fill:#3e6e2d}.st26{fill:#66a349}.st27{fill:#4c8a32}.st28{fill:#e2cbbc}.st29{fill:#edd3c6}.st30{fill:#d8bcad}.st31{fill:#773d4d}.st32{fill:#54242e}.st33{fill:#663041}.st34{fill:#80485a}.st35{opacity:.49}.st36{clip-path:url(#SVGID_2_)}.st37{fill:#FFF}.st38{fill:#005c2f}.st39{fill:#057333}.st40{fill:#073f21}.st41{fill:#0c512a}.st42{fill:#d6a667}.st43{fill:#cc9a5d}.st44{fill:#cc9d63}.st45{fill:#c18c52}.st46{fill:#2d3f25}.st47{opacity:.43;fill:#FFF}.st48{fill:#9d9d9c}.st49{fill:#b2b2b2}.st50{fill:#c6c6c6}.st51{fill:#383a35}.st52{fill:#3c3c3b}.st53{fill:#f9f8da}.st54{fill:#cd2b1a}.st55{fill:#b22018}</style><path class="st47" d="M9.9 21.7s-1.3-1.5-1.3-3.5.8-2.2 3.7-2c2.8.2 21 0 21 0s5-1 1.8 5.6c0 0 2.6 2.3 3.7 3.7 2.3 2.8 2 7.5 3 18.7S44.5 76 44.5 76s2.2 7.3-4.8 9.5-32.9.8-32.9.8-7.5-1.7-6.7-9.7c.8-8 4-46 4-46s0-3 1.8-4.8 4-4.1 4-4.1z"/><path class="st48" d="M36.4 13.2c0 .6-.5 1.2-1.2 1.2H9.5c-.6 0-1.2-.5-1.2-1.2 0-.6.5-1.2 1.2-1.2h25.7c.7 0 1.2.5 1.2 1.2z"/><path class="st49" d="M6.5 3.5s-.4 5.4 2.6 8.8l26.5-.3s3.8-3.7 2.4-9.1l-31.5.6z"/><ellipse class="st50" cx="22.4" cy="3.5" rx="15.8" ry="3.5"/><path class="st48" d="M36.4 15c0 .6-.5 1.2-1.2 1.2H9.5c-.6 0-1.2-.5-1.2-1.2 0-.6.5-1.2 1.2-1.2h25.7c.7 0 1.2.6 1.2 1.2z"/><path class="st53" d="M41.6 76.4v-.3c0-.2-1.7-20.8-2.7-31.8-.2-2-.3-3.8-.4-5.5L4.8 55.4c-.8 9.1-1.6 18-1.9 21.4-.5 4.8 3.1 6.2 4.3 6.6 1.5.1 8.5.4 15.7.4 10.7 0 14.6-.7 15.9-1.1 3.9-1.3 2.8-6.3 2.8-6.3z"/><path class="st47" d="M41.7 44c0-.5-1.3-14.1-1.3-14.6L7.7 86.3c4.8.2 25.7 1 31.8-.9 7-2.2 4.8-9.5 4.8-9.5S42.7 55.2 41.7 44z"/><ellipse class="st52" cx="11.3" cy="2.5" rx=".4" ry=".4"/><ellipse class="st52" cx="18.2" cy="2.5" rx=".4" ry=".4"/><ellipse class="st52" cx="25.8" cy="2.5" rx=".4" ry=".4"/><ellipse class="st52" cx="33.6" cy="2.5" rx=".4" ry=".4"/><ellipse class="st52" cx="14.8" cy="4.5" rx=".4" ry=".4"/><ellipse class="st52" cx="21.9" cy="4.5" rx=".4" ry=".4"/><ellipse class="st52" cx="29.8" cy="4.5" rx=".4" ry=".4"/></svg>