<svg id="Layer_1" xmlns="http://www.w3.org/2000/svg" viewBox="0 0 57.5 262.7"><style>.st0{fill:#f4e9dc}.st1{fill:#34512a}.st2{fill:#5e7a52}.st3{fill:#7a4a3d}.st4{fill:#99675c}.st5{fill:#93594d}.st6{fill:#c6947d}.st7{fill:#dd4b47}.st8{opacity:.21;fill:#FFF}.st9{fill:#bbcc5a}.st10{fill:#e2ba86}.st11{fill:#cca479}.st12{fill:#9e7e5a}.st13{fill:#b56b52}.st14{fill:#9a513e}.st15{opacity:.2;fill:#FFF}.st16{fill:#915c4a}.st17{fill:#a9562c}.st18{fill:#953715}.st19{fill:#7a4c40}.st20{fill:#b7805b}.st21{fill:#3a2a1f}.st22{fill:#a57250}.st23{fill:#6d4137}.st24{fill:#7c4b43}.st25{fill:#3e6e2d}.st26{fill:#66a349}.st27{fill:#4c8a32}.st28{fill:#e2cbbc}.st29{fill:#edd3c6}.st30{fill:#d8bcad}.st31{fill:#773d4d}.st32{fill:#54242e}.st33{fill:#663041}.st34{fill:#80485a}.st35{opacity:.49}.st36{clip-path:url(#SVGID_2_)}.st37{fill:#FFF}.st38{fill:#005c2f}.st39{fill:#057333}.st40{fill:#073f21}.st41{fill:#0c512a}.st42{fill:#d6a667}.st43{fill:#cc9a5d}.st44{fill:#cc9d63}.st45{fill:#c18c52}.st46{fill:#2d3f25}.st47{opacity:.43;fill:#FFF}.st48{fill:#9d9d9c}.st49{fill:#b2b2b2}.st50{fill:#c6c6c6}.st51{fill:#383a35}.st52{fill:#3c3c3b}.st53{fill:#f9f8da}.st54{fill:#cd2b1a}.st55{fill:#b22018}</style><path class="st42" d="M57.3 38.3C55.5 9.5 40.1-4.3 21.9 1.2 12 4.2 5.1 12.4.9 37-2 53.5 2.5 68.7 8.1 80.4c2.7 5.6 11.8 18.3 12.7 30.2 1.3 16.8 1.1 38.5 1.1 38.5-2.1 108.7-2.1 113.6 4.2 113.6 6.3 0 5.5-61.7 6.3-124.8.5-34.7 5.7-38.9 10.1-47.4C47 82 59 65.3 57.3 38.3zm-32 219.1c-.9 0-1.6-.7-1.6-1.6 0-.9.7-1.6 1.6-1.6.9 0 1.6.7 1.6 1.6 0 .9-.7 1.6-1.6 1.6z"/><path class="st43" d="M50.1 46.1c0 21.1-9.6 38.2-21.4 38.2S7.3 67.2 7.3 46.1s11-38.2 22.8-38.2 20 17.1 20 38.2z"/><path class="st1" d="M25 17.3s1.3 5.1-1.4 8.3c-1.9 2.2-1.4 3.1-1.4 3.1s-2.7-1.9-2.1-5.5c.7-3.7 4.9-5.9 4.9-5.9z"/><path class="st46" d="M22.2 28.5c0-.8.4-1.7 1.4-2.9 2.8-3.2 1.4-8.3 1.4-8.3s-1.2 2-2.3 4.7c-.8 1.9-.9 5.2-.5 6.5z"/><path class="st1" d="M18.3 22.6s4.3 3.1 4.1 7.4c-.1 3 .9 3.2.9 3.2s-3.3.2-5.1-3c-1.8-3.2.1-7.6.1-7.6z"/><path class="st46" d="M23.1 33.1c-.5-.6-.8-1.5-.7-3.1.1-4.2-4.1-7.4-4.1-7.4s.3 2.3 1.2 5c.6 2.1 2.5 4.7 3.6 5.5z"/><path class="st1" d="M18.8 37.3s0-5.3 3.5-7.7c2.4-1.7 2.1-2.6 2.1-2.6s2.1 2.6.6 5.9c-1.5 3.3-6.2 4.4-6.2 4.4z"/><path class="st46" d="M24.4 27.2c-.2.8-.8 1.5-2.1 2.4-3.5 2.4-3.5 7.7-3.5 7.7s1.7-1.6 3.4-3.9c1.3-1.8 2.2-4.9 2.2-6.2z"/><path class="st1" d="M26.6 33.9s-3.3-4.1-2.1-8.2c.8-2.8 0-3.4 0-3.4s3.3.6 4.2 4.2c.9 3.6-2.1 7.4-2.1 7.4z"/><path class="st46" d="M24.6 22.5c.3.7.4 1.7-.1 3.2-1.2 4 2.1 8.2 2.1 8.2s.2-2.3.1-5.2c0-2.2-1.2-5.2-2.1-6.2z"/><path class="st1" d="M17.5 31.1s5.3-.1 7.7 3.4c1.7 2.4 2.7 2.1 2.7 2.1s-2.5 2.2-5.9.7c-3.3-1.6-4.5-6.2-4.5-6.2z"/><path class="st46" d="M27.7 36.5c-.8-.2-1.5-.8-2.5-2.1-2.4-3.4-7.7-3.4-7.7-3.4s1.7 1.6 4 3.3c1.8 1.4 4.9 2.3 6.2 2.2z"/><path class="st1" d="M21.1 38.9s4.1-3.4 8.1-2.2c2.8.8 3.4-.1 3.4-.1s-.6 3.3-4.1 4.2c-3.6 1-7.4-1.9-7.4-1.9z"/><path class="st46" d="M32.4 36.7c-.7.3-1.7.4-3.2-.1-4.1-1.1-8.1 2.2-8.1 2.2s2.3.2 5.2.1c2.2 0 5.1-1.3 6.1-2.2z"/><path class="st1" d="M35.5 41.9s-5.1-1.3-6.6-5.2c-1-2.8-2.1-2.7-2.1-2.7s3-1.5 5.9.8c2.8 2.3 2.8 7.1 2.8 7.1z"/><path class="st46" d="M27 34.1c.7.4 1.3 1.1 1.9 2.6 1.5 3.9 6.6 5.2 6.6 5.2s-1.2-2-3-4.2c-1.4-1.7-4.2-3.3-5.5-3.6z"/><path class="st1" d="M34 33.5s-4.8 2.2-8.4.1c-2.5-1.5-3.3-.8-3.3-.8s1.4-3 5-3.1c3.7 0 6.7 3.8 6.7 3.8z"/><path class="st46" d="M22.5 32.7c.8-.2 1.7.1 3.1.9 3.6 2.1 8.4-.1 8.4-.1s-2.2-.8-5-1.4c-2.1-.5-5.3 0-6.5.6z"/><path class="st1" d="M30.6 45s-.4-5.3 2.9-7.9c2.3-1.9 1.9-2.8 1.9-2.8s2.3 2.4 1.1 5.8c-1.3 3.4-5.9 4.9-5.9 4.9z"/><path class="st46" d="M35.4 34.4c-.1.8-.7 1.6-1.9 2.6-3.3 2.7-2.9 7.9-2.9 7.9s1.5-1.8 3-4.2c1.3-1.8 1.9-4.9 1.8-6.3z"/><path class="st1" d="M38.2 40.9s-3.6-3.8-2.8-8c.6-2.9-.3-3.3-.3-3.3s3.3.4 4.5 3.8c1.2 3.5-1.4 7.5-1.4 7.5z"/><path class="st46" d="M35.3 29.7c.4.7.5 1.7.2 3.2-.9 4.1 2.8 8 2.8 8s.1-2.3-.3-5.2c-.3-2.2-1.8-5-2.7-6z"/><path class="st1" d="M40.3 26.3s-.9 5.2-4.8 7c-2.7 1.2-2.5 2.2-2.5 2.2s-1.7-2.9.4-5.9c2.1-3 6.9-3.3 6.9-3.3z"/><path class="st46" d="M33 35.3c.3-.7 1-1.4 2.5-2 3.8-1.7 4.8-7 4.8-7s-1.9 1.3-4 3.3c-1.6 1.5-3.1 4.4-3.3 5.7z"/><path class="st1" d="M31.9 28.3s2.6 4.6.7 8.4c-1.3 2.6-.5 3.3-.5 3.3s-3.1-1.2-3.4-4.8c-.3-3.6 3.2-6.9 3.2-6.9z"/><path class="st46" d="M32 39.9c-.2-.8-.1-1.7.7-3.2 1.9-3.8-.7-8.4-.7-8.4s-.6 2.2-1 5.1c-.4 2.2.3 5.3 1 6.5z"/><path class="st1" d="M40.4 32.7s-5.2-.9-7-4.7c-1.3-2.7-2.3-2.5-2.3-2.5s2.9-1.7 5.9.3c3.1 2.1 3.4 6.9 3.4 6.9z"/><path class="st46" d="M31.3 25.5c.7.3 1.4 1 2.1 2.5 1.8 3.8 7 4.7 7 4.7s-1.4-1.9-3.3-4c-1.5-1.6-4.4-3-5.8-3.2z"/><path class="st1" d="M38.3 24.3s-4.6 2.6-8.4.8c-2.7-1.3-3.3-.5-3.3-.5s1.2-3.1 4.8-3.5c3.6-.3 6.9 3.2 6.9 3.2z"/><path class="st46" d="M26.7 24.5c.8-.2 1.7-.1 3.2.6 3.8 1.8 8.4-.8 8.4-.8s-2.3-.6-5.1-1c-2.2-.2-5.3.5-6.5 1.2z"/><path class="st1" d="M24.6 18.9s4.8 2.1 5.6 6.3c.5 2.9 1.6 3 1.6 3s-3.2.9-5.6-1.8c-2.5-2.8-1.6-7.5-1.6-7.5z"/><path class="st46" d="M31.6 28c-.6-.5-1.1-1.3-1.4-2.9-.8-4.1-5.6-6.3-5.6-6.3s.8 2.2 2.2 4.7c1.1 2 3.5 4 4.8 4.5z"/><path class="st1" d="M24.6 27.4s5.1-1.4 8.3 1.3C35.2 30.6 36 30 36 30s-1.9 2.7-5.5 2.1c-3.6-.4-5.9-4.7-5.9-4.7z"/><path class="st46" d="M35.8 30.2c-.8 0-1.7-.4-2.9-1.4-3.2-2.7-8.3-1.3-8.3-1.3s2 1.2 4.7 2.2c2 .8 5.2.9 6.5.5z"/><path class="st1" d="M18.6 25.2s1.3 5.1-1.4 8.3c-1.9 2.2-1.4 3.1-1.4 3.1s-2.7-1.9-2.1-5.5c.7-3.7 4.9-5.9 4.9-5.9z"/><path class="st46" d="M15.8 36.4c0-.8.4-1.7 1.4-2.9 2.8-3.2 1.4-8.3 1.4-8.3s-1.2 2-2.3 4.7c-.8 1.9-.9 5.2-.5 6.5z"/><path class="st1" d="M11.9 30.5s4.3 3.1 4.1 7.4c-.1 3 .9 3.2.9 3.2s-3.3.2-5.1-3c-1.8-3.2.1-7.6.1-7.6z"/><path class="st46" d="M16.7 41c-.5-.6-.8-1.5-.7-3.1.1-4.2-4.1-7.4-4.1-7.4s.3 2.3 1.2 5c.6 2.1 2.5 4.7 3.6 5.5z"/><path class="st1" d="M12.4 45.2s0-5.3 3.5-7.7c2.4-1.7 2.1-2.6 2.1-2.6s2.1 2.6.6 5.9c-1.5 3.3-6.2 4.4-6.2 4.4z"/><path class="st46" d="M18 35.1c-.2.8-.8 1.5-2.1 2.4-3.5 2.4-3.5 7.7-3.5 7.7s1.7-1.6 3.4-3.9c1.3-1.8 2.2-4.9 2.2-6.2z"/><path class="st1" d="M20.2 41.8s-3.3-4.1-2.1-8.2c.8-2.8 0-3.4 0-3.4s3.3.6 4.2 4.2c.9 3.6-2.1 7.4-2.1 7.4z"/><path class="st46" d="M18.2 30.4c.3.7.4 1.7-.1 3.2-1.2 4 2.1 8.2 2.1 8.2s.2-2.3.1-5.2c0-2.2-1.2-5.2-2.1-6.2z"/><path class="st1" d="M11.1 39s5.3-.1 7.7 3.4c1.7 2.4 2.7 2.1 2.7 2.1s-2.5 2.2-5.9.7c-3.3-1.6-4.5-6.2-4.5-6.2z"/><path class="st46" d="M21.3 44.4c-.8-.2-1.5-.8-2.5-2.1-2.4-3.4-7.7-3.4-7.7-3.4s1.7 1.6 4 3.3c1.8 1.4 4.9 2.3 6.2 2.2z"/><path class="st1" d="M14.7 46.8s4.1-3.4 8.1-2.2c2.8.8 3.4-.1 3.4-.1s-.6 3.3-4.1 4.2c-3.6 1-7.4-1.9-7.4-1.9z"/><path class="st46" d="M26 44.6c-.7.3-1.7.4-3.2-.1-4.1-1.1-8.1 2.2-8.1 2.2s2.3.2 5.2.1c2.2 0 5.1-1.3 6.1-2.2z"/><path class="st1" d="M29.1 49.8s-5.1-1.3-6.6-5.2c-1-2.8-2.1-2.7-2.1-2.7s3-1.5 5.9.8c2.8 2.3 2.8 7.1 2.8 7.1z"/><path class="st46" d="M20.6 42c.7.4 1.3 1.1 1.9 2.6 1.5 3.9 6.6 5.2 6.6 5.2s-1.2-2-3-4.2c-1.4-1.7-4.2-3.3-5.5-3.6z"/><path class="st1" d="M27.6 41.4s-4.8 2.2-8.4.1c-2.5-1.5-3.3-.8-3.3-.8s1.4-3 5-3.1c3.7 0 6.7 3.8 6.7 3.8z"/><path class="st46" d="M16.1 40.6c.8-.2 1.7.1 3.1.9 3.6 2.1 8.4-.1 8.4-.1s-2.2-.8-5-1.4c-2.1-.5-5.3 0-6.5.6z"/><path class="st1" d="M24.2 52.9s-.4-5.3 2.9-7.9c2.3-1.9 1.9-2.8 1.9-2.8s2.3 2.4 1.1 5.8c-1.3 3.4-5.9 4.9-5.9 4.9z"/><path class="st46" d="M29 42.3c-.1.8-.7 1.6-1.9 2.6-3.3 2.7-2.9 7.9-2.9 7.9s1.5-1.8 3-4.2c1.3-1.8 1.9-4.9 1.8-6.3z"/><path class="st1" d="M31.8 48.8s-3.6-3.8-2.8-8c.6-2.9-.3-3.3-.3-3.3s3.3.4 4.5 3.8c1.2 3.5-1.4 7.5-1.4 7.5z"/><path class="st46" d="M28.9 37.6c.4.7.5 1.7.2 3.2-.9 4.1 2.8 8 2.8 8s.1-2.3-.3-5.2c-.3-2.2-1.8-5-2.7-6z"/><path class="st1" d="M33.9 34.2s-.9 5.2-4.8 7c-2.7 1.2-2.5 2.2-2.5 2.2s-1.7-2.9.4-5.9c2.1-3 6.9-3.3 6.9-3.3z"/><path class="st46" d="M26.6 43.2c.3-.7 1-1.4 2.5-2 3.8-1.7 4.8-7 4.8-7s-1.9 1.3-4 3.3c-1.6 1.5-3.1 4.4-3.3 5.7z"/><path class="st1" d="M25.5 36.2s2.6 4.6.7 8.4c-1.3 2.6-.5 3.3-.5 3.3s-3.1-1.2-3.4-4.8c-.3-3.6 3.2-6.9 3.2-6.9z"/><path class="st46" d="M25.6 47.8c-.2-.8-.1-1.7.7-3.2 1.9-3.8-.7-8.4-.7-8.4s-.6 2.2-1 5.1c-.4 2.2.3 5.3 1 6.5z"/><path class="st1" d="M34 40.6s-5.2-.9-7-4.7c-1.3-2.7-2.3-2.5-2.3-2.5s2.9-1.7 5.9.3c3.1 2.1 3.4 6.9 3.4 6.9z"/><path class="st46" d="M24.9 33.4c.7.3 1.4 1 2.1 2.5 1.8 3.8 7 4.7 7 4.7s-1.4-1.9-3.3-4c-1.5-1.6-4.4-3-5.8-3.2z"/><path class="st1" d="M31.9 32.2s-4.6 2.6-8.4.8c-2.7-1.3-3.3-.5-3.3-.5s1.2-3.1 4.8-3.5c3.6-.3 6.9 3.2 6.9 3.2z"/><path class="st46" d="M20.3 32.4c.8-.2 1.7-.1 3.2.6 3.8 1.8 8.4-.8 8.4-.8s-2.3-.6-5.1-1c-2.2-.2-5.3.5-6.5 1.2z"/><path class="st1" d="M18.2 26.8s4.8 2.1 5.6 6.3c.5 2.9 1.6 3 1.6 3s-3.2.9-5.6-1.8c-2.5-2.8-1.6-7.5-1.6-7.5z"/><path class="st46" d="M25.2 35.9c-.6-.5-1.1-1.3-1.4-2.9-.8-4.1-5.6-6.3-5.6-6.3s.8 2.2 2.2 4.7c1.1 2 3.5 4 4.8 4.5z"/><path class="st1" d="M18.2 35.3s5.1-1.4 8.3 1.3c2.3 1.9 3.1 1.3 3.1 1.3s-1.9 2.7-5.5 2.1c-3.6-.4-5.9-4.7-5.9-4.7z"/><path class="st46" d="M29.4 38.1c-.8 0-1.7-.4-2.9-1.4-3.2-2.7-8.3-1.3-8.3-1.3s2 1.2 4.7 2.2c2 .8 5.2.9 6.5.5z"/><path class="st1" d="M32.4 30.5s1.3 5.1-1.4 8.3c-1.9 2.2-1.4 3.1-1.4 3.1s-2.7-1.9-2.1-5.5c.7-3.7 4.9-5.9 4.9-5.9z"/><path class="st46" d="M29.6 41.7c0-.8.4-1.7 1.4-2.9 2.8-3.2 1.4-8.3 1.4-8.3s-1.2 2-2.3 4.7c-.8 1.9-.9 5.2-.5 6.5z"/><path class="st1" d="M25.7 35.8s4.3 3.1 4.1 7.4c-.1 3 .9 3.2.9 3.2s-3.3.2-5.1-3c-1.8-3.2.1-7.6.1-7.6z"/><path class="st46" d="M30.5 46.3c-.5-.6-.8-1.5-.7-3.1.1-4.2-4.1-7.4-4.1-7.4s.3 2.3 1.2 5c.6 2.1 2.5 4.7 3.6 5.5z"/><path class="st1" d="M26.2 50.5s0-5.3 3.5-7.7c2.4-1.7 2.1-2.6 2.1-2.6s2.1 2.6.6 5.9c-1.5 3.3-6.2 4.4-6.2 4.4z"/><path class="st46" d="M31.8 40.4c-.2.8-.8 1.5-2.1 2.4-3.5 2.4-3.5 7.7-3.5 7.7s1.7-1.6 3.4-3.9c1.3-1.8 2.2-4.9 2.2-6.2z"/><path class="st1" d="M34.1 47.1S30.8 43 32 38.9c.8-2.8 0-3.4 0-3.4s3.3.6 4.2 4.2c.8 3.6-2.1 7.4-2.1 7.4z"/><path class="st46" d="M32 35.7c.3.7.4 1.7-.1 3.2-1.2 4 2.1 8.2 2.1 8.2s.2-2.3.1-5.2c0-2.2-1.2-5.2-2.1-6.2z"/><path class="st1" d="M24.9 44.3s5.3-.1 7.7 3.4c1.7 2.4 2.7 2.1 2.7 2.1s-2.5 2.2-5.9.7c-3.3-1.6-4.5-6.2-4.5-6.2z"/><path class="st46" d="M35.1 49.7c-.8-.2-1.5-.8-2.5-2.1-2.4-3.4-7.7-3.4-7.7-3.4s1.7 1.6 4 3.3c1.8 1.4 4.9 2.3 6.2 2.2z"/><path class="st1" d="M28.5 52.1s4.1-3.4 8.1-2.2c2.8.8 3.4-.1 3.4-.1s-.6 3.3-4.1 4.2c-3.6 1-7.4-1.9-7.4-1.9z"/><path class="st46" d="M39.8 49.9c-.7.3-1.7.4-3.2-.1-4.1-1.1-8.1 2.2-8.1 2.2s2.3.2 5.2.1c2.2 0 5.1-1.3 6.1-2.2z"/><path class="st1" d="M42.9 55.1s-5.1-1.3-6.6-5.2c-1-2.8-2.1-2.7-2.1-2.7s3-1.5 5.9.8c2.9 2.3 2.8 7.1 2.8 7.1z"/><path class="st46" d="M34.4 47.3c.7.4 1.3 1.1 1.9 2.6 1.5 3.9 6.6 5.2 6.6 5.2s-1.2-2-3-4.2c-1.4-1.7-4.2-3.3-5.5-3.6z"/><path class="st1" d="M41.5 46.7s-4.8 2.2-8.4.1c-2.5-1.5-3.3-.8-3.3-.8s1.4-3 5-3.1c3.6 0 6.7 3.8 6.7 3.8z"/><path class="st46" d="M29.9 45.9c.8-.2 1.7.1 3.1.9 3.6 2.1 8.4-.1 8.4-.1s-2.2-.8-5-1.4c-2.1-.5-5.3 0-6.5.6z"/><path class="st1" d="M38.1 58.2s-.4-5.3 2.9-7.9c2.3-1.9 1.9-2.8 1.9-2.8s2.3 2.4 1.1 5.8c-1.4 3.4-5.9 4.9-5.9 4.9z"/><path class="st46" d="M42.8 47.6c-.1.8-.7 1.6-1.9 2.6-3.3 2.7-2.9 7.9-2.9 7.9s1.5-1.8 3-4.2c1.3-1.8 1.9-4.9 1.8-6.3z"/><path class="st1" d="M45.6 54.1s-3.6-3.8-2.8-8c.6-2.9-.3-3.3-.3-3.3s3.3.4 4.5 3.8c1.2 3.5-1.4 7.5-1.4 7.5z"/><path class="st46" d="M42.7 42.9c.4.7.5 1.7.2 3.2-.9 4.1 2.8 8 2.8 8s.1-2.3-.3-5.2c-.3-2.2-1.8-5-2.7-6z"/><path class="st1" d="M47.7 39.5s-.9 5.2-4.8 7c-2.7 1.2-2.5 2.2-2.5 2.2s-1.7-2.9.4-5.9c2.1-3 6.9-3.3 6.9-3.3z"/><path class="st46" d="M40.4 48.5c.3-.7 1-1.4 2.5-2 3.8-1.7 4.8-7 4.8-7s-1.9 1.3-4 3.3c-1.6 1.5-3.1 4.4-3.3 5.7z"/><path class="st1" d="M39.3 41.5s2.6 4.6.7 8.4c-1.3 2.6-.5 3.3-.5 3.3s-3.1-1.2-3.4-4.8c-.3-3.6 3.2-6.9 3.2-6.9z"/><path class="st46" d="M39.4 53.1c-.2-.8-.1-1.7.7-3.2 1.9-3.8-.7-8.4-.7-8.4s-.6 2.2-1 5.1c-.4 2.2.3 5.3 1 6.5z"/><path class="st1" d="M47.8 45.9s-5.2-.9-7-4.7c-1.3-2.7-2.3-2.5-2.3-2.5s2.9-1.7 5.9.3c3.1 2.1 3.4 6.9 3.4 6.9z"/><path class="st46" d="M38.7 38.7c.7.3 1.4 1 2.1 2.5 1.8 3.8 7 4.7 7 4.7s-1.4-1.9-3.3-4c-1.5-1.6-4.4-3-5.8-3.2z"/><path class="st1" d="M45.7 37.5s-4.6 2.6-8.4.8c-2.7-1.3-3.3-.5-3.3-.5s1.2-3.1 4.8-3.5c3.6-.3 6.9 3.2 6.9 3.2z"/><path class="st46" d="M34.1 37.7c.8-.2 1.7-.1 3.2.6 3.8 1.8 8.4-.8 8.4-.8s-2.3-.6-5.1-1c-2.2-.2-5.3.5-6.5 1.2z"/><path class="st1" d="M32 32.1s4.8 2.1 5.6 6.3c.5 2.9 1.6 3 1.6 3s-3.2.9-5.6-1.8c-2.5-2.8-1.6-7.5-1.6-7.5z"/><path class="st46" d="M39 41.2c-.6-.5-1.1-1.3-1.4-2.9C36.8 34.2 32 32 32 32s.8 2.2 2.2 4.7c1.1 2 3.6 4 4.8 4.5z"/><path class="st1" d="M32 40.6s5.1-1.4 8.3 1.3c2.3 1.9 3.1 1.3 3.1 1.3s-1.9 2.7-5.5 2.1c-3.6-.4-5.9-4.7-5.9-4.7z"/><path class="st46" d="M43.2 43.4c-.8 0-1.7-.4-2.9-1.4-3.2-2.7-8.3-1.3-8.3-1.3s2 1.2 4.7 2.2c2 .8 5.2.9 6.5.5z"/><g><path class="st1" d="M33.3 77.2s-1.8-5 .7-8.4c1.7-2.4 1.1-3.2 1.1-3.2s2.9 1.7 2.5 5.3c-.2 3.7-4.3 6.3-4.3 6.3z"/><path class="st46" d="M35.2 65.8c.1.8-.2 1.7-1.2 3-2.5 3.4-.7 8.4-.7 8.4s1-2.1 1.9-4.8c.7-2.2.5-5.4 0-6.6z"/></g><g><path class="st1" d="M39.6 71.3s-4.5-2.8-4.7-7c-.2-2.9-1.2-3.2-1.2-3.2s3.3-.5 5.3 2.5c2.1 3.1.6 7.7.6 7.7z"/><path class="st46" d="M33.9 61.3c.6.6.9 1.5 1 3.1.2 4.2 4.7 7 4.7 7s-.5-2.4-1.6-5c-.8-2.1-2.9-4.5-4.1-5.1z"/></g><g><path class="st1" d="M37.9 56.7s.4 5.3-2.8 7.9c-2.3 1.9-1.9 2.8-1.9 2.8s-2.3-2.4-1.1-5.8c1.2-3.4 5.8-4.9 5.8-4.9z"/><path class="st46" d="M33.2 67.2c.1-.8.7-1.6 1.9-2.6 3.3-2.7 2.8-7.9 2.8-7.9s-1.5 1.8-3 4.2c-1.2 1.8-1.9 5-1.7 6.3z"/></g><g><path class="st1" d="M30.3 60.8s3.7 3.8 2.8 7.9c-.6 2.9.3 3.3.3 3.3s-3.3-.4-4.5-3.8c-1.2-3.4 1.4-7.4 1.4-7.4z"/><path class="st46" d="M33.3 71.9c-.4-.7-.5-1.7-.2-3.2.8-4.1-2.8-7.9-2.8-7.9s0 2.3.3 5.2c.3 2.1 1.8 5 2.7 5.9z"/></g><g><path class="st1" d="M39.6 62.8s-5.3.5-8-2.7c-1.9-2.3-2.8-1.8-2.8-1.8s2.3-2.4 5.8-1.2c3.5 1.1 5 5.7 5 5.7z"/><path class="st46" d="M29 58.2c.8.1 1.6.6 2.6 1.9 2.7 3.2 8 2.7 8 2.7s-1.8-1.5-4.2-3c-1.9-1.1-5-1.7-6.4-1.6z"/></g><g><path class="st1" d="M35.4 55.3s-3.8 3.7-7.9 2.9c-2.9-.6-3.3.4-3.3.4s.3-3.3 3.7-4.6c3.5-1.3 7.5 1.3 7.5 1.3z"/><path class="st46" d="M24.3 58.4c.7-.4 1.6-.5 3.2-.2 4.1.8 7.9-2.9 7.9-2.9s-2.3 0-5.2.4c-2.1.2-4.9 1.8-5.9 2.7z"/></g><g><path class="st1" d="M20.8 53.5s5.2.8 7 4.6c1.3 2.7 2.3 2.5 2.3 2.5s-2.9 1.7-5.9-.3c-3-2-3.4-6.8-3.4-6.8z"/><path class="st46" d="M29.9 60.6c-.7-.3-1.4-1-2.1-2.5-1.8-3.8-7-4.6-7-4.6s1.4 1.9 3.4 3.9c1.5 1.6 4.4 3 5.7 3.2z"/></g><g><path class="st1" d="M23 61.8s4.6-2.7 8.4-.8c2.7 1.3 3.3.5 3.3.5s-1.1 3.1-4.8 3.5c-3.6.3-6.9-3.2-6.9-3.2z"/><path class="st46" d="M34.5 61.6c-.8.2-1.7.1-3.2-.6-3.8-1.8-8.4.8-8.4.8s2.3.6 5.1.9c2.3.3 5.4-.4 6.5-1.1z"/></g><g><path class="st1" d="M25.4 50.1s.9 5.2-2.2 8.1c-2.1 2-1.6 2.9-1.6 2.9S19.1 59 20 55.4c1-3.5 5.4-5.3 5.4-5.3z"/><path class="st46" d="M21.5 61c.1-.8.5-1.6 1.7-2.8 3-2.9 2.2-8.1 2.2-8.1S24 52 22.7 54.5c-1 1.9-1.4 5.1-1.2 6.5z"/></g><g><path class="st1" d="M18.2 54.7s4 3.5 3.5 7.7c-.4 2.9.6 3.3.6 3.3s-3.3-.1-4.8-3.4c-1.6-3.3.7-7.6.7-7.6z"/><path class="st46" d="M22.1 65.6c-.5-.7-.6-1.6-.4-3.2.5-4.2-3.5-7.7-3.5-7.7s.1 2.3.7 5.1c.4 2.2 2.2 5 3.2 5.8z"/></g><g><path class="st1" d="M17.4 69.5s.5-5.3 4.1-7.3c2.6-1.5 2.3-2.4 2.3-2.4s1.9 2.7.1 5.9c-1.7 3.1-6.5 3.8-6.5 3.8z"/><path class="st46" d="M23.8 59.9c-.3.8-.9 1.5-2.3 2.2-3.7 2.1-4.1 7.3-4.1 7.3s1.8-1.5 3.7-3.6c1.5-1.6 2.7-4.6 2.7-5.9z"/></g><g><path class="st1" d="M25.5 66.7s-3-4.4-1.4-8.3c1.1-2.7.3-3.4.3-3.4s3.2.9 3.8 4.5c.6 3.7-2.7 7.2-2.7 7.2z"/><path class="st46" d="M24.5 55.2c.3.8.2 1.7-.4 3.2-1.5 3.9 1.4 8.3 1.4 8.3s.4-2.3.6-5.1c.2-2.2-.8-5.3-1.6-6.4z"/></g><g><path class="st1" d="M16.7 63.1s5.3.4 7.4 4c1.5 2.6 2.5 2.3 2.5 2.3s-2.7 1.9-5.9.2-4-6.5-4-6.5z"/><path class="st46" d="M26.4 69.5c-.8-.3-1.5-.9-2.3-2.3-2.1-3.6-7.4-4-7.4-4s1.5 1.8 3.7 3.7c1.6 1.4 4.6 2.5 6 2.6z"/></g><g><path class="st1" d="M19.5 71.2s4.4-3 8.3-1.5c2.8 1 3.4.2 3.4.2s-.9 3.2-4.5 3.9c-3.6.7-7.2-2.6-7.2-2.6z"/><path class="st46" d="M31 70.1c-.7.3-1.7.2-3.2-.3-3.9-1.5-8.3 1.5-8.3 1.5s2.3.4 5.2.5c2.2.1 5.3-.9 6.3-1.7z"/></g><g><path class="st1" d="M33.7 75.5s-5-1.7-6.1-5.8c-.8-2.8-1.8-2.8-1.8-2.8s3.1-1.2 5.8 1.3c2.5 2.6 2.1 7.3 2.1 7.3z"/><path class="st46" d="M25.9 67c.7.4 1.2 1.2 1.6 2.8 1.1 4.1 6.1 5.8 6.1 5.8s-1-2.1-2.6-4.5c-1.2-1.8-3.8-3.7-5.1-4.1z"/></g><g><path class="st1" d="M32.9 67s-5 1.8-8.4-.6c-2.4-1.7-3.2-1.1-3.2-1.1s1.7-2.9 5.3-2.6c3.7.3 6.3 4.3 6.3 4.3z"/><path class="st46" d="M21.5 65.2c.8-.1 1.7.2 3 1.1 3.4 2.4 8.4.6 8.4.6s-2.1-1-4.9-1.8c-2-.6-5.2-.4-6.5.1z"/></g><g><path class="st1" d="M39 68.8s-1.8-5 .7-8.4c1.7-2.4 1.1-3.2 1.1-3.2s2.9 1.7 2.5 5.3c-.2 3.6-4.3 6.3-4.3 6.3z"/><path class="st46" d="M40.9 57.4c.1.8-.2 1.7-1.2 3-2.5 3.4-.7 8.4-.7 8.4s1-2.1 1.9-4.8c.7-2.2.5-5.4 0-6.6z"/></g><g><path class="st1" d="M45.3 62.9s-4.5-2.8-4.7-7c-.2-2.9-1.2-3.2-1.2-3.2s3.3-.5 5.3 2.5c2.1 3.1.6 7.7.6 7.7z"/><path class="st46" d="M39.6 52.8c.6.6.9 1.5 1 3.1.2 4.2 4.7 7 4.7 7s-.5-2.3-1.6-4.9c-.8-2.1-2.9-4.5-4.1-5.2z"/></g><g><path class="st1" d="M43.6 48.2s.4 5.3-2.8 7.9c-2.3 1.9-1.9 2.8-1.9 2.8s-2.3-2.4-1.1-5.8c1.2-3.3 5.8-4.9 5.8-4.9z"/><path class="st46" d="M38.9 58.8c.1-.8.7-1.6 1.9-2.6 3.3-2.7 2.8-7.9 2.8-7.9s-1.5 1.8-3 4.2c-1.2 1.8-1.9 5-1.7 6.3z"/></g><g><path class="st1" d="M36 52.3s3.7 3.8 2.8 7.9c-.6 2.9.3 3.3.3 3.3s-3.3-.4-4.5-3.8c-1.2-3.3 1.4-7.4 1.4-7.4z"/><path class="st46" d="M39 63.5c-.4-.7-.5-1.7-.2-3.2.8-4.1-2.8-7.9-2.8-7.9s0 2.3.3 5.2c.3 2.1 1.8 5 2.7 5.9z"/></g><g><path class="st1" d="M45.3 54.4s-5.3.5-8-2.7c-1.9-2.3-2.8-1.8-2.8-1.8s2.3-2.4 5.8-1.2c3.5 1.1 5 5.7 5 5.7z"/><path class="st46" d="M34.7 49.8c.8.1 1.6.6 2.6 1.9 2.7 3.2 8 2.7 8 2.7s-1.8-1.5-4.2-3c-1.9-1.2-5-1.8-6.4-1.6z"/></g><g><path class="st1" d="M41.1 46.9s-3.8 3.7-7.9 2.9c-2.9-.6-3.3.4-3.3.4s.3-3.3 3.7-4.6c3.5-1.3 7.5 1.3 7.5 1.3z"/><path class="st46" d="M30 50c.7-.4 1.6-.5 3.2-.2 4.1.8 7.9-2.9 7.9-2.9s-2.3 0-5.2.4C33.8 47.5 31 49 30 50z"/></g><g><path class="st1" d="M26.5 45.1s5.2.8 7 4.6c1.3 2.7 2.3 2.5 2.3 2.5s-2.9 1.7-5.9-.3c-3-2-3.4-6.8-3.4-6.8z"/><path class="st46" d="M35.6 52.2c-.7-.3-1.4-1-2.1-2.5-1.8-3.8-7-4.6-7-4.6s1.4 1.9 3.4 3.9c1.5 1.6 4.4 3 5.7 3.2z"/></g><g><path class="st1" d="M28.7 53.4s4.6-2.7 8.4-.8c2.7 1.3 3.3.5 3.3.5s-1.1 3.1-4.8 3.5c-3.6.3-6.9-3.2-6.9-3.2z"/><path class="st46" d="M40.2 53.1c-.8.2-1.7.1-3.2-.6-3.8-1.8-8.4.8-8.4.8s2.3.6 5.1.9c2.3.4 5.4-.4 6.5-1.1z"/></g><g><path class="st1" d="M31.1 41.6s.9 5.2-2.2 8.1c-2.1 2-1.6 2.9-1.6 2.9s-2.5-2.2-1.6-5.7c.9-3.4 5.4-5.3 5.4-5.3z"/><path class="st46" d="M27.2 52.5c.1-.8.5-1.6 1.7-2.8 3-2.9 2.2-8.1 2.2-8.1s-1.4 1.9-2.7 4.4c-1 2-1.4 5.2-1.2 6.5z"/></g><g><path class="st1" d="M23.9 46.3s4 3.5 3.5 7.7c-.4 2.9.6 3.3.6 3.3s-3.3-.1-4.8-3.4c-1.6-3.3.7-7.6.7-7.6z"/><path class="st46" d="M27.8 57.2c-.5-.7-.6-1.6-.4-3.2.5-4.2-3.5-7.7-3.5-7.7s.1 2.3.7 5.1c.4 2.2 2.2 4.9 3.2 5.8z"/></g><g><path class="st1" d="M23.1 61.1s.5-5.3 4.1-7.3c2.6-1.4 2.3-2.4 2.3-2.4s1.9 2.7.1 5.9c-1.7 3.1-6.5 3.8-6.5 3.8z"/><path class="st46" d="M29.5 51.5c-.3.8-.9 1.5-2.3 2.2-3.7 2.1-4.1 7.3-4.1 7.3s1.8-1.5 3.7-3.6c1.5-1.6 2.7-4.6 2.7-5.9z"/></g><g><path class="st1" d="M31.2 58.3s-3-4.4-1.4-8.3c1.1-2.7.3-3.4.3-3.4s3.2.9 3.8 4.5c.6 3.7-2.7 7.2-2.7 7.2z"/><path class="st46" d="M30.2 46.8c.3.8.2 1.7-.4 3.2-1.5 3.9 1.4 8.3 1.4 8.3s.4-2.3.6-5.1c.2-2.2-.8-5.3-1.6-6.4z"/></g><g><path class="st1" d="M22.4 54.7s5.3.4 7.4 4c1.5 2.6 2.5 2.3 2.5 2.3s-2.7 1.9-5.9.2-4-6.5-4-6.5z"/><path class="st46" d="M32.1 61.1c-.8-.3-1.5-.9-2.3-2.3-2.1-3.6-7.4-4-7.4-4s1.5 1.8 3.7 3.7c1.6 1.3 4.6 2.5 6 2.6z"/></g><g><path class="st1" d="M25.2 62.8s4.4-3 8.3-1.5c2.8 1 3.4.2 3.4.2s-.9 3.2-4.5 3.9c-3.6.6-7.2-2.6-7.2-2.6z"/><path class="st46" d="M36.7 61.7c-.7.3-1.7.2-3.2-.3-3.9-1.5-8.3 1.5-8.3 1.5s2.3.4 5.2.5c2.2.1 5.3-.9 6.3-1.7z"/></g><g><path class="st1" d="M39.4 67.1s-5-1.7-6.1-5.8c-.8-2.8-1.8-2.8-1.8-2.8s3.1-1.2 5.8 1.3c2.5 2.5 2.1 7.3 2.1 7.3z"/><path class="st46" d="M31.6 58.6c.7.4 1.2 1.2 1.6 2.8 1.1 4.1 6.1 5.8 6.1 5.8s-1-2.1-2.6-4.5c-1.2-1.9-3.8-3.7-5.1-4.1z"/></g><g><path class="st1" d="M38.6 58.6s-5 1.8-8.4-.6c-2.4-1.7-3.2-1.1-3.2-1.1s1.7-2.9 5.3-2.6c3.7.3 6.3 4.3 6.3 4.3z"/><path class="st46" d="M27.2 56.8c.8-.1 1.7.2 3 1.1 3.4 2.4 8.4.6 8.4.6s-2.1-1-4.9-1.8c-2-.6-5.2-.4-6.5.1z"/></g><g><path class="st1" d="M24.8 64.7s-1.8-5 .7-8.4c1.7-2.4 1.1-3.2 1.1-3.2s2.9 1.7 2.5 5.3c-.2 3.6-4.3 6.3-4.3 6.3z"/><path class="st46" d="M26.7 53.3c.1.8-.2 1.7-1.2 3-2.5 3.4-.7 8.4-.7 8.4s1-2.1 1.9-4.8c.7-2.2.5-5.4 0-6.6z"/></g><g><path class="st1" d="M31.1 58.8s-4.5-2.8-4.7-7c-.2-2.9-1.2-3.2-1.2-3.2s3.3-.5 5.3 2.5c2.1 3.1.6 7.7.6 7.7z"/><path class="st46" d="M25.4 48.7c.6.6.9 1.5 1 3.1.2 4.2 4.7 7 4.7 7s-.5-2.3-1.6-4.9c-.8-2.1-2.9-4.5-4.1-5.2z"/></g><g><path class="st1" d="M29.4 44.1s.4 5.3-2.8 7.9c-2.3 1.9-1.9 2.8-1.9 2.8s-2.3-2.4-1.1-5.8c1.2-3.3 5.8-4.9 5.8-4.9z"/><path class="st46" d="M24.7 54.7c.1-.8.7-1.6 1.9-2.6 3.3-2.7 2.8-7.9 2.8-7.9s-1.5 1.8-3 4.2c-1.2 1.8-1.9 5-1.7 6.3z"/></g><g><path class="st1" d="M21.8 48.2s3.7 3.8 2.8 7.9c-.6 3 .4 3.4.4 3.4s-3.3-.4-4.5-3.8c-1.3-3.4 1.3-7.5 1.3-7.5z"/><path class="st46" d="M24.8 59.4c-.4-.7-.5-1.7-.2-3.2.8-4.1-2.8-7.9-2.8-7.9s0 2.3.3 5.2c.3 2.1 1.8 5 2.7 5.9z"/></g><g><path class="st1" d="M31.1 50.3s-5.3.5-8-2.7c-1.9-2.3-2.8-1.8-2.8-1.8s2.3-2.4 5.8-1.2c3.5 1.1 5 5.7 5 5.7z"/><path class="st46" d="M20.5 45.7c.8.1 1.6.6 2.6 1.9 2.7 3.2 8 2.7 8 2.7s-1.8-1.5-4.2-3c-1.9-1.2-5-1.8-6.4-1.6z"/></g><g><path class="st1" d="M26.9 42.8s-3.8 3.7-7.9 2.9c-2.9-.6-3.3.4-3.3.4s.3-3.3 3.7-4.6c3.4-1.3 7.5 1.3 7.5 1.3z"/><path class="st46" d="M15.8 45.9c.7-.4 1.6-.5 3.2-.2 4.1.8 7.9-2.9 7.9-2.9s-2.3 0-5.2.4c-2.1.2-5 1.7-5.9 2.7z"/></g><g><path class="st1" d="M12.3 41s5.2.8 7 4.6c1.3 2.7 2.3 2.5 2.3 2.5s-2.9 1.7-5.9-.3c-3-2-3.4-6.8-3.4-6.8z"/><path class="st46" d="M21.4 48.1c-.7-.3-1.4-1-2.1-2.5-1.8-3.8-7-4.6-7-4.6s1.4 1.9 3.4 3.9c1.5 1.6 4.4 3 5.7 3.2z"/></g><g><path class="st1" d="M14.5 49.3s4.6-2.7 8.4-.8c2.7 1.3 3.3.5 3.3.5s-1.2 3-4.8 3.4c-3.6.4-6.9-3.1-6.9-3.1z"/><path class="st46" d="M26 49c-.8.2-1.7.1-3.2-.6-3.8-1.8-8.4.8-8.4.8s2.3.6 5.1.9c2.3.4 5.4-.4 6.5-1.1z"/></g><g><path class="st1" d="M16.9 37.5s.9 5.2-2.2 8.1c-2.1 2-1.6 2.9-1.6 2.9s-2.5-2.2-1.6-5.7c.9-3.4 5.4-5.3 5.4-5.3z"/><path class="st46" d="M13 48.4c.1-.8.5-1.6 1.7-2.8 3-2.9 2.2-8.1 2.2-8.1s-1.4 1.9-2.7 4.4c-1 2-1.4 5.2-1.2 6.5z"/></g><g><path class="st1" d="M9.7 42.2s4 3.5 3.5 7.7c-.4 2.9.6 3.3.6 3.3s-3.3-.1-4.8-3.4c-1.6-3.3.7-7.6.7-7.6z"/><path class="st46" d="M13.6 53.1c-.5-.7-.6-1.6-.4-3.2.5-4.2-3.5-7.7-3.5-7.7s.1 2.3.7 5.1c.4 2.2 2.1 4.9 3.2 5.8z"/></g><g><path class="st1" d="M8.9 57s.5-5.3 4.1-7.3c2.6-1.5 2.3-2.4 2.3-2.4s1.9 2.7.1 5.9C13.7 56.3 8.9 57 8.9 57z"/><path class="st46" d="M15.3 47.4c-.3.8-.9 1.5-2.3 2.2C9.4 51.7 8.9 57 8.9 57s1.8-1.5 3.7-3.6c1.5-1.7 2.7-4.7 2.7-6z"/></g><g><path class="st1" d="M17 54.2s-3-4.4-1.4-8.3c1.1-2.7.3-3.4.3-3.4s3.2.9 3.8 4.5c.6 3.7-2.7 7.2-2.7 7.2z"/><path class="st46" d="M16 42.7c.3.8.2 1.7-.4 3.2-1.5 3.9 1.4 8.3 1.4 8.3s.4-2.3.6-5.1c.1-2.2-.8-5.3-1.6-6.4z"/></g><g><path class="st1" d="M8.2 50.6s5.3.4 7.4 4c1.5 2.6 2.5 2.3 2.5 2.3s-2.7 1.9-5.9.2-4-6.5-4-6.5z"/><path class="st46" d="M17.9 57c-.8-.2-1.5-.9-2.3-2.3-2.1-3.6-7.4-4-7.4-4s1.5 1.8 3.7 3.7c1.6 1.3 4.6 2.5 6 2.6z"/></g><g><path class="st1" d="M11 58.7s4.4-3 8.3-1.5c2.8 1.1 3.4.2 3.4.2s-.9 3.2-4.5 3.9c-3.6.6-7.2-2.6-7.2-2.6z"/><path class="st46" d="M22.5 57.6c-.7.3-1.7.2-3.2-.3-3.9-1.5-8.3 1.5-8.3 1.5s2.3.4 5.2.5c2.2.1 5.2-1 6.3-1.7z"/></g><g><path class="st1" d="M25.1 63s-5-1.7-6.1-5.8c-.8-2.8-1.8-2.8-1.8-2.8s3.1-1.2 5.8 1.3c2.6 2.5 2.1 7.3 2.1 7.3z"/><path class="st46" d="M17.4 54.5c.7.4 1.2 1.2 1.6 2.8 1.1 4.1 6.1 5.8 6.1 5.8s-1-2.1-2.6-4.5c-1.2-1.9-3.8-3.7-5.1-4.1z"/></g><g><path class="st1" d="M24.4 54.5s-5 1.8-8.4-.6c-2.4-1.7-3.2-1.1-3.2-1.1s1.7-2.9 5.3-2.6c3.7.3 6.3 4.3 6.3 4.3z"/><path class="st46" d="M13 52.7c.8-.1 1.7.2 3 1.1 3.4 2.4 8.4.6 8.4.6s-2.1-1-4.9-1.8c-2-.6-5.2-.4-6.5.1z"/></g></svg>