<svg id="Layer_1" xmlns="http://www.w3.org/2000/svg" viewBox="0 0 57.5 262.7"><style>.st0{fill:#f4e9dc}.st1{fill:#34512a}.st2{fill:#5e7a52}.st3{fill:#7a4a3d}.st4{fill:#99675c}.st5{fill:#93594d}.st6{fill:#c6947d}.st7{fill:#dd4b47}.st8{opacity:.21;fill:#FFF}.st9{fill:#bbcc5a}.st10{fill:#e2ba86}.st11{fill:#cca479}.st12{fill:#9e7e5a}.st13{fill:#b56b52}.st14{fill:#9a513e}.st15{opacity:.2;fill:#FFF}.st16{fill:#915c4a}.st17{fill:#a9562c}.st18{fill:#953715}.st19{fill:#7a4c40}.st20{fill:#b7805b}.st21{fill:#3a2a1f}.st22{fill:#a57250}.st23{fill:#6d4137}.st24{fill:#7c4b43}.st25{fill:#3e6e2d}.st26{fill:#66a349}.st27{fill:#4c8a32}.st28{fill:#e2cbbc}.st29{fill:#edd3c6}.st30{fill:#d8bcad}.st31{fill:#773d4d}.st32{fill:#54242e}.st33{fill:#663041}.st34{fill:#80485a}.st35{opacity:.49}.st36{clip-path:url(#SVGID_2_)}.st37{fill:#FFF}.st38{fill:#005c2f}.st39{fill:#057333}.st40{fill:#073f21}.st41{fill:#0c512a}.st42{fill:#d6a667}.st43{fill:#cc9a5d}.st44{fill:#cc9d63}.st45{fill:#c18c52}.st46{fill:#2d3f25}.st47{opacity:.43;fill:#FFF}.st48{fill:#9d9d9c}.st49{fill:#b2b2b2}.st50{fill:#c6c6c6}.st51{fill:#383a35}.st52{fill:#3c3c3b}.st53{fill:#f9f8da}.st54{fill:#cd2b1a}.st55{fill:#b22018}</style><path class="st42" d="M57.3 38.3C55.5 9.5 40.1-4.3 21.9 1.2 12 4.2 5.1 12.4.9 37-2 53.5 2.5 68.7 8.1 80.4c2.7 5.6 11.8 18.3 12.7 30.2 1.3 16.8 1.1 38.5 1.1 38.5-2.1 108.7-2.1 113.6 4.2 113.6s5.5-61.7 6.3-124.8c.5-34.7 5.7-38.9 10.1-47.4C47 82 59 65.3 57.3 38.3zm-32 219.1c-.9 0-1.6-.7-1.6-1.6s.7-1.6 1.6-1.6c.9 0 1.6.7 1.6 1.6s-.7 1.6-1.6 1.6z"/><path class="st43" d="M50.1 46.1c0 21.1-9.6 38.2-21.4 38.2-11.8 0-21.4-17.1-21.4-38.2s11-38.2 22.8-38.2 20 17.1 20 38.2z"/><path class="st54" d="M26.3 44.4l.7-2.5 1.2 1.7-.7.9z"/><path class="st55" d="M26.3 45.9l.8-2.5 1.2 1.7-.7.9z"/><path class="st54" d="M27.3 43.8l.8-2.5 1.1 1.7-.6.9z"/><path class="st55" d="M27.4 45.3l.8-2.5 1.1 1.7-.7.9z"/><path class="st54" d="M29 41.2l-2.2 1.3 2 .7.7-.8z"/><path class="st55" d="M30.5 40.9l-2.2 1.4 1.9.7.7-.9z"/><path class="st54" d="M28.7 42.4l-2.2 1.3 2 .7.7-.9z"/><path class="st55" d="M30.2 42.1L28 43.5l1.9.6.7-.8z"/><path class="st54" d="M27.4 45.5l.7-2.5 1.2 1.8-.7.9z"/><path class="st55" d="M27.5 47l.7-2.5 1.2 1.8-.7.9z"/><path class="st54" d="M28.5 45l.7-2.5 1.2 1.7-.7.9z"/><path class="st55" d="M28.5 46.5l.8-2.5 1.2 1.7-.7.9z"/><path class="st54" d="M27.2 48.9l2.7.2-1.3-1.7-1 .3z"/><path class="st55" d="M31.6 42.1l-2.2 1.3 2 .7.6-.9z"/><path class="st54" d="M29.9 43.6l-2.3 1.3 2 .7.7-.9z"/><path class="st55" d="M31.3 43.3l-2.2 1.3 1.9.7.7-.9z"/><path class="st54" d="M29.2 41.7l.7-2.5 1.2 1.8-.7.9z"/><path class="st55" d="M29.3 43.2l.7-2.5 1.2 1.8-.7.8z"/><path class="st54" d="M30.3 41.2l.7-2.6 1.2 1.8-.7.9z"/><path class="st55" d="M30.3 42.6l.8-2.5 1.1 1.8-.6.9z"/><path class="st54" d="M32 38.6l-2.3 1.3 2 .7.7-.9z"/><path class="st55" d="M33.4 38.3l-2.2 1.3 2 .7.6-.9z"/><path class="st54" d="M31.7 39.7l-2.3 1.4 2 .7.7-.9z"/><path class="st55" d="M33.1 39.5l-2.2 1.3 1.9.7.7-.9z"/><path class="st54" d="M30.3 42.9l.8-2.5 1.1 1.7-.7.9z"/><path class="st55" d="M30.4 44.4l.7-2.5 1.2 1.7-.7.9z"/><path class="st54" d="M31.4 42.3l.7-2.5 1.2 1.7-.7.9z"/><path class="st55" d="M31.5 43.8l.7-2.5 1.2 1.7-.7.9z"/><path class="st54" d="M33.1 39.7l-2.3 1.4 2 .7.7-.9z"/><path class="st55" d="M34.6 39.4l-2.3 1.4 2 .7.7-.9z"/><path class="st54" d="M30.2 44.7L27.9 46l2 .7.7-.9z"/><path class="st55" d="M34.2 40.6L32 42l2 .7.7-.9z"/><path class="st54" d="M28.7 46.1l.8-2.5 1.1 1.7-.6.9z"/><path class="st55" d="M28.4 48.5l.8-2.5 1.1 1.8-.6.9z"/><path class="st54" d="M29.8 45.5l.8-2.5 1.1 1.7-.7.9z"/><path class="st55" d="M29.9 47l.8-2.5 1.1 1.7-.7.9z"/><path class="st54" d="M31.5 42.9l-2.2 1.3 1.9.7.7-.9z"/><path class="st55" d="M33 42.6l-2.2 1.3 1.9.7.7-.9z"/><path class="st54" d="M34.3 41.1L32 42.5l2 .7.7-.9z"/><path class="st55" d="M32.7 43.8l-2.3 1.3 2 .7.7-.9z"/><path class="st54" d="M29.9 47.2l.7-2.5 1.2 1.8-.7.8z"/><path class="st55" d="M29.9 48.7l.8-2.5 1.1 1.8-.6.8z"/><path class="st54" d="M30.9 46.6l.8-2.5 1.1 1.8-.6.9z"/><path class="st55" d="M31 48.1l.8-2.5 1.1 1.8-.7.9z"/><path class="st54" d="M32.6 44l-2.2 1.4 2 .7.7-.9z"/><path class="st55" d="M34.1 43.8l-2.2 1.3 1.9.7.7-.9z"/><path class="st54" d="M32.3 45.2l-2.2 1.4 2 .7.6-.9z"/><path class="st55" d="M33.8 45l-2.2 1.3 1.9.7.7-.9z"/><path class="st54" d="M31.6 43.4l.8-2.5 1.2 1.7-.7.9z"/><path class="st55" d="M22.3 30.3l2.4-.9-.7 2h-1.1z"/><path class="st54" d="M32.7 42.8l.8-2.5 1.1 1.8-.7.8z"/><path class="st55" d="M32.8 44.3l.8-2.5 1.1 1.8-.7.8z"/><path class="st54" d="M34.4 40.2l-2.2 1.4 2 .7.6-.9z"/><path class="st55" d="M35.9 40l-2.2 1.3 1.9.7.7-.9z"/><path class="st54" d="M36.7 41.3l-2.2 1.4 1.9.6.7-.8z"/><path class="st55" d="M35.6 41.1l-2.2 1.4 1.9.7.7-.9z"/><path class="st54" d="M32.8 44.6l.7-2.5 1.2 1.7-.7.9z"/><path class="st55" d="M32.9 46.1l.7-2.5 1.2 1.7-.7.9z"/><path class="st54" d="M33.8 44l.8-2.5 1.2 1.7-.7.9z"/><path class="st55" d="M33.9 45.5l.8-2.5 1.1 1.7-.6.9z"/><path class="st54" d="M35.6 41.4l-2.3 1.4 2 .6.7-.8z"/><path class="st55" d="M37 41.1l-2.2 1.4 1.9.7.7-.9z"/><path class="st54" d="M35.3 42.6L33 43.9l2 .7.7-.9z"/><path class="st55" d="M36.7 42.3l-2.2 1.4 1.9.7.7-.9z"/><path class="st54" d="M33.5 44.6l2.4.8-1.7 1.1-.9-.7z"/><path class="st55" d="M32 44.6l2.4.8-1.7 1.1-.9-.7z"/><path class="st54" d="M27.3 29.2l.9 2.4-2-.7.1-1.1z"/><path class="st55" d="M32.5 45.7l2.5.8-1.8 1.1-.8-.7z"/><path class="st54" d="M27.5 32.3l1-2.4-2 .6v1.1z"/><path class="st55" d="M26.5 33.4l1-2.4-2 .6v1.1z"/><path class="st54" d="M35.4 47.1l-1.3-2.3-.8 2 .9.7z"/><path class="st55" d="M26 32.2l1-2.4-2 .6v1.1z"/><path class="st54" d="M32.3 45.6l2.4.9-1.7 1.1-.9-.7z"/><path class="st55" d="M30.8 45.7l2.4.8-1.7 1.1-.9-.7z"/><path class="st54" d="M32.8 46.7l2.5.9-1.8 1.1-.8-.7z"/><path class="st55" d="M31.3 46.8l2.5.8-1.8 1.1-.8-.7z"/><path class="st54" d="M25.9 32l1-2.4-2 .6v1.1z"/><path class="st55" d="M24.9 33.1l1-2.4-2 .6v1.1z"/><path class="st54" d="M34.2 48.2l-1.3-2.3-.7 1.9.8.8z"/><path class="st55" d="M24.4 32l1-2.5-2 .6v1.2z"/><path class="st54" d="M27.1 31.9l.8 2.5-1.9-.7v-1.2z"/><path class="st55" d="M26.1 30.8l.9 2.4-2-.7.1-1.1z"/><path class="st54" d="M26.5 33l.9 2.5-1.9-.7v-1.1z"/><path class="st55" d="M25.6 31.9l.9 2.4-2-.7v-1.1z"/><path class="st54" d="M26.7 36.1l1-2.4-2 .6v1.1z"/><path class="st55" d="M26.3 34.6l1-2.4-2 .6v1.1z"/><path class="st54" d="M28.2 32.1l1-2.4-2 .6v1.1z"/><path class="st55" d="M25.2 36.1l1-2.4-2 .6v1.1z"/><path class="st54" d="M28.1 33.6l.9 2.5-1.9-.7v-1.2z"/><path class="st55" d="M24.5 30.5l.9 2.4-2-.7.1-1.1z"/><path class="st54" d="M24.9 32.7l.9 2.5-1.9-.7v-1.1z"/><path class="st55" d="M24 31.6l.9 2.5-2-.7v-1.2z"/><path class="st54" d="M25.1 35.8l1-2.4-2 .6v1.2z"/><path class="st55" d="M24.1 36.9l1-2.4-2 .6v1.2z"/><path class="st54" d="M24.6 34.7l1-2.4-1.9.6-.1 1.1z"/><path class="st55" d="M23.6 35.8l1-2.4-2 .6v1.1z"/><path class="st54" d="M31.7 47l2.5.8-1.8 1.1-.8-.7z"/><path class="st55" d="M30.2 47l2.5.9-1.8 1.1-.8-.8z"/><path class="st54" d="M24.3 29.3l.9 2.4-2-.7.1-1.1z"/><path class="st55" d="M30.8 48.1l2.5.8-1.8 1.2-.9-.8z"/><path class="st54" d="M24.5 32.4l1-2.4-2 .6v1.1z"/><path class="st55" d="M23.5 33.5l1-2.4-2 .6v1.1z"/><path class="st54" d="M25.7 35.7l1-2.5-2 .6V35z"/><path class="st55" d="M23 32.3l1-2.4-2 .6v1.2z"/><path class="st54" d="M28.3 31.1l.9 4.6-2-1.3.1-2.1z"/><path class="st55" d="M29 48.1l2.5.8-1.8 1.1-.8-.7z"/><path class="st54" d="M22.7 29l.9 2.5-1.9-.7v-1.2z"/><path class="st55" d="M29.6 49.2l2.5.8-1.8 1.1-.9-.7z"/><path class="st54" d="M22.9 32.1l1-2.4-2 .6v1.1z"/><path class="st55" d="M21.9 33.2l1-2.4-2 .6v1.1z"/><path class="st54" d="M32.4 50.6l-1.3-2.3-.7 2 .9.7z"/><path class="st55" d="M21.4 32.1l1-2.4-2 .6v1.1z"/><path class="st54" d="M24.1 32l.8 2.5-1.9-.7v-1.1z"/><path class="st55" d="M23.1 30.9l.9 2.4-2-.7.1-1.1z"/><path class="st54" d="M23.5 33.1l.9 2.5-1.9-.7v-1.1z"/><path class="st55" d="M22.6 32l.9 2.5-2-.8v-1.1z"/><path class="st54" d="M23.7 36.2l1-2.4-2 .6v1.2z"/><path class="st55" d="M22.7 37.3l1-2.4-2 .6v1.2z"/><path class="st54" d="M37.8 44l-1.3-2.3-.7 1.9.8.8z"/><path class="st55" d="M22.2 36.2l1-2.4-2 .6v1.1z"/><path class="st54" d="M22.5 31.8l.8 2.4-1.9-.7v-1.1z"/><path class="st55" d="M21.5 30.6l.9 2.5-2-.7.1-1.2z"/><path class="st54" d="M22 32.9l.8 2.4-1.9-.7v-1.1z"/><path class="st55" d="M21 31.7l.9 2.5-2-.7v-1.2z"/><path class="st54" d="M22.1 36l1-2.4-2 .6v1.1z"/><path class="st55" d="M21.1 37.1l1-2.4-2 .6v1.1z"/><path class="st54" d="M21.7 34.8l1-2.4-2 .6-.1 1.1z"/><path class="st55" d="M20.6 35.9l1-2.4-1.9.6-.1 1.1zM33.2 43.9l.8-2.5 1.1 1.7-.6.9z"/><path class="st54" d="M34.2 41.8l.8-2.5 1.1 1.7-.7.9z"/><path class="st55" d="M34.3 43.3l.8-2.5 1.1 1.7-.7.9zM34.7 27.7l-2.4-.9.6 1.9H34z"/><path class="st54" d="M35.6 40.4l-2.2 1.3 2 .7.6-.8z"/><path class="st55" d="M37.1 40.1l-2.2 1.4 1.9.7.7-.9z"/><path class="st54" d="M34.3 43.6l.7-2.5 1.2 1.7-.7.9z"/><path class="st55" d="M34.4 45.1l.7-2.5 1.2 1.7-.7.9z"/><path class="st54" d="M35.4 43l.7-2.5 1.2 1.7-.7.9z"/><path class="st55" d="M35.4 44.5l.8-2.5 1.1 1.7-.6.9z"/><path class="st54" d="M26.4 30l1.5 2.2.6-2-.9-.6z"/><path class="st55" d="M38.5 40.1l-2.2 1.3 1.9.7.7-.9z"/><path class="st54" d="M36.8 41.6l-2.3 1.3 2 .7.7-.9z"/><path class="st55" d="M38.2 41.3L36 42.6l1.9.7.7-.9z"/><path class="st54" d="M33.2 27.2l2.5-1-.7 2h-1.1z"/><path class="st55" d="M36.2 41.2l.7-2.5 1.2 1.8-.7.9z"/><path class="st54" d="M34.4 27.7l2.4-1-.7 2H35z"/><path class="st55" d="M33.2 28.6l2.5-.9-.7 2h-1.1z"/><path class="st54" d="M37.5 27.4l-2.5-.9.7 1.9h1.1z"/><path class="st55" d="M38.6 28.4l-2.5-.9.7 1.9h1.1z"/><path class="st54" d="M36.3 27.9l-2.4-.9.6 1.9h1.2z"/><path class="st55" d="M37.5 28.9l-2.5-1 .7 2h1.1z"/><path class="st54" d="M33 28.8l2.4-1-.6 2h-1.1z"/><path class="st55" d="M31.9 29.7l2.4-.9-.6 2h-1.2z"/><path class="st54" d="M34.1 29.3l2.5-1-.7 2h-1.1z"/><path class="st55" d="M33 30.2l2.4-.9-.6 2h-1.1z"/><path class="st54" d="M37.2 29l-2.4-.9.6 1.9h1.2z"/><path class="st55" d="M38.4 30l-2.5-.9.7 1.9h1.1z"/><path class="st54" d="M37.1 42.7l-2.3 1.4 2 .6.7-.8z"/><path class="st55" d="M37.2 30.5l-2.4-1 .6 2h1.2z"/><path class="st54" d="M35.6 44.1l.8-2.5 1.1 1.7-.7.9z"/><path class="st55" d="M27.4 30.8l2.5-1-.7 2h-1.1z"/><path class="st54" d="M30.7 30l2.4-1-.6 2h-1.2z"/><path class="st55" d="M29.6 30.9L32 30l-.7 2h-1.1z"/><path class="st54" d="M38.4 40.9l-2.2 1.3 1.9.7.7-.9z"/><path class="st55" d="M34.9 30.7l-2.4-.9.6 1.9h1.1z"/><path class="st54" d="M36.9 30.8l-2.5-.9.7 1.9h1.1z"/><path class="st55" d="M33.8 31.2l-2.5-.9.7 1.9h1.1z"/><path class="st54" d="M29.3 31.1l2.5-1-.7 2H30z"/><path class="st55" d="M28.2 32.1l2.4-1-.6 2h-1.2z"/><path class="st54" d="M30.4 31.6l2.5-1-.7 2h-1.1z"/><path class="st55" d="M29.3 32.5l2.5-.9-.7 2H30z"/><path class="st54" d="M33.5 31.3l-2.4-.9.7 1.9h1.1z"/><path class="st55" d="M34.7 32.3l-2.5-.9.7 1.9H34z"/><path class="st54" d="M32.4 31.8l-2.4-.9.6 1.9h1.2z"/><path class="st55" d="M33.5 32.8l-2.4-.9.7 1.9h1.1z"/><path class="st54" d="M33.4 30.1l2.5-.9-.7 2h-1.1z"/><path class="st55" d="M28.1 34.6l2.4-1-.7 2h-1.1z"/><path class="st54" d="M34.6 30.6l2.4-.9-.7 2h-1.1z"/><path class="st55" d="M33.4 31.6l2.5-.9-.7 2h-1.1z"/><path class="st54" d="M37.7 30.4l-2.5-.9.7 1.9H37z"/><path class="st55" d="M38.8 31.4l-2.5-1 .7 2h1.1z"/><path class="st54" d="M38.2 32.9l-2.4-1 .6 2h1.2z"/><path class="st55" d="M37.7 31.9l-2.5-1 .7 2H37z"/><path class="st54" d="M33.2 31.7l2.4-.9-.6 2h-1.1z"/><path class="st55" d="M32.1 32.7l2.4-.9-.6 2h-1.2z"/><path class="st54" d="M34.3 32.2l2.5-.9-.7 2H35z"/><path class="st55" d="M33.2 33.2l2.4-.9-.6 2h-1.1z"/><path class="st54" d="M37.4 32l-2.4-.9.6 1.9h1.2z"/><path class="st55" d="M38.5 33l-2.4-1 .7 2h1.1z"/><path class="st54" d="M36.3 32.5l-2.4-1 .6 2h1.1z"/><path class="st55" d="M37.4 33.5l-2.4-1 .6 2h1.2z"/><path class="st54" d="M33.6 32.3l.9 2.4-1.9-.7v-1.1z"/><path class="st55" d="M32.7 31.1l.9 2.5-2-.7v-1.2z"/><path class="st54" d="M33.1 33.4l.9 2.4-2-.7.1-1.1z"/><path class="st55" d="M32.2 32.2l.8 2.5-1.9-.7v-1.1z"/><path class="st54" d="M33.3 36.5l1-2.4-2 .6v1.1z"/><path class="st55" d="M32.3 37.6l1-2.4-2 .6v1.1z"/><path class="st54" d="M32.8 35.3l1-2.4-2 .6v1.2z"/><path class="st55" d="M31.8 36.4l1-2.4-2 .6v1.2z"/><path class="st54" d="M32 32l.9 2.5-1.9-.8v-1.1z"/><path class="st55" d="M31.1 30.8l.9 2.5-2-.7v-1.1z"/><path class="st54" d="M31.5 33.1l.9 2.5-2-.7.1-1.2z"/><path class="st55" d="M30.6 32l.8 2.4-1.9-.7v-1.1z"/><path class="st54" d="M31.7 36.2l1-2.4-2 .6v1.1z"/><path class="st55" d="M30.7 37.3l1-2.4-2 .6v1.1z"/><path class="st54" d="M31.2 35.1l1-2.4-2 .6v1.1z"/><path class="st55" d="M30.2 36.2l1-2.4-2 .6v1.1z"/><path class="st54" d="M32.9 36.1l.8 2.5-1.9-.7v-1.1z"/><path class="st55" d="M31.9 35l.9 2.4-2-.7.1-1.1z"/><path class="st54" d="M32.3 37.2l.9 2.5-1.9-.7v-1.1z"/><path class="st55" d="M31.4 36.1l.9 2.5-2-.8v-1.1z"/><path class="st54" d="M32.5 40.3l1-2.4-2 .6v1.2z"/><path class="st55" d="M32.1 38.8l1-2.4-2 .6v1.1z"/><path class="st54" d="M34 36.3l1-2.4-2 .6v1.1z"/><path class="st55" d="M31 40.3l1-2.4-2 .6v1.1z"/><path class="st54" d="M34 37.8l.8 2.5-1.9-.7v-1.2z"/><path class="st55" d="M30.3 34.7l.9 2.5-2-.7.1-1.2z"/><path class="st54" d="M30.8 37l.8 2.4-1.9-.7v-1.1z"/><path class="st55" d="M29.8 35.8l.9 2.5-2-.7v-1.2z"/><path class="st54" d="M30.9 40.1l1-2.4-2 .6v1.1z"/><path class="st55" d="M29.9 41.2l1-2.4-2 .6v1.1z"/><path class="st54" d="M30.5 38.9l1-2.4-2 .6-.1 1.1z"/><path class="st55" d="M29.4 40l1-2.4-1.9.6-.1 1.1z"/><path class="st54" d="M30.7 32.4l.8 2.4-1.9-.7V33z"/><path class="st55" d="M29.7 31.2l.9 2.5-2-.7v-1.1z"/><path class="st54" d="M30.1 33.5L31 36l-1.9-.7v-1.2z"/><path class="st55" d="M29.2 32.3l.9 2.5-2-.7V33z"/><path class="st54" d="M30.3 36.6l1-2.4-2 .6v1.1z"/><path class="st55" d="M29.3 37.7l1-2.4-2 .6V37z"/><path class="st54" d="M31.5 39.9l1-2.4-2 .6v1.1z"/><path class="st55" d="M28.8 36.6l1-2.5-2 .7v1.1z"/><path class="st54" d="M34.1 35.4l.9 4.5-2-1.2.1-2.1z"/><path class="st55" d="M28.1 31l.9 2.4-2-.7.1-1.1z"/><path class="st54" d="M28.5 33.2l.9 2.5-1.9-.7v-1.1z"/><path class="st55" d="M27.6 32.1l.9 2.4-2-.7v-1.1z"/><path class="st54" d="M28.7 36.3l1-2.4-2 .6v1.1z"/><path class="st55" d="M27.7 37.4l1-2.4-2 .6v1.1z"/><path class="st54" d="M28.2 35.2l1-2.4-1.9.6-.1 1.1z"/><path class="st55" d="M27.2 36.3l1-2.4-2 .6v1.1z"/><path class="st54" d="M29.9 36.2l.9 2.5-2-.7v-1.1z"/><path class="st55" d="M28.9 35.1l.9 2.5-2-.8.1-1.1z"/><path class="st54" d="M29.4 37.4l.8 2.4-1.9-.7V38z"/><path class="st55" d="M28.4 36.2l.9 2.5-2-.7v-1.2z"/><path class="st54" d="M29.5 40.5l1-2.5-2 .7v1.1z"/><path class="st55" d="M28.5 41.6l1-2.5-2 .7v1.1z"/><path class="st54" d="M36.8 35.3l1-2.4-2 .6v1.2z"/><path class="st55" d="M28 40.4l1-2.4-1.9.6-.1 1.1z"/><path class="st54" d="M28.3 36l.9 2.4-2-.7v-1.1z"/><path class="st55" d="M27.3 34.8l.9 2.5-2-.7.1-1.2z"/><path class="st54" d="M27.8 37.1l.8 2.4-1.9-.7v-1.1z"/><path class="st55" d="M26.8 35.9l.9 2.5-2-.7.1-1.1z"/><path class="st54" d="M27.9 40.2l1-2.4-2 .6v1.1z"/><path class="st55" d="M26.9 41.3l1-2.4-2 .6v1.1z"/><path class="st54" d="M27.5 39l1-2.4-2 .6-.1 1.2z"/><path class="st55" d="M26.4 40.1l1-2.4-1.9.6-.1 1.2zM19.3 36.1l2.4-1-.6 2H20z"/><path class="st54" d="M21.5 35.6l2.5-1-.7 2h-1.1z"/><path class="st55" d="M20.4 36.6l2.5-1-.7 2h-1.1zM25.8 36.3l-2.5-.9.7 2h1.1z"/><path class="st54" d="M23.5 35.8l-2.4-.9.6 2h1.2z"/><path class="st55" d="M24.6 36.8l-2.4-.9.7 1.9H24z"/><path class="st54" d="M20.2 36.7l2.4-.9-.6 1.9h-1.2z"/><path class="st55" d="M19.1 37.7l2.4-1-.7 2h-1.1z"/><path class="st54" d="M21.3 37.2l2.5-1-.7 2H22z"/><path class="st55" d="M20.2 38.2l2.4-1-.6 2h-1.2zM25.5 37.9l-2.4-.9.7 2h1.1z"/><path class="st54" d="M23.3 37.4l-2.5-.9.7 2h1.1z"/><path class="st55" d="M24.4 38.4l-2.4-.9.6 1.9h1.2z"/><path class="st54" d="M24.3 35.8l2.4-1-.6 2H25z"/><path class="st55" d="M23.2 36.8l2.4-1-.6 2h-1.2z"/><path class="st54" d="M25.4 36.3l2.5-1-.7 2h-1.1z"/><path class="st55" d="M24.3 37.2l2.4-.9-.6 2H25z"/><path class="st54" d="M28.5 36l-2.4-.9.6 1.9h1.2z"/><path class="st55" d="M29.7 37l-2.5-.9.7 1.9H29z"/><path class="st54" d="M27.4 36.5l-2.4-.9.6 1.9h1.1z"/><path class="st55" d="M28.5 37.5l-2.4-.9.6 1.9h1.2z"/><path class="st54" d="M24.1 37.4l2.4-1-.7 2h-1.1z"/><path class="st55" d="M22.9 38.4l2.5-1-.7 2h-1.1z"/><path class="st54" d="M25.2 37.9l2.4-1-.6 2h-1.2z"/><path class="st55" d="M24.1 38.8l2.4-.9-.7 2h-1.1z"/><path class="st54" d="M28.3 37.6l-2.5-.9.7 1.9h1.1z"/><path class="st55" d="M29.4 38.6l-2.4-.9.6 1.9h1.2z"/><path class="st54" d="M22.6 38.4l-2.5-1 .7 2h1.1z"/><path class="st55" d="M28.3 39.1l-2.5-.9.7 1.9h1.1z"/><path class="st54" d="M20.6 38.1l2.5-1-.7 2h-1.1z"/><path class="st55" d="M18.5 39.4l2.4-1-.6 2h-1.2z"/><path class="st54" d="M21.7 38.6l2.5-1-.7 2h-1.1z"/><path class="st55" d="M20.6 39.6l2.5-1-.7 2h-1.1z"/><path class="st54" d="M24.8 38.3l-2.4-.9.7 2h1.1z"/><path class="st55" d="M26 39.3l-2.5-.9.7 1.9h1.1z"/><path class="st54" d="M27.9 39.4l-2.4-.9.6 1.9h1.2z"/><path class="st55" d="M24.8 39.8l-2.4-.9.7 1.9h1.1z"/><path class="st54" d="M20.4 39.7l2.4-1-.6 2H21z"/><path class="st55" d="M19.3 40.7l2.4-1-.7 2h-1.1z"/><path class="st54" d="M21.5 40.2l2.4-1-.6 2h-1.1z"/><path class="st55" d="M20.4 41.2l2.4-1-.6 2H21z"/><path class="st54" d="M24.6 39.9l-2.4-.9.6 2h1.1z"/><path class="st55" d="M25.7 40.9l-2.4-.9.6 1.9h1.2z"/><path class="st54" d="M23.5 40.4l-2.5-.9.7 1.9h1.1z"/><path class="st55" d="M24.6 41.4l-2.4-.9.6 1.9h1.1z"/><path class="st54" d="M24.5 38.8l2.4-1-.6 2h-1.1z"/><path class="st55" d="M19.1 43.2l2.5-1-.7 2h-1.1z"/><path class="st54" d="M25.6 39.2l2.5-.9-.7 2h-1.1z"/><path class="st55" d="M24.5 40.2l2.4-.9-.6 2h-1.1z"/><path class="st54" d="M28.7 39l-2.4-.9.6 1.9h1.2z"/><path class="st55" d="M29.8 40l-2.4-1 .7 2h1.1z"/><path class="st54" d="M29.3 41.5l-2.5-1 .7 2h1.1z"/><path class="st55" d="M28.7 40.5l-2.4-1 .6 2h1.2z"/><path class="st54" d="M24.3 40.4l2.4-1-.7 2h-1.1z"/><path class="st55" d="M23.1 41.3l2.5-.9-.7 2h-1.1z"/><path class="st54" d="M25.4 40.8l2.4-.9-.6 2H26z"/><path class="st55" d="M24.3 41.8l2.4-.9-.7 2h-1.1z"/><path class="st54" d="M28.5 40.6l-2.5-.9.7 1.9h1.1z"/><path class="st55" d="M29.6 41.6l-2.4-1 .6 2H29z"/><path class="st54" d="M27.4 41.1l-2.5-.9.7 1.9h1.1z"/><path class="st55" d="M28.5 42.1l-2.5-1 .7 2h1.1z"/><path class="st54" d="M24.7 40.9l.9 2.4-2-.7.1-1.1z"/><path class="st55" d="M23.8 39.7l.8 2.5-1.9-.7v-1.1z"/><path class="st54" d="M24.2 42l.9 2.5-2-.8v-1.1z"/><path class="st55" d="M23.2 40.8l.9 2.5-1.9-.7v-1.1z"/><path class="st54" d="M24.4 45.1l1-2.4-2 .6-.1 1.1z"/><path class="st55" d="M23.3 46.2l1-2.4-1.9.6-.1 1.1z"/><path class="st54" d="M23.9 44l1-2.5-2 .6v1.2z"/><path class="st55" d="M22.9 45.1l1-2.5-2 .6v1.2z"/><path class="st54" d="M23.1 40.6l.9 2.5-2-.7.1-1.2z"/><path class="st55" d="M22.2 39.4l.8 2.5-1.9-.7v-1.1z"/><path class="st54" d="M22.6 41.7l.9 2.5-2-.7v-1.2z"/><path class="st55" d="M21.6 40.6l.9 2.4-1.9-.7v-1.1z"/><path class="st54" d="M22.8 44.8l1-2.4-2 .6-.1 1.1z"/><path class="st55" d="M21.7 45.9l1-2.4-1.9.6-.1 1.1z"/><path class="st54" d="M22.3 43.7l1-2.4-2 .6V43z"/><path class="st55" d="M21.3 44.8l1-2.4-2 .6v1.1z"/><path class="st54" d="M28.6 30.1l.9 2.4-2-.7v-1.1z"/><path class="st55" d="M34 45.3l2.5.8-1.8 1.1-.8-.7z"/><path class="st54" d="M28.1 31.2l.8 2.4-1.9-.7v-1.1z"/><path class="st55" d="M22.5 44.7l.8 2.5-1.9-.7v-1.2z"/><path class="st54" d="M28.2 34.3l1-2.4-2 .6v1.1z"/><path class="st55" d="M23.2 47.4l1-2.4-2 .6v1.1z"/><path class="st54" d="M25.1 44.9l1-2.4-2 .6v1.1z"/><path class="st55" d="M22.1 48.9l1-2.4-2 .6v1.1z"/><path class="st54" d="M29.7 31.8l.8 2.4-1.9-.7v-1.1z"/><path class="st55" d="M21.4 43.3l.9 2.5-2-.7v-1.2z"/><path class="st54" d="M21.8 45.6l.9 2.4-2-.7.1-1.1z"/><path class="st55" d="M20.9 44.4l.8 2.5-1.9-.7v-1.1z"/><path class="st54" d="M22 48.7l1-2.4-2 .6V48z"/><path class="st55" d="M21 49.8l1-2.4-2 .6v1.1z"/><path class="st54" d="M21.5 47.5l1-2.4-2 .6v1.2z"/><path class="st55" d="M20.5 48.6l1-2.4-2 .6V48z"/><path class="st54" d="M21.7 41l.9 2.5-2-.8.1-1.1z"/><path class="st55" d="M20.8 39.8l.8 2.5-1.9-.7v-1.1z"/><path class="st54" d="M21.2 42.1l.9 2.5-2-.7v-1.2z"/><path class="st55" d="M20.2 41l.9 2.4-1.9-.7v-1.1z"/><path class="st54" d="M21.4 45.2l1-2.4-2 .6-.1 1.1z"/><path class="st55" d="M20.3 46.3l1-2.4-1.9.6-.1 1.1z"/><path class="st54" d="M22.6 48.5l1-2.4-2 .6v1.1z"/><path class="st55" d="M19.9 45.2l1-2.4-2 .6v1.1z"/><path class="st54" d="M29.9 29.3l.8 4.6-2-1.3.1-2.1zM19.8 44.9l1-2.4-2 .6v1.1zM20.9 44.9l.9 2.4-1.9-.7v-1.1z"/><path class="st55" d="M20 43.7l.9 2.5-2-.7v-1.2z"/><path class="st54" d="M20.4 46l.9 2.4-2-.7.1-1.1z"/><path class="st54" d="M20.6 49.1l1-2.4-2 .6v1.1zM27.8 44l1-2.5-2 .6v1.2z"/><path class="st55" d="M25.4 42.6l2.4-.9-.7 2H26z"/><path class="st54" d="M30.4 41.5l.9 2.4-2-.7.1-1.1z"/><path class="st54" d="M30.6 44.6l1-2.5-2 .6v1.2z"/><path class="st55" d="M29.6 45.7l1-2.5-2 .6V45z"/><path class="st54" d="M30.1 43.4l1-2.4-2 .6v1.1z"/><path class="st55" d="M29.1 44.5l1-2.4-2 .6v1.1z"/><path class="st54" d="M28.8 41.2l.9 2.4-2-.7.1-1.1z"/><path class="st54" d="M29 44.3l1-2.4-2 .6v1.1z"/><path class="st55" d="M28 45.4l1-2.4-2 .6v1.1z"/><path class="st55" d="M27.5 44.2l1-2.4-2 .6v1.2zM28.7 44.2l.9 2.4-2-.7v-1.1z"/><path class="st55" d="M29.4 46.9l1-2.4-2 .6v1.1z"/><path class="st54" d="M31.3 44.4l1-2.4-2 .6v1.1z"/><path class="st55" d="M28.3 48.4l1-2.4-2 .6v1.1zM27.6 42.8l.9 2.4-2-.7.1-1.1z"/><path class="st54" d="M28 45l.9 2.5-1.9-.7v-1.1z"/><path class="st55" d="M27.1 43.9l.9 2.4-2-.7v-1.1z"/><path class="st54" d="M28.2 48.1l1-2.4-2 .6v1.2z"/><path class="st55" d="M27.2 49.2l1-2.4-2 .6v1.2z"/><path class="st54" d="M27.8 47l1-2.4-2 .6-.1 1.1z"/><path class="st55" d="M26.7 48.1l1-2.4-1.9.6-.1 1.1z"/><path class="st54" d="M27.4 41.6l.9 2.4-1.9-.7v-1.1z"/><path class="st54" d="M27.6 44.7l1-2.4-2 .6V44z"/><path class="st55" d="M26.6 45.8l1-2.4-2 .6v1.1z"/><path class="st54" d="M28.8 48l1-2.5-2 .6v1.2z"/><path class="st55" d="M26.1 44.6l1-2.4-2 .6V44z"/><path class="st54" d="M25.8 41.3l.9 2.5-1.9-.7v-1.2z"/><path class="st54" d="M26 44.4l1-2.4-2 .6v1.1z"/><path class="st55" d="M25 45.5l1-2.4-2 .6v1.1z"/><path class="st54" d="M25.5 43.3l1-2.5-1.9.7-.1 1.1z"/><path class="st55" d="M24.5 44.4l1-2.5-2 .7v1.1z"/><path class="st54" d="M27.2 44.3l.8 2.5-1.9-.7v-1.2z"/><path class="st55" d="M26.2 43.2l.9 2.4-2-.7.1-1.1z"/><path class="st54" d="M26.7 45.4l.8 2.5-1.9-.7v-1.1z"/><path class="st55" d="M25.7 44.3l.9 2.4-2-.7v-1.1z"/><path class="st54" d="M26.8 48.5l1-2.4-2 .6v1.1z"/><path class="st55" d="M25.8 49.6l1-2.4-2 .6V49z"/><path class="st54" d="M29.3 42.2l1-2.4-1.9.6-.1 1.1z"/><path class="st55" d="M25.3 48.5l1-2.4-1.9.6-.1 1.1z"/><path class="st54" d="M25.6 44l.9 2.5-2-.7v-1.1z"/><path class="st55" d="M24.6 42.9l.9 2.5-2-.8.1-1.1z"/><path class="st54" d="M25.1 45.2l.8 2.4-1.9-.7v-1.1z"/><path class="st55" d="M24.1 44l.9 2.5-2-.7.1-1.2z"/><path class="st54" d="M25.2 48.3l1-2.5-2 .6v1.2z"/><path class="st55" d="M24.2 49.4l1-2.5-2 .6v1.2z"/><path class="st54" d="M24.8 47.1l1-2.4-2 .6-.1 1.1z"/><path class="st55" d="M23.7 48.2l1-2.4-1.9.6-.1 1.1zM33.6 34.5l2.5-1-.7 2h-1.1z"/><path class="st54" d="M38.7 33.3l.9 2.4-2-.7v-1.1z"/><path class="st54" d="M38.9 36.4l1-2.4-2 .6-.1 1.1z"/><path class="st55" d="M37.8 37.5l1-2.4-1.9.6-.1 1.1z"/><path class="st54" d="M38.4 35.2l1-2.4-2 .6v1.2z"/><path class="st55" d="M37.4 36.3l1-2.4-2 .6v1.2z"/><path class="st54" d="M37.1 33l.9 2.5-2-.7v-1.2z"/><path class="st54" d="M37.3 36.1l1-2.4-2 .6v1.1z"/><path class="st55" d="M36.3 37.2l1-2.4-2 .6-.1 1.1z"/><path class="st55" d="M35.8 36.1l1-2.4-2 .6v1.1zM37 36l.8 2.4-1.9-.7v-1.1z"/><path class="st55" d="M37.7 38.7l1-2.4-2 .6V38z"/><path class="st54" d="M39.6 36.2l1-2.4-2 .6v1.1z"/><path class="st55" d="M36.6 40.2l1-2.4-2 .6v1.1zM35.9 34.6l.9 2.5-2-.7v-1.2z"/><path class="st54" d="M36.3 36.9l.9 2.4-2-.7.1-1.1z"/><path class="st55" d="M35.4 35.7l.8 2.5-1.9-.7v-1.2z"/><path class="st54" d="M36.5 40l1-2.5-2 .7v1.1z"/><path class="st55" d="M35.5 41.1l1-2.5-2 .7v1.1z"/><path class="st54" d="M36 38.8l1-2.4-2 .6v1.1z"/><path class="st55" d="M35 39.9l1-2.4-2 .6v1.1z"/><path class="st54" d="M35.7 33.4l.9 2.5-2-.7.1-1.2z"/><path class="st54" d="M35.9 36.5l1-2.4-2 .6v1.1z"/><path class="st55" d="M34.9 37.6l1-2.4-2 .6-.1 1.1z"/><path class="st54" d="M37.1 39.8l1-2.4-2 .6v1.1z"/><path class="st55" d="M34.4 36.5l1-2.5-2 .7v1.1z"/><path class="st54" d="M34.1 33.1l.9 2.5-2-.7.1-1.1z"/><path class="st54" d="M34.3 36.2l1-2.4-2 .6v1.1z"/><path class="st55" d="M33.3 37.3l1-2.4-2 .6-.1 1.1z"/><path class="st54" d="M33.8 35.1l1-2.4-2 .6v1.1z"/><path class="st55" d="M32.8 36.2l1-2.4-2 .6v1.1z"/><path class="st54" d="M35.4 36.1l.9 2.5-1.9-.7v-1.1z"/><path class="st55" d="M34.5 35l.9 2.5-2-.8v-1.1z"/><path class="st54" d="M34.9 37.3l.9 2.4-2-.7.1-1.1z"/><path class="st55" d="M34 36.1l.8 2.5-1.9-.7v-1.2z"/><path class="st54" d="M35.1 40.4l1-2.5-2 .6v1.2z"/><path class="st55" d="M34.1 41.5l1-2.5-2 .6v1.2z"/><path class="st55" d="M33.6 40.3l1-2.4-2 .6v1.1z"/><path class="st54" d="M33.9 35.9l.8 2.4-1.9-.7v-1.1z"/><path class="st55" d="M32.9 34.7l.9 2.5-2-.7v-1.2z"/><path class="st54" d="M33.3 37l.9 2.4-1.9-.7v-1.1z"/><path class="st55" d="M32.4 35.8l.8 2.5-1.9-.7v-1.1z"/><path class="st54" d="M33.5 40.1l1-2.4-2 .6v1.1z"/><path class="st55" d="M32.5 41.2l1-2.4-2 .6v1.1z"/><path class="st54" d="M33 38.9l1-2.4-2 .6v1.2z"/><path class="st55" d="M32 40l1-2.4-2 .6v1.2z"/><path class="st54" d="M23.6 24.6l2.4-.9-.7 1.9h-1.1z"/><path class="st55" d="M22.4 25.6l2.5-1-.7 2h-1.1z"/><path class="st54" d="M24.7 25.1l2.4-.9-.6 1.9h-1.2z"/><path class="st55" d="M23.6 26.1l2.4-1-.7 2h-1.1z"/><path class="st54" d="M27.8 24.8l-2.5-.9.7 2h1.1z"/><path class="st55" d="M28.9 25.8l-2.4-.9.6 2h1.1z"/><path class="st54" d="M26.6 25.3l-2.4-.9.7 2H26z"/><path class="st55" d="M27.8 26.3l-2.5-.9.7 2h1.1z"/><path class="st54" d="M23.3 26.2l2.5-.9-.7 1.9H24z"/><path class="st55" d="M22.2 27.2l2.4-1-.6 2h-1.2z"/><path class="st54" d="M24.4 26.7l2.5-.9-.7 1.9h-1.1z"/><path class="st55" d="M23.3 27.7l2.5-1-.7 2H24z"/><path class="st54" d="M20.6 28.1l1.5 2.2.6-2-1-.6z"/><path class="st55" d="M28.7 27.4l-2.5-.9.7 2H28z"/><path class="st54" d="M26.4 26.9L24 26l.6 2h1.2z"/><path class="st55" d="M27.5 27.9l-2.4-.9.7 2h1.1z"/><path class="st54" d="M27.4 25.3l2.5-1-.7 2h-1.1z"/><path class="st55" d="M26.3 26.3l2.4-1-.6 2H27z"/><path class="st54" d="M28.6 25.8l2.4-1-.7 2h-1.1z"/><path class="st55" d="M27.4 26.8l2.5-1-.7 2h-1.1z"/><path class="st54" d="M31.7 25.5l-2.5-.9.7 2H31z"/><path class="st55" d="M32.8 26.5l-2.5-.9.7 1.9h1.1z"/><path class="st54" d="M30.5 26l-2.4-.9.6 1.9h1.2z"/><path class="st55" d="M31.7 27l-2.5-.9.7 1.9H31z"/><path class="st54" d="M27.2 26.9l2.4-1-.6 2h-1.1z"/><path class="st55" d="M26.1 27.9l2.4-1-.6 2h-1.2z"/><path class="st54" d="M28.3 27.4l2.5-1-.7 2H29z"/><path class="st55" d="M27.2 28.4l2.4-1-.6 2h-1.1z"/><path class="st54" d="M31.4 27.1l-2.4-.9.6 2h1.2z"/><path class="st55" d="M32.5 28.1l-2.4-.9.7 1.9h1.1z"/><path class="st54" d="M25.7 27.9l-2.4-1 .6 2h1.2z"/><path class="st55" d="M31.4 28.6l-2.4-.9.6 1.9h1.2z"/><path class="st54" d="M23.7 27.6l2.5-1-.7 2h-1.1z"/><path class="st55" d="M21.6 28.9l2.4-1-.6 2h-1.1z"/><path class="st54" d="M24.9 28.1l2.4-1-.6 2h-1.2z"/><path class="st55" d="M23.7 29.1l2.5-1-.7 2h-1.1z"/><path class="st54" d="M28 27.8l-2.5-.9.7 2h1.1z"/><path class="st55" d="M29.1 28.8l-2.4-.9.6 1.9h1.1z"/><path class="st54" d="M31.1 28.9l-2.5-.9.7 1.9h1.1z"/><path class="st55" d="M28 29.3l-2.5-.9.7 1.9h1.1z"/><path class="st54" d="M23.5 29.2l2.5-1-.7 2h-1.1z"/><path class="st55" d="M22.4 30.2l2.4-1-.6 2H23z"/><path class="st54" d="M24.6 29.7l2.5-1-.7 2h-1.1z"/><path class="st55" d="M23.5 30.7l2.5-1-.7 2h-1.1z"/><path class="st54" d="M27.7 29.4l-2.4-.9.7 2h1.1z"/><path class="st55" d="M28.9 30.4l-2.5-.9.7 1.9h1.1z"/><path class="st54" d="M26.6 29.9l-2.4-.9.6 2H26z"/><path class="st55" d="M27.7 30.9l-2.4-.9.7 1.9h1.1z"/><path class="st54" d="M27.6 28.3l2.5-1-.7 2h-1.1z"/><path class="st54" d="M28.8 28.8l2.4-1-.7 2h-1.1z"/><path class="st55" d="M27.6 29.7l2.5-.9-.7 2h-1.1z"/><path class="st54" d="M31.8 28.5l-2.4-.9.7 1.9h1.1z"/><path class="st55" d="M33 29.5l-2.5-.9.7 1.9h1.1z"/><path class="st54" d="M32.4 31L30 30l.6 2h1.2z"/><path class="st55" d="M31.8 30l-2.4-1 .7 2h1.1z"/><path class="st54" d="M27.4 29.9l2.4-1-.6 2H28z"/><path class="st55" d="M26.3 30.8l2.4-.9-.7 2h-1.1z"/><path class="st54" d="M28.5 30.4l2.5-1-.7 2h-1.1z"/><path class="st55" d="M27.4 31.3l2.4-.9-.6 2H28z"/><path class="st54" d="M31.6 30.1l-2.4-.9.6 1.9H31z"/><path class="st55" d="M32.7 31.1l-2.4-.9.7 1.9h1.1z"/><path class="st54" d="M30.5 30.6l-2.5-.9.7 1.9h1.1z"/><path class="st55" d="M31.6 31.6l-2.4-1 .6 2H31z"/><path class="st54" d="M27.8 30.4l.9 2.4-1.9-.7V31z"/><path class="st55" d="M26.9 29.2l.9 2.5-2-.7v-1.1z"/><path class="st55" d="M26.4 30.3l.8 2.5-1.9-.7V31z"/><path class="st54" d="M27 33.5l1-2.5-2 .7v1.1z"/><path class="st54" d="M26.2 30.1l.9 2.5-1.9-.7v-1.2z"/><path class="st55" d="M25.3 29l.9 2.4-2-.7v-1.1z"/><path class="st54" d="M25.7 31.2l.9 2.5-2-.7.1-1.1z"/><path class="st55" d="M24.8 30.1l.8 2.4-1.9-.7v-1.1z"/><path class="st54" d="M25.4 33.2l1-2.4-2 .6v1.1z"/><path class="st54" d="M24.8 30.5l.9 2.5-1.9-.7v-1.2z"/><path class="st55" d="M23.9 29.4l.9 2.4-2-.7V30z"/><path class="st55" d="M23.4 30.5l.8 2.4-1.9-.7v-1.1z"/><path class="st55" d="M22.3 29.1l.9 2.4-2-.7v-1.1z"/><path class="st55" d="M21.8 30.2l.9 2.5-2-.8v-1.1z"/><path class="st54" d="M22.4 33.3l1-2.4-2 .6v1.1zM31 33.5l1-2.5-2 .7-.1 1.1z"/><path class="st55" d="M28.2 29.8l2.5-.9-.7 1.9h-1.1z"/><path class="st54" d="M30.5 29.3l2.4-.9-.6 1.9h-1.2z"/><path class="st55" d="M29.4 30.3l2.4-.9-.7 1.9H30z"/><path class="st54" d="M32.5 29.6l-2.5-1 .7 2h1.1z"/><path class="st55" d="M33.6 30.5l-2.5-.9.7 2h1.1z"/><path class="st54" d="M29.1 30.4l2.5-.9-.7 1.9h-1.1z"/><path class="st55" d="M28 31.4l2.4-.9-.6 1.9h-1.1z"/><path class="st54" d="M30.2 30.9l2.5-.9-.7 1.9h-1.1z"/><path class="st55" d="M29.1 31.9l2.5-.9-.7 1.9h-1.1zM34.5 31.6l-2.5-.9.7 2h1.1z"/><path class="st54" d="M32.2 31.2l-2.4-1 .6 2h1.2z"/><path class="st55" d="M33.3 32.1l-2.4-.9.7 2h1.1zM32.1 30.5l2.4-1-.6 2h-1.1z"/><path class="st54" d="M31.5 32.1l-2.4-.9.6 1.9h1.2z"/><path class="st54" d="M29.6 31.8l2.4-.9-.7 1.9h-1.1z"/><path class="st54" d="M33.8 32l-2.5-.9.7 2h1.1z"/><path class="st55" d="M27.6 31.2l.9 2.5-2-.7.1-1.1z"/><path class="st54" d="M36.7 55.1l-2.2-1.5 2-.5.6.9z"/><path class="st55" d="M38.1 55.5L36 54l1.9-.6.7.9z"/><path class="st54" d="M36.4 53.9l-2.1-1.5 2-.6.6 1z"/><path class="st55" d="M37.9 54.3l-2.2-1.5 2-.6.7.9z"/><path class="st54" d="M34.5 51.5l.6 2.5 1.2-1.6-.6-1z"/><path class="st55" d="M34.6 50l.6 2.5 1.3-1.6-.6-.9z"/><path class="st54" d="M35.5 52.1l.6 2.6 1.3-1.7-.7-.9z"/><path class="st55" d="M35.7 50.6l.6 2.6 1.2-1.7-.6-.9z"/><path class="st54" d="M38.1 54.4L36 52.9l1.9-.6.7 1z"/><path class="st55" d="M39.6 54.8l-2.2-1.5 2-.6.6.9z"/><path class="st54" d="M37.9 53.2l-2.2-1.5 2-.6.7 1z"/><path class="st55" d="M39.3 53.6l-2.1-1.5 2-.6.6.9z"/><path class="st54" d="M41.2 55.5l1-2.4-2 .6v1.1z"/><path class="st55" d="M36.1 49.3l.6 2.5 1.3-1.6-.7-1z"/><path class="st54" d="M37 51.4l.6 2.6 1.2-1.7-.6-.9z"/><path class="st55" d="M37.1 49.9l.6 2.6 1.3-1.7-.6-.9z"/><path class="st54" d="M35 51.5L32.9 50l2-.5.6.9z"/><path class="st55" d="M36.5 51.9l-2.2-1.5 2-.6.6 1z"/><path class="st54" d="M34.8 50.3l-2.2-1.5 2-.5.7.9z"/><path class="st55" d="M36.2 50.7l-2.1-1.5 2-.6.6 1z"/><path class="st54" d="M32.8 47.9l.6 2.5 1.3-1.6-.7-.9z"/><path class="st55" d="M33 46.4l.6 2.6 1.3-1.7-.7-.9z"/><path class="st54" d="M33.9 48.6l.6 2.5 1.2-1.7-.6-.9z"/><path class="st55" d="M34 47.1l.7 2.5 1.2-1.6-.6-1z"/><path class="st54" d="M36.5 50.8l-2.2-1.5 2-.5.6.9z"/><path class="st55" d="M37.9 51.2l-2.1-1.5 2-.6.6 1z"/><path class="st54" d="M36.2 49.6l-2.1-1.5 2-.6.6 1z"/><path class="st55" d="M37.7 50l-2.2-1.5 2-.6.7.9z"/><path class="st54" d="M34.3 47.2l.6 2.5 1.2-1.6-.6-1z"/><path class="st55" d="M34.5 45.7l.6 2.5 1.2-1.6-.6-.9z"/><path class="st54" d="M38.1 51.5l.7 2.5 1.2-1.7-.6-.9z"/><path class="st55" d="M35.5 46.4l.6 2.5 1.3-1.7-.7-.9z"/><path class="st54" d="M39 53.3l-2.1-1.5 1.9-.6.7.9z"/><path class="st55" d="M41.3 54.3l-2.2-1.5 2-.6.7 1z"/><path class="st54" d="M38.8 52l-2.2-1.4 2-.6.7.9z"/><path class="st55" d="M40.2 52.4l-2.1-1.5 2-.5.6.9z"/><path class="st54" d="M36.8 49.6l.6 2.6 1.3-1.7-.7-.9z"/><path class="st55" d="M37 48.1l.6 2.6 1.2-1.7-.6-.9z"/><path class="st54" d="M36 46.5l.6 2.5 1.2-1.6-.6-1z"/><path class="st55" d="M38 48.8l.6 2.5 1.3-1.6-.6-.9z"/><path class="st54" d="M40.5 52.5l-2.2-1.4 2-.6.6.9z"/><path class="st55" d="M41.9 52.9l-2.1-1.5 1.9-.5.7.9z"/><path class="st54" d="M40.2 51.3l-2.1-1.4 2-.6.6.9z"/><path class="st55" d="M41.7 51.7l-2.2-1.5 2-.6.7 1z"/><path class="st54" d="M38.3 48.9l.6 2.6 1.2-1.7-.6-.9z"/><path class="st55" d="M38.4 47.4l.7 2.6 1.2-1.7-.6-.9z"/><path class="st54" d="M39.3 49.6l.6 2.5 1.3-1.6-.7-1z"/><path class="st55" d="M39.5 48.1l.6 2.5 1.2-1.6-.6-1z"/><path class="st54" d="M37.4 49.7l-2.2-1.5 2-.6.6.9z"/><path class="st54" d="M37.1 48.5L35 47l2-.6.6.9z"/><path class="st55" d="M38.6 48.8l-2.2-1.4 2-.6.7.9z"/><path class="st54" d="M35.2 46.1l.6 2.5 1.2-1.7-.6-.9z"/><path class="st55" d="M35.3 44.6l.7 2.5 1.2-1.6-.6-1z"/><path class="st54" d="M36.9 44.2l.6 2.5 1.2-1.6-.6-1z"/><path class="st55" d="M36.4 45.2l.6 2.6 1.3-1.7-.7-.9z"/><path class="st54" d="M38.8 49l-2.1-1.5 2-.6.6.9z"/><path class="st55" d="M40.3 49.3l-2.2-1.5 2-.5.6.9z"/><path class="st54" d="M38.6 47.8l-2.2-1.5 2-.6.7.9z"/><path class="st55" d="M40 48.1l-2.1-1.5 2-.5.6.9z"/><path class="st54" d="M36.6 45.3l.6 2.6 1.3-1.7-.7-.9z"/><path class="st55" d="M36.8 43.9l.6 2.5 1.3-1.7-.7-.9z"/><path class="st54" d="M37.7 46l.6 2.5 1.2-1.6-.6-1z"/><path class="st55" d="M37.8 44.5l.7 2.5 1.2-1.6-.6-.9z"/><path class="st54" d="M39 48.3l1.5-2.1.6 2-1 .6z"/><path class="st55" d="M38.6 49.7l1.5-2.1.5 2-.9.6z"/><path class="st54" d="M22.1 50.1l.9 2.5-1.9-.7v-1.1z"/><path class="st55" d="M39.8 49.5l1.5-2.1.6 2-1 .6z"/><path class="st54" d="M22.3 53.2l1-2.4-2 .6v1.1z"/><path class="st55" d="M21.3 54.3l1-2.4-2 .6v1.1z"/><path class="st54" d="M42 47.2l-2.6.6 1.7 1.3.9-.7z"/><path class="st55" d="M20.8 53.2l1-2.4-2 .6v1.1z"/><path class="st54" d="M39.7 49.8l1.5-2.2.5 2.1-.9.6z"/><path class="st55" d="M39.3 51.2l1.5-2.1.5 2-.9.6z"/><path class="st54" d="M40.9 49.6l1.5-2.2.5 2.1-.9.6z"/><path class="st55" d="M40.5 51l1.5-2.1.5 2-.9.6z"/><path class="st54" d="M20.7 53l1-2.5-2 .6v1.2z"/><path class="st55" d="M19.7 54.1l1-2.5-2 .6v1.2z"/><path class="st54" d="M42.7 48.7l-2.6.5 1.6 1.3 1-.6zM21.9 52.9l.9 2.4-2-.7v-1.1z"/><path class="st55" d="M20.9 51.7l.9 2.5-1.9-.7v-1.1z"/><path class="st54" d="M21.4 54l.8 2.4-1.9-.7v-1.1z"/><path class="st55" d="M20.4 52.8l.9 2.5-2-.7.1-1.1z"/><path class="st54" d="M21.5 57.1l1-2.4-2 .6v1.1z"/><path class="st55" d="M21.2 55.5l1-2.4-2 .6-.1 1.2z"/><path class="st54" d="M23 53l1-2.4-2 .6v1.2z"/><path class="st55" d="M20.1 57.1l1-2.5-2 .6-.1 1.2z"/><path class="st54" d="M23 54.6l.9 2.4-2-.7v-1.1zM19.9 56.8l1-2.4-2 .6v1.1zM40.8 50.7l1.5-2.1.5 2-.9.6z"/><path class="st55" d="M40.4 52.1l1.5-2.1.5 2-.9.6z"/><path class="st55" d="M41.6 51.9l1.5-2.1.6 2-1 .6z"/><path class="st54" d="M20.5 56.6l1-2.4-2 .6v1.1zM23.2 52.1l.8 4.6-2-1.3.1-2.1z"/><path class="st55" d="M41.1 53.6l1.5-2.1.5 2-.9.6z"/><path class="st55" d="M42.3 53.4l1.5-2.1.5 2-.9.6z"/><path class="st54" d="M44.5 51.1l-2.6.5 1.6 1.3 1-.6zM39.8 44l-2.6.5 1.6 1.3 1-.6z"/><path class="st55" d="M38.3 48.3l-2.2-1.5 2-.6.7 1z"/><path class="st54" d="M36.6 46.7l-2.1-1.5 1.9-.5.7.9z"/><path class="st55" d="M38.1 47.1l-2.2-1.5 2-.6.6 1zM29.5 48.7l-2.4-1 .6 2h1.2z"/><path class="st54" d="M35.7 45l.6 2.5 1.3-1.7-.7-.9z"/><path class="st55" d="M35.9 43.5l.6 2.5 1.2-1.6-.6-1z"/><path class="st54" d="M38.3 47.2l-2.2-1.5 2-.5.7.9z"/><path class="st55" d="M39.7 47.6l-2.1-1.5 2-.6.6 1z"/><path class="st54" d="M38.1 46l-2.2-1.5 2-.5.6.9z"/><path class="st55" d="M39.5 46.4l-2.1-1.5 1.9-.6.7 1z"/><path class="st54" d="M21.2 51l1.5 2.2.6-2-.9-.7z"/><path class="st55" d="M36.3 42.1l.6 2.6 1.2-1.7-.6-.9z"/><path class="st54" d="M37.1 44.2l.7 2.6 1.2-1.7-.6-.9z"/><path class="st55" d="M37.3 42.8l.6 2.5 1.3-1.7-.7-.9z"/><path class="st54" d="M28.1 48.1l2.4-.9-.7 2h-1.1z"/><path class="st55" d="M36.7 44.7l-2.2-1.5 2-.5.6.9z"/><path class="st54" d="M29.2 48.6l2.4-.9-.6 1.9h-1.2z"/><path class="st55" d="M28.1 49.6l2.4-.9-.7 1.9h-1.1z"/><path class="st54" d="M32.3 48.4l-2.5-1 .7 2h1.1z"/><path class="st55" d="M33.4 49.4l-2.4-1 .6 2h1.2z"/><path class="st54" d="M31.2 48.9l-2.5-1 .7 2h1.1z"/><path class="st55" d="M32.3 49.8l-2.5-.9.7 2h1.1z"/><path class="st54" d="M27.8 49.7l2.5-.9-.7 2h-1.1z"/><path class="st55" d="M26.7 50.7l2.4-.9-.6 1.9h-1.1z"/><path class="st54" d="M29 50.2l2.4-.9-.7 1.9h-1.1z"/><path class="st55" d="M27.8 51.2l2.5-.9-.7 1.9h-1.1z"/><path class="st54" d="M32.1 50l-2.5-1 .7 2h1.1z"/><path class="st55" d="M33.2 51l-2.5-1 .7 2h1.1z"/><path class="st54" d="M38.3 44.3l.6 2.5 1.3-1.6-.7-1z"/><path class="st55" d="M32.1 51.4l-2.5-.9.7 2h1.1z"/><path class="st54" d="M39.2 46.1L37 44.6l2-.6.7 1z"/><path class="st55" d="M22.2 51.7l2.5-.9-.7 2h-1.1z"/><path class="st54" d="M25.5 50.9l2.4-.9-.6 2h-1.1z"/><path class="st55" d="M24.4 51.9l2.4-.9-.6 1.9H25z"/><path class="st54" d="M37 42.5l.6 2.5 1.3-1.7-.7-.9z"/><path class="st55" d="M29.7 51.7l-2.4-1 .6 2h1.2z"/><path class="st54" d="M31.7 51.8l-2.5-1 .7 2H31z"/><path class="st55" d="M28.6 52.2l-2.4-1 .6 2h1.1z"/><path class="st54" d="M24.1 52l2.5-.9-.7 2h-1.1z"/><path class="st55" d="M23 53l2.5-.9-.7 2h-1.1z"/><path class="st54" d="M25.3 52.5l2.4-.9-.6 2h-1.2z"/><path class="st55" d="M24.1 53.5l2.5-.9-.7 1.9h-1.1z"/><path class="st54" d="M28.4 52.3l-2.5-1 .7 2h1.1z"/><path class="st55" d="M29.5 53.3l-2.4-1 .6 2h1.1z"/><path class="st54" d="M27.2 52.8l-2.4-1 .7 2h1.1z"/><path class="st55" d="M28.4 53.8l-2.5-1 .7 2h1.1z"/><path class="st54" d="M28.3 51.1l2.4-.9-.7 1.9h-1.1z"/><path class="st55" d="M22.9 55.5l2.4-.9-.6 2h-1.2z"/><path class="st54" d="M29.4 51.6l2.4-.9-.6 1.9H30z"/><path class="st55" d="M28.3 52.6l2.4-1-.7 2h-1.1z"/><path class="st54" d="M32.5 51.4l-2.5-1 .7 2h1.1z"/><path class="st55" d="M33.6 52.3l-2.4-.9.6 2H33z"/><path class="st54" d="M33 53.8l-2.4-.9.7 2h1.1z"/><path class="st55" d="M32.5 52.8l-2.5-.9.7 2h1.1z"/><path class="st54" d="M28 52.7l2.5-.9-.7 1.9h-1.1z"/><path class="st55" d="M26.9 53.7l2.4-.9-.6 1.9h-1.1z"/><path class="st54" d="M29.1 53.2l2.5-.9-.7 1.9h-1.1z"/><path class="st55" d="M28 54.2l2.5-.9-.7 1.9h-1.1z"/><path class="st54" d="M32.2 53l-2.4-1 .7 2h1.1z"/><path class="st55" d="M33.4 53.9l-2.5-.9.7 2h1.1z"/><path class="st54" d="M31.1 53.4l-2.4-.9.6 2h1.2z"/><path class="st55" d="M32.2 54.4l-2.4-.9.7 2h1.1z"/><path class="st54" d="M28.5 53.2l.8 2.5-1.9-.7v-1.1z"/><path class="st55" d="M27.5 52.1l.9 2.4-2-.7.1-1.1z"/><path class="st54" d="M27.9 54.3l.9 2.5-1.9-.7V55z"/><path class="st55" d="M27 53.2l.9 2.5-2-.8v-1.1z"/><path class="st54" d="M28.1 57.4l1-2.4-2 .6v1.2z"/><path class="st55" d="M27.1 58.5l1-2.4-2 .6v1.2z"/><path class="st54" d="M27.7 56.3l1-2.4-2 .6-.1 1.1z"/><path class="st55" d="M26.6 57.4l1-2.4-1.9.6-.1 1.1z"/><path class="st54" d="M26.9 53l.9 2.4-2-.7v-1.1z"/><path class="st55" d="M25.9 51.8l.9 2.5-2-.7.1-1.2z"/><path class="st54" d="M26.4 54.1l.8 2.4-1.9-.7v-1.1z"/><path class="st55" d="M25.4 52.9l.9 2.5-2-.7v-1.2z"/><path class="st54" d="M26.5 57.2l1-2.4-2 .6v1.1z"/><path class="st55" d="M25.5 58.3l1-2.4-2 .6v1.1z"/><path class="st54" d="M26.1 56l1-2.4-2 .6-.1 1.1z"/><path class="st55" d="M25 57.1l1-2.4-1.9.6-.1 1.1z"/><path class="st54" d="M30.8 46.3l2.6-.1-1.3 1.7-1-.4z"/><path class="st55" d="M26.7 55.9l.9 2.5-1.9-.7v-1.1z"/><path class="st54" d="M31.7 47.1h2.6L33 48.7l-1-.4z"/><path class="st55" d="M30.3 47.7l2.6-.1-1.2 1.7-1.1-.4z"/><path class="st54" d="M34.7 47.9l-2-1.7v2.1l1 .4z"/><path class="st55" d="M33.1 47.8l-2-1.7v2.1l1 .4z"/><path class="st54" d="M28.8 57.3l1-2.4-2 .6v1.1z"/><path class="st55" d="M34.2 49.3l-2-1.7v2.1l1.1.4z"/><path class="st54" d="M32.7 45.8l2.6-.1-1.2 1.6L33 47z"/><path class="st55" d="M25.1 55.7l.9 2.4-1.9-.7v-1.1z"/><path class="st54" d="M30.9 48.6l2.7-.1-1.3 1.6-1.1-.3z"/><path class="st55" d="M29.6 49.1h2.6l-1.3 1.6-1.1-.4z"/><path class="st54" d="M34 49.4l-2-1.7-.1 2.1 1.1.3z"/><path class="st55" d="M34.7 50.7l-2-1.7v2.1l1 .3z"/><path class="st54" d="M32.7 49.5l-2-1.7v2.1l1.1.3z"/><path class="st55" d="M33.5 50.8l-2-1.7-.1 2.1 1.1.3z"/><path class="st54" d="M25.5 53.3l.9 2.5-2-.7V54z"/><path class="st55" d="M24.5 52.2l.9 2.5-2-.7.1-1.2z"/><path class="st54" d="M25 54.5l.8 2.4-1.9-.7v-1.1z"/><path class="st55" d="M24 53.3l.9 2.5-2-.7.1-1.2z"/><path class="st54" d="M25.1 57.6l1-2.4-2 .6v1.1z"/><path class="st55" d="M24.1 58.7l1-2.4-2 .6V58z"/><path class="st54" d="M33.9 48.7l-2-1.6v2l1.1.4z"/><path class="st55" d="M23.6 57.5l1-2.4-1.9.6-.1 1.1z"/><path class="st54" d="M30.4 44.9l4.7.6-1.8 1.4-2-.7z"/><path class="st55" d="M22.9 51.9l.9 2.5-1.9-.7v-1.1z"/><path class="st54" d="M23.4 54.2l.8 2.5-1.9-.8v-1.1z"/><path class="st55" d="M22.4 53l.9 2.5-2-.7.1-1.1z"/><path class="st54" d="M23.5 57.3l1-2.4-2 .6v1.1z"/><path class="st55" d="M22.5 58.4l1-2.4-2 .6v1.1z"/><path class="st54" d="M23.1 56.2l1-2.5-2 .6v1.2z"/><path class="st55" d="M22.1 57.3l1-2.5-2 .6-.1 1.2z"/><path class="st54" d="M30 49.2l2.6-.1-1.3 1.7-1-.4z"/><path class="st55" d="M23.7 56.1l.9 2.4-1.9-.7v-1.1z"/><path class="st54" d="M30.9 50l2.6-.1-1.3 1.7-1-.4z"/><path class="st55" d="M29.5 50.6l2.6-.1-1.2 1.7-1.1-.4z"/><path class="st54" d="M33.9 50.8l-2-1.7v2.1l1 .4z"/><path class="st55" d="M34.6 52.1l-2-1.7v2.1l1.1.4z"/><path class="st54" d="M31.6 56.3l1-2.4-2 .6v1.1z"/><path class="st55" d="M33.4 52.2l-2-1.7v2.1l1.1.4z"/><path class="st54" d="M29.2 50.6l2.7-.1-1.3 1.7-1.1-.4z"/><path class="st55" d="M22.2 55.8l.8 2.4-1.9-.7v-1.1z"/><path class="st54" d="M30.2 51.5l2.6-.1-1.3 1.6-1.1-.3z"/><path class="st55" d="M28.8 52l2.6-.1-1.3 1.7-1-.4z"/><path class="st54" d="M33.2 52.2l-2-1.6-.1 2 1.1.4z"/><path class="st55" d="M33.9 53.5l-2-1.6v2l1 .4z"/><path class="st54" d="M31.9 52.3l-2-1.6v2l1.1.4z"/><path class="st55" d="M32.7 53.6l-2-1.6v2l1 .4zM28.1 59.9l-.2-2.6 1.7 1.3-.3 1z"/><path class="st54" d="M28.3 57.6l-.2-2.6 1.7 1.3-.3 1z"/><path class="st55" d="M28.9 59l-.2-2.6 1.7 1.2-.3 1.1z"/><path class="st54" d="M28.5 61.7L31 61l-1.7-1.2-.9.7z"/><path class="st55" d="M30.3 53.8l-1.6 2.1h2l.4-1.1z"/><path class="st54" d="M29.1 55.8l-1.6 2.1h2.1l.3-1.1z"/><path class="st55" d="M30.4 55.1l-1.6 2h2.1l.3-1.1z"/><path class="st54" d="M19.1 56.7l2.5-.9-.7 2h-1.1z"/><path class="st54" d="M20.3 57.2l2.4-.9-.7 2h-1.1z"/><path class="st55" d="M29.3 54.8l-.2-2.6 1.7 1.2-.4 1.1z"/><path class="st54" d="M23.4 57l-2.5-1 .7 2h1.1z"/><path class="st55" d="M30.6 49.6L29 51.7h2.1l.3-1.1z"/><path class="st54" d="M22.2 57.5l-2.4-1 .6 2h1.2z"/><path class="st55" d="M30.8 50.9l-1.7 2h2.1l.4-1.1z"/><path class="st54" d="M29.3 55.1l-.1-2.6 1.6 1.2-.3 1.1z"/><path class="st55" d="M29.9 56.4l-.1-2.6 1.6 1.3-.3 1z"/><path class="st54" d="M30.1 54.2l-.1-2.7 1.6 1.3-.3 1z"/><path class="st55" d="M30.7 55.5l-.1-2.6 1.6 1.2-.3 1.1z"/><path class="st54" d="M30.8 51.1l-1.6 2.1 2.1-.1.3-1z"/><path class="st55" d="M32.1 50.3l-1.6 2.1h2l.4-1.1z"/><path class="st54" d="M29.8 56.8l-1.6 2h2.1l.3-1.1z"/><path class="st55" d="M32.2 51.6l-1.6 2h2.1l.3-1.1z"/><path class="st54" d="M28.9 58.6l-.1-2.6 1.7 1.2-.4 1.1z"/><path class="st55" d="M29.5 61l-.1-2.6 1.6 1.2-.3 1.1z"/><path class="st54" d="M29.8 57.7l-.2-2.7 1.7 1.3-.4 1z"/><path class="st55" d="M30.4 59l-.2-2.6 1.7 1.2-.4 1.1z"/><path class="st54" d="M30.5 54.6l-1.7 2.1 2.1-.1.3-1z"/><path class="st55" d="M31.7 53.8l-1.6 2.1h2.1l.3-1.1z"/><path class="st54" d="M32.4 52l-1.6 2.1 2.1-.1.3-1z"/><path class="st55" d="M31.9 55.1l-1.7 2h2.1l.3-1.1z"/><path class="st54" d="M30.4 59.3l-.2-2.6 1.7 1.2-.3 1.1z"/><path class="st55" d="M31 60.7l-.2-2.7 1.7 1.3-.3 1z"/><path class="st54" d="M31.2 58.4l-.1-2.7 1.6 1.3-.3 1z"/><path class="st55" d="M31.8 59.7l-.1-2.6 1.6 1.2-.3 1.1z"/><path class="st54" d="M31.9 55.3l-1.6 2.1 2.1-.1.3-1z"/><path class="st55" d="M33.2 54.6l-1.6 2h2l.4-1.1z"/><path class="st54" d="M32 56.6l-1.6 2h2.1l.3-1.1z"/><path class="st55" d="M33.3 55.8l-1.6 2h2.1l.3-1.1z"/><path class="st54" d="M30.8 55.1l-.2-2.6 1.7 1.2-.4 1.1z"/><path class="st55" d="M33.4 61.5l-.2-2.6 1.7 1.2-.4 1.1z"/><path class="st54" d="M31.6 54.2l-.2-2.7 1.7 1.3-.3 1z"/><path class="st55" d="M32.2 55.5l-.2-2.6 1.7 1.2-.3 1.1z"/><path class="st54" d="M32.3 51.1l-1.7 2.1 2.1-.1.4-1z"/><path class="st55" d="M33.5 50.4l-1.6 2H34l.3-1.1z"/><path class="st54" d="M34.8 51.3l-1.6 2.1h2l.4-1.1z"/><path class="st55" d="M33.7 51.6l-1.7 2h2.1l.4-1.1z"/><path class="st54" d="M32.2 55.8l-.1-2.6 1.6 1.2-.3 1.1z"/><path class="st55" d="M32.8 57.2l-.1-2.6 1.6 1.2-.3 1z"/><path class="st54" d="M33 54.9l-.1-2.6 1.6 1.2-.3 1.1z"/><path class="st55" d="M33.6 56.2l-.1-2.6 1.6 1.2-.3 1.1z"/><path class="st54" d="M33.7 51.8l-1.6 2.1h2.1l.3-1.1z"/><path class="st55" d="M35 51.1l-1.6 2h2.1l.3-1.1z"/><path class="st54" d="M33.9 53.1l-1.7 2h2.1l.3-1.1z"/><path class="st55" d="M35.1 52.3l-1.6 2h2.1l.3-1.1z"/><path class="st54" d="M32.8 55.5l2.7-.1-1.3 1.7-1.1-.4z"/><path class="st55" d="M31.5 56.1l2.6-.1-1.3 1.6-1.1-.3z"/><path class="st54" d="M33.8 56.4l2.6-.1-1.3 1.6-1.1-.4z"/><path class="st55" d="M32.4 56.9l2.6-.1-1.3 1.7-1-.4z"/><path class="st54" d="M36.8 57.1l-2-1.7-.1 2.1 1.1.4z"/><path class="st55" d="M37.5 58.4l-2-1.7v2.1l1 .4z"/><path class="st54" d="M35.5 57.2l-2-1.7v2.1l1.1.4z"/><path class="st55" d="M36.3 58.5l-2-1.7v2.1l1 .4z"/><path class="st54" d="M32.1 57l2.6-.1-1.2 1.6-1.1-.4z"/><path class="st55" d="M30.7 57.5l2.6-.1-1.2 1.7-1.1-.4z"/><path class="st54" d="M33 57.8l2.6-.1-1.2 1.6-1.1-.3z"/><path class="st55" d="M31.6 58.4l2.6-.1-1.2 1.6-1.1-.4z"/><path class="st54" d="M36 58.6l-2-1.7V59l1.1.3z"/><path class="st55" d="M36.8 59.9l-2-1.7-.1 2.1 1.1.3z"/><path class="st54" d="M34.8 58.7l-2-1.7v2.1l1 .3z"/><path class="st55" d="M35.5 60l-2-1.7v2.1l1.1.3z"/><path class="st54" d="M23.4 51l.9 2.5-2-.7.1-1.1z"/><path class="st55" d="M39.8 48l1.6-2.1.5 2-1 .6z"/><path class="st54" d="M22.9 52.1l.9 2.5-2-.7v-1.1z"/><path class="st55" d="M35.8 58.8l2.6-.1-1.2 1.7-1.1-.4z"/><path class="st54" d="M23 55.2l1-2.4-1.9.6-.1 1.2z"/><path class="st55" d="M38.6 58.9l-2-1.7v2.1l1.1.4z"/><path class="st54" d="M36.8 56.4l-2-1.7v2.1l1 .4z"/><path class="st55" d="M39.7 60.4l-2-1.6v2l1.1.4z"/><path class="st54" d="M24.5 52.7l.9 2.5-2-.7v-1.2z"/><path class="st55" d="M34.2 59.4l2.6-.1-1.3 1.7-1.1-.4z"/><path class="st54" d="M36.5 59.7l2.6-.1-1.3 1.7-1.1-.4z"/><path class="st55" d="M35.1 60.3l2.6-.1-1.3 1.6-1-.3z"/><path class="st54" d="M39.5 60.5l-2-1.7-.1 2.1 1.1.3z"/><path class="st55" d="M40.2 61.8l-2-1.7v2.1l1 .3z"/><path class="st54" d="M38.2 60.6l-2-1.7V61l1.1.3z"/><path class="st55" d="M39 61.9l-2-1.7v2.1l1 .3z"/><path class="st54" d="M32.1 58.4l2.6-.1-1.3 1.7-1.1-.4z"/><path class="st55" d="M30.7 59l2.6-.1-1.3 1.6-1-.3z"/><path class="st54" d="M33 59.2h2.6l-1.3 1.6-1.1-.4z"/><path class="st55" d="M31.6 59.8l2.6-.1-1.3 1.7-1-.4z"/><path class="st54" d="M36 60l-2-1.7-.1 2.1 1.1.4z"/><path class="st55" d="M36.7 61.3l-2-1.7v2.1l1.1.4z"/><path class="st54" d="M39.5 59.9l-2-1.7-.1 2.1 1.1.3z"/><path class="st55" d="M35.5 61.4l-2-1.7v2.1l1 .4z"/><path class="st54" d="M24.7 50.3l.8 4.5-1.9-1.2v-2.1z"/><path class="st55" d="M29.9 60.4l2.6-.1-1.2 1.7-1.1-.4z"/><path class="st54" d="M32.2 60.7l2.6-.1-1.2 1.6-1.1-.3z"/><path class="st55" d="M30.8 61.2h2.6l-1.2 1.6-1.1-.4z"/><path class="st54" d="M35.2 61.5l-2-1.7v2.1l1.1.3z"/><path class="st55" d="M36 62.8l-2-1.7-.1 2.1 1.1.3z"/><path class="st54" d="M34 61.6l-2-1.7v2l1 .4z"/><path class="st55" d="M34.7 62.9l-2-1.7v2l1.1.4z"/><path class="st54" d="M35.5 60.3l2.6-.1-1.2 1.7-1.1-.4z"/><path class="st55" d="M34.1 60.9l2.6-.1-1.2 1.6-1.1-.3z"/><path class="st54" d="M36.4 61.1H39l-1.2 1.6-1.1-.4z"/><path class="st55" d="M35 61.7l2.6-.1-1.2 1.7-1.1-.4z"/><path class="st54" d="M39.4 61.9l-2-1.7v2.1l1.1.4z"/><path class="st55" d="M40.2 63.2l-2-1.7-.1 2.1 1.1.4z"/><path class="st54" d="M36.7 53.5l-2-1.7v2.1l1.1.3z"/><path class="st55" d="M38.9 63.3l-2-1.7v2.1l1.1.4z"/><path class="st54" d="M34.8 61.8l2.6-.1-1.3 1.6-1.1-.4z"/><path class="st55" d="M33.4 62.3l2.6-.1-1.3 1.7-1-.4z"/><path class="st54" d="M35.7 62.6l2.6-.1-1.3 1.6-1.1-.3z"/><path class="st55" d="M34.3 63.1h2.6l-1.3 1.6-1-.4z"/><path class="st54" d="M38.7 63.4l-2-1.7-.1 2.1 1.1.3z"/><path class="st55" d="M39.4 64.7l-2-1.7v2.1l1.1.3z"/><path class="st54" d="M37.4 63.5l-2-1.7v2.1l1.1.3z"/><path class="st55" d="M38.2 64.8l-2-1.7v2.1l1 .3zM34.7 55.4l-.1-2.6 1.6 1.2-.3 1.1z"/><path class="st54" d="M35.1 50.3l2.6-.1-1.2 1.6-1.1-.4z"/><path class="st54" d="M38.1 51l-2-1.7v2.1l1.1.4z"/><path class="st55" d="M38.9 52.3l-2-1.7v2.1l1 .4z"/><path class="st54" d="M36.9 51.1l-2-1.7v2.1l1 .4z"/><path class="st55" d="M37.6 52.4l-1.9-1.7-.1 2.1 1.1.4z"/><path class="st54" d="M34.4 51.7l2.6-.1-1.3 1.6-1-.3z"/><path class="st54" d="M37.4 52.5l-2-1.7v2.1l1 .3z"/><path class="st55" d="M38.1 53.8l-2-1.7v2.1l1.1.3z"/><path class="st55" d="M36.9 53.9l-2-1.7v2.1l1 .3zM37.2 52.7l2.6-.1-1.3 1.7-1-.4z"/><path class="st55" d="M40 52.8l-2-1.7v2.1l1 .4z"/><path class="st54" d="M38.2 50.3l-2-1.7v2.1l1 .4z"/><path class="st55" d="M41.1 54.3l-2-1.7v2.1l1 .4zM35.5 53.3l2.6-.1-1.2 1.7-1.1-.4z"/><path class="st54" d="M37.8 53.6l2.6-.1-1.2 1.7-1.1-.4z"/><path class="st55" d="M36.4 54.2l2.7-.1-1.3 1.6-1.1-.4z"/><path class="st54" d="M40.8 54.4l-2-1.7v2.1l1.1.3z"/><path class="st55" d="M41.6 55.7l-2-1.7v2.1l1 .3z"/><path class="st54" d="M39.6 54.5l-2-1.7v2.1l1 .3z"/><path class="st55" d="M40.3 55.8l-1.9-1.7-.1 2.1 1.1.3z"/><path class="st54" d="M34.3 53.1l2.6-.1-1.2 1.7-1.1-.4z"/><path class="st54" d="M37.3 53.9l-2-1.7v2.1l1.1.4z"/><path class="st55" d="M38.1 55.2l-2-1.7v2.1l1 .4z"/><path class="st54" d="M40.8 53.8l-2-1.7v2l1.1.4z"/><path class="st55" d="M36.9 55.3l-2-1.7-.1 2.1 1.1.4z"/><path class="st54" d="M33.6 54.6l2.6-.1-1.3 1.6-1-.3z"/><path class="st54" d="M36.6 55.4l-2-1.7v2l1 .4z"/><path class="st55" d="M37.3 56.7l-2-1.7v2l1.1.4z"/><path class="st54" d="M35.4 55.5l-2-1.7-.1 2 1.1.4z"/><path class="st55" d="M36.1 56.8l-2-1.7v2l1.1.4z"/><path class="st54" d="M36.9 54.2l2.6-.1-1.3 1.7-1-.4z"/><path class="st55" d="M35.5 54.8l2.6-.1-1.3 1.6-1-.3z"/><path class="st54" d="M37.8 55h2.6l-1.3 1.6-1-.4z"/><path class="st55" d="M36.4 55.6l2.6-.1-1.3 1.7-1-.4z"/><path class="st54" d="M40.8 55.8l-2-1.7v2.1l1 .4z"/><path class="st55" d="M41.5 57.1l-2-1.7v2.1l1.1.4z"/><path class="st54" d="M35.5 51.5l-2-1.7v2.1l1.1.4z"/><path class="st55" d="M40.3 57.2l-2-1.7v2.1l1 .4z"/><path class="st54" d="M36.1 55.6h2.6l-1.2 1.6-1.1-.4z"/><path class="st55" d="M34.7 56.2l2.7-.1-1.3 1.7-1.1-.4z"/><path class="st54" d="M37 56.5l2.6-.1-1.2 1.6-1.1-.3z"/><path class="st55" d="M35.6 57h2.7L37 58.6l-1.1-.4z"/><path class="st54" d="M40 57.3l-2-1.7v2.1l1.1.3z"/><path class="st55" d="M40.8 58.6l-2-1.7V59l1 .3z"/><path class="st54" d="M38.8 57.4l-2-1.7v2.1l1.1.3z"/><path class="st55" d="M39.6 58.7l-2-1.7-.1 2.1 1.1.3zM28.5 55.4l2.4-.9-.7 2h-1.1z"/><path class="st54" d="M33.5 54.2l.9 2.5-2-.7.1-1.1z"/><path class="st54" d="M33.7 57.3l1-2.4-2 .6v1.2z"/><path class="st55" d="M32.7 58.4l1-2.4-2 .6v1.2z"/><path class="st54" d="M33.2 56.2l1-2.4-2 .6v1.1z"/><path class="st55" d="M32.2 57.3l1-2.4-2 .6v1.1z"/><path class="st54" d="M31.9 54l.9 2.4-2-.7.1-1.1z"/><path class="st54" d="M32.1 57.1l1-2.4-2 .6v1.1z"/><path class="st55" d="M31.1 58.2l1-2.4-2 .6v1.1z"/><path class="st55" d="M30.6 57l1-2.4-2 .6v1.1zM31.9 42.4l2.6-.1-1.3 1.6-1-.3z"/><path class="st55" d="M34.7 42.5l-2-1.7v2.1l1 .3z"/><path class="st54" d="M34.4 57.2l1-2.5-2 .7v1.1z"/><path class="st55" d="M35.8 44l-2-1.7v2.1l1 .3zM30.7 55.6l.9 2.4-2-.7.1-1.1z"/><path class="st54" d="M32.5 43.2l2.6-.1-1.2 1.7-1.1-.4z"/><path class="st55" d="M31.1 43.8l2.7-.1-1.3 1.7-1.1-.4z"/><path class="st54" d="M35.5 44l-2-1.7v2.1l1.1.4z"/><path class="st55" d="M36.3 45.3l-2-1.7v2.1l1 .4z"/><path class="st54" d="M34.3 44.1l-2-1.7v2.1l1.1.4z"/><path class="st55" d="M35.1 45.4l-2-1.7-.1 2.1 1.1.4z"/><path class="st54" d="M30.5 54.4l.9 2.4-1.9-.7V55z"/><path class="st54" d="M30.7 57.5l1-2.5-2 .7v1.1z"/><path class="st55" d="M29.7 58.6l1-2.5-2 .7v1.1z"/><path class="st54" d="M35.5 43.4l-2-1.7v2.1l1.1.4z"/><path class="st55" d="M29.2 57.4l1-2.4-2 .6v1.1z"/><path class="st54" d="M28.9 54.1l.9 2.4-1.9-.7v-1.1z"/><path class="st54" d="M29.1 57.2l1-2.4-2 .6v1.1z"/><path class="st55" d="M28.1 58.3l1-2.4-2 .6v1.1z"/><path class="st54" d="M28.6 56l1-2.4-1.9.6-.1 1.2z"/><path class="st55" d="M27.6 57.1l1-2.4-2 .6v1.2z"/><path class="st54" d="M31.6 43.9l2.6-.1-1.3 1.6-1-.4z"/><path class="st55" d="M29.3 56l.9 2.4-2-.7.1-1.1z"/><path class="st54" d="M32.5 44.7l2.6-.1-1.3 1.6-1-.3z"/><path class="st55" d="M31.1 45.3l2.6-.1-1.3 1.6-1-.4z"/><path class="st54" d="M35.5 45.5l-2-1.7v2.1l1 .3z"/><path class="st55" d="M36.2 46.8l-2-1.7v2.1l1.1.3z"/><path class="st55" d="M35 46.9l-2-1.7v2.1l1 .3z"/><path class="st54" d="M30.8 45.3l2.6-.1-1.2 1.7-1.1-.4z"/><path class="st55" d="M27.7 55.7l.9 2.4-2-.7.1-1.1z"/><path class="st54" d="M31.7 46.1l2.6-.1-1.2 1.7-1.1-.4z"/><path class="st55" d="M30.4 46.7l2.6-.1-1.3 1.6-1.1-.3z"/><path class="st54" d="M34.7 46.9l-2-1.7v2.1l1.1.4z"/><path class="st55" d="M35.5 48.2l-2-1.7v2.1l1 .4z"/><path class="st54" d="M33.5 47l-2-1.7v2.1l1.1.4z"/><path class="st55" d="M34.3 48.3l-2-1.7-.1 2.1 1.1.4z"/><path class="st54" d="M18.4 45.6l2.4-1-.6 2H19z"/><path class="st54" d="M19.5 46.1l2.4-1-.6 2h-1.1z"/><path class="st55" d="M18.4 47l2.4-.9-.6 2H19z"/><path class="st54" d="M22.6 45.8l-2.4-.9.6 1.9h1.1z"/><path class="st55" d="M23.7 46.8l-2.4-.9.6 1.9h1.2z"/><path class="st54" d="M21.5 46.3l-2.5-.9.7 1.9h1.1z"/><path class="st55" d="M22.6 47.3l-2.4-1 .6 2h1.1z"/><path class="st54" d="M19.3 47.7l2.4-1-.6 2h-1.2z"/><path class="st55" d="M23.5 48.4l-2.4-.9.6 1.9h1.1z"/><path class="st54" d="M21.2 47.9l-2.4-.9.7 1.9h1.1z"/><path class="st55" d="M22.4 48.9l-2.5-1 .7 2h1.1z"/><path class="st54" d="M22.3 46.2l2.4-.9-.7 2h-1.1z"/><path class="st55" d="M21.1 47.2l2.5-.9-.7 2h-1.1z"/><path class="st54" d="M23.4 46.7l2.4-.9-.6 2H24z"/><path class="st55" d="M22.3 47.7l2.4-.9-.7 1.9h-1.1z"/><path class="st54" d="M26.5 46.5l-2.5-1 .7 2h1.1z"/><path class="st55" d="M27.6 47.5l-2.4-1 .6 2h1.1z"/><path class="st54" d="M25.4 47l-2.5-1 .7 2h1.1z"/><path class="st55" d="M26.5 48L24 47l.7 2h1.1z"/><path class="st54" d="M22 47.8l2.5-.9-.7 2h-1.1z"/><path class="st55" d="M20.9 48.8l2.4-.9-.6 2h-1.1z"/><path class="st54" d="M23.1 48.3l2.5-.9-.7 2h-1.1z"/><path class="st55" d="M22 49.3l2.5-.9-.7 2h-1.1z"/><path class="st54" d="M26.2 48.1l-2.4-1 .7 2h1.1z"/><path class="st55" d="M27.4 49.1l-2.5-1 .7 2h1.1z"/><path class="st55" d="M26.2 49.6l-2.4-1 .7 2h1.1z"/><path class="st54" d="M18.6 48.5l2.4-.9-.6 2h-1.2z"/><path class="st54" d="M19.7 49l2.4-.9-.6 2h-1.1z"/><path class="st55" d="M18.6 50l2.4-.9-.6 2h-1.2z"/><path class="st54" d="M22.8 48.8l-2.4-.9.6 1.9h1.1z"/><path class="st55" d="M23.9 49.8l-2.4-1 .6 2h1.2z"/><path class="st54" d="M25.9 49.9l-2.5-1 .7 2h1.1z"/><path class="st55" d="M22.8 50.3l-2.4-1 .6 2h1.1z"/><path class="st54" d="M18.3 50.1l2.5-.9-.7 2H19z"/><path class="st54" d="M19.5 50.6l2.4-.9-.7 2h-1.1z"/><path class="st55" d="M18.3 51.6l2.5-.9-.7 2H19z"/><path class="st54" d="M22.6 50.4l-2.5-.9.7 1.9h1.1z"/><path class="st55" d="M23.7 51.4l-2.5-1 .7 2H23z"/><path class="st54" d="M21.4 50.9L19 50l.7 1.9h1.1z"/><path class="st55" d="M22.6 51.9l-2.5-1 .7 2h1.1z"/><path class="st54" d="M22.5 49.2l2.4-.9-.7 2h-1.1z"/><path class="st54" d="M23.6 49.7l2.4-.9-.6 2h-1.2z"/><path class="st55" d="M22.5 50.7l2.4-.9-.7 1.9h-1.1z"/><path class="st54" d="M26.7 49.5l-2.5-1 .7 2H26z"/><path class="st55" d="M27.8 50.5l-2.4-1 .6 2h1.1z"/><path class="st54" d="M27.2 51.9l-2.4-.9.7 2h1.1z"/><path class="st55" d="M26.7 51l-2.5-1 .7 2H26z"/><path class="st54" d="M22.2 50.8l2.5-.9-.7 2h-1.1z"/><path class="st55" d="M21.1 51.8l2.4-.9-.6 1.9h-1.2z"/><path class="st54" d="M23.3 51.3l2.5-.9-.7 2H24z"/><path class="st55" d="M22.2 52.3l2.5-.9-.7 1.9h-1.1z"/><path class="st54" d="M26.4 51.1l-2.4-1 .7 2h1.1z"/><path class="st55" d="M27.6 52.1l-2.5-1 .7 2h1.1z"/><path class="st54" d="M25.3 51.6l-2.4-1 .6 2h1.2z"/><path class="st55" d="M26.4 52.6l-2.4-1 .7 2h1.1z"/><path class="st54" d="M22.7 51.3l.8 2.5-1.9-.7V52z"/><path class="st55" d="M21.7 50.2l.9 2.5-2-.7.1-1.2z"/><path class="st55" d="M21.2 51.3l.9 2.5-2-.7v-1.2z"/><path class="st54" d="M21.8 54.4l1-2.4-1.9.6-.1 1.1z"/><path class="st54" d="M21.1 51.1l.8 2.4-1.9-.7v-1.1z"/><path class="st55" d="M20.1 49.9l.9 2.5-2-.7.1-1.1z"/><path class="st54" d="M20.5 52.2l.9 2.4-1.9-.7v-1.1z"/><path class="st54" d="M20.3 54.1l1-2.4-2 .6-.1 1.2zM25.8 54.4l1-2.4-2 .6v1.1z"/><path class="st55" d="M23.1 50.8l2.4-1-.7 2h-1.1z"/><path class="st54" d="M25.3 50.3l2.5-1-.7 2H26z"/><path class="st55" d="M24.2 51.3l2.4-1-.6 2h-1.2z"/><path class="st54" d="M27.3 50.5l-2.5-.9.7 2h1.1z"/><path class="st55" d="M28.4 51.5l-2.4-.9.6 1.9h1.2z"/><path class="st54" d="M23.9 51.4l2.5-1-.7 2h-1.1z"/><path class="st55" d="M22.8 52.4l2.5-1-.7 2h-1.1z"/><path class="st54" d="M25.1 51.9l2.4-1-.6 2h-1.2z"/><path class="st55" d="M23.9 52.9l2.5-1-.7 2h-1.1zM29.3 52.6l-2.4-.9.6 1.9h1.1z"/><path class="st54" d="M27 52.1l-2.4-.9.7 2h1.1z"/><path class="st55" d="M28.2 53.1l-2.5-.9.7 1.9h1.1zM26.9 51.4l2.5-.9-.7 2h-1.1z"/><path class="st54" d="M26.3 53.1l-2.4-1 .7 2h1.1z"/><path class="st54" d="M24.4 52.8l2.4-1-.6 2H25z"/><path class="st54" d="M28.6 53l-2.4-.9.6 1.9h1.1z"/><path class="st55" d="M22.4 52.2l.9 2.5-1.9-.7v-1.2z"/><path class="st54" d="M23.2 59.2l2.2-1.4-1.9-.6-.7.9z"/><path class="st54" d="M25.3 56.9l-.7 2.5-1.2-1.7.6-.9z"/><path class="st55" d="M24.1 56l-.7 2.5-1.2-1.7.6-.9z"/><path class="st54" d="M23.8 56.1l-.7 2.5-1.2-1.7.7-.9zM25.7 57.4L25 60l-1.2-1.7.7-.9z"/><path class="st54" d="M20.9 57.3l2.2-1.4-1.9-.7-.7 1z"/><path class="st55" d="M28.2 64.9l-2.5-.8 1.7-1.1.9.7z"/><path class="st54" d="M23.1 58l2.4-.8-.7 1.9-1.1-.1zM26.7 64.4l1.4 2.2.6-1.9-.8-.7z"/><path class="st54" d="M27.9 64.7l1.4 2.2.6-1.9-.9-.7z"/><path class="st55" d="M27.6 63.2l1.4 2.3.6-2-.8-.7z"/><path class="st54" d="M30.2 66.8l-2.5-.8 1.7-1.1.9.7z"/><path class="st55" d="M31.7 66.7l-2.5-.7 1.7-1.2.9.7z"/><path class="st54" d="M29.6 65.7l-2.5-.7 1.7-1.2.9.7z"/><path class="st55" d="M31.1 65.6l-2.5-.7 1.7-1.2.9.7z"/><path class="st54" d="M27.5 63l1.4 2.2.6-1.9-.9-.7z"/><path class="st55" d="M27.2 61.5l1.4 2.3.6-2-.8-.7z"/><path class="st54" d="M28.7 63.3l1.3 2.2.7-1.9-.9-.7z"/><path class="st55" d="M28.4 61.8l1.4 2.3.6-2-.9-.7z"/><path class="st54" d="M31 65.4l-2.5-.8 1.7-1.1.9.7z"/><path class="st55" d="M32.5 65.3l-2.5-.8 1.7-1.1.9.7z"/><path class="st55" d="M31.9 64.2l-2.5-.7 1.7-1.2.9.7zM24.3 58l1.3 2.2.7-1.9-.9-.7z"/><path class="st54" d="M26.4 60.6l1.3 2.3.7-2-.9-.7z"/><path class="st55" d="M26.1 59.2l1.4 2.2.6-2-.9-.7zM30.2 62.6l-2.5-.7 1.7-1.2.9.7z"/><path class="st54" d="M31.8 63.7l-2.5-.7 1.7-1.2.9.7z"/><path class="st55" d="M29.6 61.5l-2.5-.7 1.7-1.2.9.7z"/><path class="st54" d="M26 58.9l1.3 2.3.7-2-.9-.7z"/><path class="st55" d="M25.7 57.5l1.4 2.2.6-2-.9-.7z"/><path class="st54" d="M27.2 59.2l1.3 2.3.7-2-.9-.7z"/><path class="st55" d="M26.9 57.8l1.3 2.2.7-2-.9-.7z"/><path class="st54" d="M29.5 61.3l-2.5-.7 1.7-1.2.9.7z"/><path class="st55" d="M31 61.2l-2.5-.7 1.7-1.2.9.7z"/><path class="st54" d="M28.9 60.2l-2.5-.7 1.7-1.2.9.7z"/><path class="st55" d="M30.4 60.1l-2.5-.7 1.7-1.2.9.7z"/><path class="st54" d="M28.7 62.2l1.3 2.2.7-2-.9-.7z"/><path class="st54" d="M29.9 62.5l1.3 2.2.7-2-.9-.7z"/><path class="st55" d="M29.6 61l1.3 2.2.7-1.9-.9-.7z"/><path class="st54" d="M32.2 64.5l-2.5-.7 1.7-1.2.9.7z"/><path class="st55" d="M33.7 64.4l-2.5-.7 1.7-1.2.9.7z"/><path class="st54" d="M34.1 62.9l-2.5-.7 1.7-1.2.9.7z"/><path class="st55" d="M33.1 63.4l-2.5-.8 1.7-1.1.9.7z"/><path class="st54" d="M29.5 60.8l1.3 2.2.7-2-.9-.7z"/><path class="st55" d="M29.2 59.3l1.3 2.2.7-1.9-.9-.7z"/><path class="st54" d="M30.7 61l1.3 2.3.7-2-.9-.7z"/><path class="st55" d="M30.4 59.6l1.3 2.2.7-2-.9-.6z"/><path class="st54" d="M33 63.1l-2.5-.7 1.7-1.2.9.7z"/><path class="st55" d="M34.5 63l-2.5-.7 1.7-1.2.9.7z"/><path class="st54" d="M32.4 62.1l-2.5-.8 1.7-1.2.9.7z"/><path class="st55" d="M33.9 62l-2.5-.8 1.7-1.1.9.6z"/><path class="st54" d="M30.1 60.6l2.2-1.4-1.9-.6-.7.9z"/><path class="st55" d="M28.7 60.9l2.2-1.4-2-.6-.7.9z"/><path class="st55" d="M28.9 59.7l2.2-1.4-1.9-.6-.7.9z"/><path class="st54" d="M28.7 59.9l2.2-1.5-2-.6-.6.9z"/><path class="st55" d="M27.3 60.2l2.1-1.4-1.9-.7-.7.9z"/><path class="st55" d="M27.5 59l2.2-1.4-2-.7-.6.9z"/><path class="st55" d="M26.4 59l2.2-1.4-2-.6-.7.9z"/><path class="st55" d="M25 58.3l2.1-1.4-1.9-.7-.7.9z"/><path class="st54" d="M34.5 60.1l-.7 2.5-1.2-1.7.7-.9zM24.8 59.3l2.2-1.4-2-.7-.7.9z"/><path class="st54" d="M25.3 60.7l3.5-3.2-2.3-.1-1.3 1.7z"/><path class="st55" d="M31.5 58.9l1.3 2.2.7-2-.9-.7z"/><path class="st54" d="M34.8 62.9l2.2-1.4-2-.7-.7 1z"/><path class="st54" d="M36.8 60.5l-.7 2.6-1.2-1.7.7-.9z"/><path class="st54" d="M35.7 61.2l-.7 2.5-1.2-1.7.7-.9z"/><path class="st55" d="M35.6 59.7l-.7 2.5-1.2-1.7.7-.9z"/><path class="st54" d="M33.3 62.1l2.2-1.4-2-.6-.6.9z"/><path class="st54" d="M35.4 59.8l-.7 2.5-1.2-1.7.6-.9z"/><path class="st55" d="M34.2 58.9l-.7 2.5-1.2-1.7.6-.9z"/><path class="st54" d="M37.2 61.1l-.6 2.5-1.2-1.7.6-.9zM32.5 61l2.2-1.4-2-.7-.7.9z"/><path class="st54" d="M31 60.2l2.2-1.4-2-.6-.6.9z"/><path class="st54" d="M32 58.5l-.7 2.5-1.2-1.7.7-.9zM18.7 60.8l1.3 2.3.7-2-.9-.7z"/><path class="st54" d="M21 62.9l-2.5-.7 1.7-1.2.9.7z"/><path class="st55" d="M22.5 62.8l-2.5-.7 1.7-1.2.9.7z"/><path class="st55" d="M21.9 61.7l-2.5-.7 1.7-1.2.9.7z"/><path class="st54" d="M19.5 59.4l1.3 2.3.7-2-.9-.7z"/><path class="st55" d="M19.2 58l1.3 2.2.7-2-.9-.7zM23.2 61.4l-2.5-.7 1.8-1.2.9.7z"/><path class="st54" d="M21.2 60.4l-2.5-.7 1.7-1.2.9.7z"/><path class="st55" d="M22.7 60.3l-2.5-.7 1.7-1.2.9.7z"/><path class="st54" d="M21 62.4l1.3 2.2.7-2-.9-.7z"/><path class="st55" d="M20.7 60.9l1.3 2.2.7-1.9-.9-.7z"/><path class="st54" d="M22.1 62.7l1.4 2.2.7-2-.9-.7z"/><path class="st55" d="M21.9 61.2l1.3 2.2.7-1.9-.9-.7z"/><path class="st54" d="M24.5 64.7l-2.6-.7 1.8-1.2.9.7z"/><path class="st55" d="M25.9 64.7l-2.5-.8 1.8-1.2.9.7z"/><path class="st54" d="M23.9 63.7l-2.5-.8 1.7-1.1.9.6z"/><path class="st55" d="M25.4 63.6l-2.6-.8 1.8-1.1.9.7z"/><path class="st54" d="M21.7 61l1.4 2.2.7-2-.9-.7z"/><path class="st55" d="M21.5 59.5l1.3 2.2.7-1.9-.9-.7z"/><path class="st54" d="M22.9 61.2l1.4 2.3.7-2-.9-.7z"/><path class="st55" d="M22.6 59.8L24 62l.7-2-.9-.6z"/><path class="st54" d="M25.2 63.3l-2.5-.7 1.8-1.2.9.7z"/><path class="st55" d="M26.7 63.2l-2.5-.7 1.8-1.2.8.7z"/><path class="st54" d="M21.2 59.2l-2.5-.7 1.7-1.2.9.7z"/><path class="st55" d="M26.1 62.2l-2.5-.8 1.8-1.1.9.6z"/><path class="st54" d="M19.4 58.3l1.4 2.2.7-1.9-.9-.7z"/><path class="st54" d="M20.6 58.6l1.4 2.2.7-1.9-.9-.7z"/><path class="st55" d="M20.3 57.1l1.4 2.2.7-1.9-.9-.7z"/><path class="st54" d="M22.9 60.7l-2.5-.8 1.8-1.1.8.6z"/><path class="st55" d="M24.4 60.6l-2.5-.8 1.8-1.1.8.7z"/><path class="st54" d="M26 61.7l-2.5-.8 1.8-1.1.8.7z"/><path class="st55" d="M23.8 59.5l-2.5-.7 1.8-1.2.9.7z"/><path class="st54" d="M20.2 56.9l1.4 2.2.7-2-.9-.6z"/><path class="st54" d="M21.4 57.2l1.4 2.2.7-2-.9-.6z"/><path class="st54" d="M23.7 59.3l-2.5-.8 1.7-1.1.9.6z"/><path class="st55" d="M25.2 59.2l-2.5-.8 1.7-1.1.9.6z"/><path class="st54" d="M23.1 58.2l-2.5-.8 1.8-1.1.8.7z"/><path class="st55" d="M24.6 58.1l-2.5-.8 1.7-1.1.9.7z"/><path class="st54" d="M22.9 60.1l1.4 2.2.7-1.9-.9-.7z"/><path class="st54" d="M24.1 60.4l1.4 2.2.7-1.9-.9-.7z"/><path class="st55" d="M23.8 58.9l1.4 2.3.7-2-.9-.7z"/><path class="st54" d="M26.4 62.5l-2.5-.7 1.7-1.2.9.7z"/><path class="st55" d="M27.9 62.4l-2.5-.7 1.7-1.2.9.7z"/><path class="st54" d="M28.4 60.9l-2.5-.8 1.7-1.1.9.7z"/><path class="st55" d="M27.3 61.3l-2.5-.7 1.7-1.2.9.7z"/><path class="st54" d="M23.7 58.7l1.4 2.2.7-1.9-.9-.7z"/><path class="st55" d="M23.4 57.2l1.4 2.3.7-2-.9-.7z"/><path class="st54" d="M24.9 59l1.4 2.2.7-1.9-.9-.7z"/><path class="st55" d="M24.6 57.5l1.4 2.3.7-2-.9-.7z"/><path class="st54" d="M27.2 61.1l-2.5-.8 1.7-1.1.9.7z"/><path class="st55" d="M28.7 61l-2.5-.8 1.7-1.1.9.7z"/><path class="st54" d="M26.6 60l-2.5-.7 1.7-1.2.9.7z"/><path class="st55" d="M28.1 59.9l-2.5-.7 1.7-1.2.9.7z"/><path class="st54" d="M24.4 58.6l2.2-1.5-2-.6-.7.9z"/><path class="st55" d="M22.9 58.9l2.2-1.4-1.9-.7-.7 1z"/><path class="st54" d="M23 57.8l2.2-1.4-2-.6-.7.9z"/><path class="st55" d="M21.5 58.1l2.2-1.4-2-.6-.6.9z"/><path class="st54" d="M28.7 58l-.6 2.6-1.2-1.7.6-.9z"/><path class="st55" d="M24.3 59.3l1.4 2.2.7-2-.9-.7z"/><path class="st54" d="M25.8 61l1.4 2.3.7-2-.9-.7z"/><path class="st55" d="M25.5 59.6l1.4 2.2.7-2-.9-.7z"/><path class="st54" d="M27.5 62l-2.5-.7 1.8-1.2.9.7z"/><path class="st55" d="M29 61.9l-2.5-.7 1.8-1.2.8.7z"/><path class="st54" d="M25.4 59.3l1.4 2.3.7-2-.9-.7z"/><path class="st55" d="M25.1 57.9l1.4 2.2.7-2-.9-.7z"/><path class="st54" d="M26.6 59.6l1.4 2.2.7-1.9-.9-.7z"/><path class="st55" d="M26.3 58.2l1.4 2.2.7-2-.9-.7zM30.4 61.6l-2.5-.7 1.7-1.2.9.7z"/><path class="st54" d="M28.3 60.6l-2.5-.7 1.8-1.2.8.7z"/><path class="st55" d="M29.8 60.5l-2.5-.7 1.7-1.2.9.7zM27.8 61.1l1.4 2.2.7-1.9-.9-.7z"/><path class="st54" d="M28.4 59.4l-2.5-.7 1.7-1.2.9.7z"/><path class="st54" d="M26.6 58.5l1.4 2.2.7-1.9-.9-.7z"/><path class="st54" d="M30.1 60.9l-2.5-.8 1.7-1.1.9.6z"/><path class="st55" d="M19.3 28.1l2.6-.1-1.3 1.6-1.1-.3z"/><path class="st54" d="M20.8 28l-2-1.6v2l1.1.4z"/><path class="st55" d="M21.3 30.9l-2-1.7-.1 2.1 1.1.4z"/><path class="st54" d="M22.3 31.5l-2-1.7v2.1l1.1.4z"/><path class="st55" d="M23.1 32.8l-2-1.7-.1 2.1 1.1.4zM18.1 30.8h2.6l-1.3 1.6-1-.4z"/><path class="st55" d="M19 31.7l2.6-.1-1.3 1.6-1-.3z"/><path class="st54" d="M23.3 33l-2-1.7-.1 2.1 1.1.4z"/><path class="st54" d="M22 33.1l-2-1.7v2.1l1.1.4z"/><path class="st55" d="M22.8 34.4l-2-1.7-.1 2.1 1.1.4z"/><path class="st54" d="M19.2 31.9l2.6-.1-1.3 1.6-1-.3z"/><path class="st54" d="M20.1 32.7l2.6-.1-1.3 1.7-1-.4z"/><path class="st55" d="M18.7 33.3l2.6-.1-1.3 1.6-1-.3z"/><path class="st55" d="M20.1 32l-1.7 2h2.1l.3-1.1z"/><path class="st55" d="M20.2 33.2l-1.7 2h2.1l.4-1.1z"/><path class="st54" d="M20.4 33l-1.7 2h2.1l.4-1.1z"/><path class="st55" d="M21.7 32.2L20 34.3l2.1-.1.3-1z"/><path class="st54" d="M20.5 34.2l-1.6 2.1 2-.1.4-1z"/><path class="st55" d="M21.8 33.4l-1.7 2.1h2.1l.4-1.1z"/><path class="st54" d="M19.3 37.1l-.1-2.6 1.6 1.2-.3 1.1z"/><path class="st55" d="M19.9 38.5l-.1-2.6 1.6 1.2-.3 1.1z"/><path class="st54" d="M20.1 36.2l-.1-2.6 1.7 1.2-.4 1.1z"/><path class="st55" d="M20.7 37.5l-.1-2.6 1.7 1.3-.4 1z"/><path class="st55" d="M21.1 36.1l-1.6 2.1 2.1-.1.3-1z"/><path class="st54" d="M20 38.1l-1.7 2.1 2.1-.1.4-1z"/><path class="st55" d="M21.3 37.3l-1.7 2.1h2.1l.3-1.1zM19.4 42.4l-.2-2.6 1.7 1.2-.3 1.1z"/><path class="st54" d="M19.6 40.1l-.1-2.6 1.6 1.2-.3 1.1z"/><path class="st55" d="M20.2 41.4l-.1-2.6 1.6 1.3-.3 1z"/><path class="st54" d="M21.6 33.8l-1.7 2.1 2.1-.1.3-1z"/><path class="st55" d="M22.8 33l-1.6 2.1h2.1l.3-1.1z"/><path class="st54" d="M21.7 35l-1.6 2.1h2l.4-1.1z"/><path class="st54" d="M20.5 37.9l-.1-2.6 1.6 1.2-.3 1.1z"/><path class="st54" d="M21 37.7l-1.6 2.1 2.1-.1.3-1z"/><path class="st54" d="M20 41.8l-.2-2.6 1.7 1.2-.3 1.1zM22.7 33.5l-1.6 2.1h2l.4-1.1z"/><path class="st54" d="M23.3 31.2l-2.3 4 2.3-.5.6-2.1zM25.7 28.3l-2-1.7v2l1.1.4z"/><path class="st54" d="M22.9 27l2.6-.1-1.3 1.7-1.1-.4z"/><path class="st55" d="M21.5 27.6l2.6-.1-1.3 1.6-1-.3z"/><path class="st55" d="M22.4 28.4l2.6-.1-1.3 1.7-1-.4z"/><path class="st54" d="M22.6 28.6l2.6-.1-1.3 1.7-1.1-.4z"/><path class="st55" d="M21.2 29.2l2.6-.1-1.3 1.6-1-.3z"/><path class="st55" d="M22.1 30l2.6-.1-1.3 1.7-1-.4z"/><path class="st54" d="M22.3 30.4l2.6-.1-1.2 1.7-1.1-.4z"/><path class="st54" d="M24.5 31l-2-1.7v2.1l1.1.4z"/><path class="st54" d="M21.7 29.8l2.6-.1-1.3 1.6-1-.3z"/><path class="st55" d="M20.3 30.3l2.6-.1-1.2 1.7-1.1-.4z"/><path class="st54" d="M20.4 31.9l2.6-.1-1.3 1.7-1.1-.4z"/><path class="st55" d="M21.2 31.2l2.6-.1-1.2 1.6-1.1-.3z"/><path class="st54" d="M24.2 32.6l-2-1.7V33l1.1.4z"/><path class="st54" d="M21.4 31.4l2.6-.1-1.3 1.6-1-.4z"/><path class="st55" d="M20 31.9l2.6-.1-1.2 1.7-1.1-.4z"/><path class="st55" d="M20.9 32.8l2.6-.1-1.2 1.6-1.1-.4z"/><path class="st54" d="M20.9 34.7l-.1-2.6 1.6 1.3-.3 1zM22.7 31l-2-1.7v2.1l1.1.3z"/><path class="st55" d="M23.5 32.3l-2-1.7-.1 2.1 1.1.3z"/><path class="st54" d="M20.8 30.6l2.6-.1-1.3 1.6-1-.3z"/><path class="st55" d="M19.4 31.1L22 31l-1.3 1.7-1-.4z"/><path class="st54" d="M23.7 32.5l-2-1.7-.1 2.1 1.1.3z"/><path class="st54" d="M22.4 32.6l-2-1.7V33l1.1.3z"/><path class="st55" d="M23.2 33.9l-2-1.7-.1 2.1 1.1.3zM18.2 31.9l2.6-.1-1.3 1.6-1-.3z"/><path class="st54" d="M20.5 32.1h2.6l-1.3 1.6-1-.4z"/><path class="st55" d="M19.1 32.7l2.6-.1-1.3 1.7-1-.4zM20.8 31.5l-2-1.6v2l1.1.4z"/><path class="st54" d="M20.8 33.3l2.6-.1-1.2 1.6-1.1-.3z"/><path class="st54" d="M22.8 33.6l-2-1.7V34l1 .4z"/><path class="st54" d="M18.7 32.5l2.6-.1-1.2 1.6-1.1-.3z"/><path class="st55" d="M37.7 45.9l-1.9 1.8 2.1.2.5-1zM37.1 50.5l.2-2.6 1.5 1.4-.5 1z"/><path class="st55" d="M39.1 45.5l-1.9 1.9 2.1.2.5-1.1z"/><path class="st55" d="M39.1 46.8l-1.9 1.8 2.1.2.4-1zM37 47.2l.2-2.6 1.5 1.4-.4 1z"/><path class="st54" d="M37.5 44.9l.2-2.6 1.5 1.4-.5 1.1z"/><path class="st55" d="M38 46.4l.1-2.6 1.5 1.4-.4 1z"/><path class="st54" d="M38.6 42l-1.9 1.9 2.1.2.4-1.1z"/><path class="st55" d="M39.9 41.4l-1.8 1.8 2 .2.5-1z"/><path class="st54" d="M38.6 43.2l-1.9 1.9 2.1.2.4-1z"/><path class="st55" d="M39.9 42.6l-1.8 1.9 2 .2.5-1.1z"/><path class="st54" d="M38 46.6l.1-2.6 1.5 1.4-.4 1.1z"/><path class="st55" d="M38.4 48.1l.2-2.6 1.5 1.4-.5 1z"/><path class="st54" d="M38.9 45.8l.1-2.6 1.6 1.4-.5 1z"/><path class="st55" d="M39.3 47.2l.2-2.6L41 46l-.5 1.1z"/><path class="st54" d="M39.9 42.9l-1.8 1.8 2 .2.5-1z"/><path class="st55" d="M41.3 42.3l-1.9 1.8 2.1.2.5-1z"/><path class="st54" d="M38.3 48.4l-1.9 1.8 2.1.3.5-1.1z"/><path class="st55" d="M41.3 43.5l-1.9 1.8 2.1.2.4-1z"/><path class="st54" d="M37.2 50.1l.1-2.6 1.6 1.4-.5 1z"/><path class="st55" d="M37.5 52.5l.1-2.6 1.6 1.4-.5 1.1z"/><path class="st54" d="M38.1 49.2l.2-2.6 1.5 1.4-.5 1.1z"/><path class="st55" d="M38.5 50.7l.2-2.6 1.5 1.4-.4 1z"/><path class="st54" d="M39.2 46.3l-1.9 1.9 2.1.2.4-1.1z"/><path class="st55" d="M40.5 45.7l-1.8 1.8 2 .2.5-1z"/><path class="st54" d="M41.4 44l-1.8 1.8 2 .2.5-1z"/><path class="st55" d="M40.5 46.9l-1.8 1.9 2 .2.5-1z"/><path class="st54" d="M38.6 50.9l.1-2.6 1.5 1.4-.4 1.1z"/><path class="st55" d="M39 52.4l.1-2.6 1.6 1.4-.5 1z"/><path class="st54" d="M39.5 50.1l.1-2.6 1.6 1.4-.5 1z"/><path class="st55" d="M39.9 51.5l.2-2.6 1.5 1.4-.5 1.1z"/><path class="st54" d="M40.5 47.2L38.7 49l2 .2.5-1z"/><path class="st55" d="M41.9 46.6L40 48.4l2.1.2.5-1z"/><path class="st54" d="M40.5 48.4l-1.8 1.9 2 .2.5-1.1z"/><path class="st55" d="M41.9 47.8L40 49.6l2.1.2.4-1z"/><path class="st54" d="M39.4 46.8l.2-2.6 1.5 1.4-.5 1z"/><path class="st54" d="M40.3 46l.2-2.6 1.5 1.4-.5 1z"/><path class="st55" d="M40.8 47.4l.1-2.6 1.5 1.4-.4 1z"/><path class="st54" d="M41.4 43.1l-1.9 1.8 2.1.2.4-1z"/><path class="st55" d="M42.7 42.4l-1.8 1.9 2 .2.5-1z"/><path class="st54" d="M43.8 43.6L42 45.4l2.1.2.4-1z"/><path class="st55" d="M42.7 43.7l-1.8 1.8 2 .2.5-1z"/><path class="st54" d="M40.8 47.7l.1-2.6 1.5 1.4-.4 1z"/><path class="st55" d="M41.2 49.1l.2-2.6 1.5 1.4-.5 1z"/><path class="st54" d="M41.7 46.9l.1-2.7 1.6 1.5-.5 1z"/><path class="st55" d="M42.1 48.3l.2-2.6 1.5 1.4-.5 1z"/><path class="st54" d="M42.7 43.9l-1.8 1.9 2 .2.5-1z"/><path class="st55" d="M44.1 43.3l-1.9 1.8 2.1.3.5-1.1z"/><path class="st54" d="M42.7 45.2L40.9 47l2 .2.5-1z"/><path class="st55" d="M44.1 44.5l-1.9 1.9 2.1.2.5-1z"/><path class="st54" d="M41.4 47.5l2.6.2-1.4 1.5-1-.5z"/><path class="st55" d="M40 47.9l2.6.2-1.4 1.5-1.1-.5z"/><path class="st55" d="M40.8 48.8l2.6.2-1.4 1.5-1.1-.5z"/><path class="st54" d="M43.9 49.5l-1.8-1.9-.3 2.1 1.1.4z"/><path class="st54" d="M40.5 48.8l2.6.2-1.4 1.5-1-.5z"/><path class="st55" d="M39.1 49.2l2.6.2-1.5 1.5-1-.5z"/><path class="st54" d="M41.3 49.8l2.6.2-1.4 1.5-1-.5z"/><path class="st55" d="M39.9 50.2l2.6.2-1.5 1.5-1-.5z"/><path class="st54" d="M43 50.8l-1.8-1.9-.3 2.1 1.1.5z"/><path class="st54" d="M40.3 50.3l2.6.2-1.4 1.5-1-.5z"/><path class="st55" d="M38.9 50.7l2.6.2-1.5 1.5-1-.5z"/><path class="st55" d="M39.7 51.6l2.6.2-1.5 1.5-1-.5z"/><path class="st55" d="M38 52l2.6.2-1.5 1.5-1-.5z"/><path class="st55" d="M38.8 52.9l2.6.2-1.5 1.5-1-.4z"/><path class="st54" d="M41.9 53.6l-1.8-1.9-.3 2.1 1 .5zM45.5 45.9L43.7 44l-.2 2.1 1 .4z"/><path class="st55" d="M41.1 46.9l.1-2.6 1.5 1.4-.4 1z"/><path class="st54" d="M41.5 44.6l.2-2.6 1.5 1.4-.5 1.1z"/><path class="st55" d="M42 46.1l.1-2.6 1.5 1.4-.4 1zM38.7 30.8l-2.6-.3 1.1 1.8 1.1-.3z"/><path class="st54" d="M42.6 42.9l-1.9 1.9 2.1.2.4-1z"/><path class="st55" d="M43.9 42.3l-1.8 1.9 2 .2.5-1.1z"/><path class="st54" d="M42 46.3l.1-2.6 1.6 1.4-.5 1.1z"/><path class="st55" d="M42.4 47.8l.2-2.6 1.5 1.4-.5 1z"/><path class="st54" d="M42.9 45.5l.1-2.6 1.6 1.4-.5 1z"/><path class="st55" d="M43.3 46.9l.2-2.6 1.5 1.4-.5 1.1zM45.3 42l-1.8 1.8 2 .2.5-1z"/><path class="st54" d="M43.9 43.8l-1.8 1.8 2 .3.5-1.1z"/><path class="st55" d="M45.3 43.2L43.4 45l2.1.2.5-1z"/><path class="st54" d="M37.1 30.6l2.2-1.4-.2 2-1.1.3z"/><path class="st55" d="M43.3 43.6l.1-2.6 1.5 1.4-.4 1.1z"/><path class="st54" d="M38.3 30.9l2.2-1.5-.2 2-1.1.3z"/><path class="st55" d="M37.5 32.1l2.1-1.5-.2 2.1-1.1.2z"/><path class="st54" d="M41.3 29.9l-2.6-.4 1.1 1.8 1.1-.3z"/><path class="st55" d="M42.6 30.6l-2.6-.4 1.1 1.8 1.1-.3z"/><path class="st54" d="M40.3 30.6l-2.6-.3 1.1 1.7 1.1-.2z"/><path class="st55" d="M41.6 31.3L39 31l1.1 1.7 1.1-.2z"/><path class="st54" d="M37.3 32.3l2.1-1.5-.2 2-1.1.3z"/><path class="st55" d="M36.4 33.5l2.1-1.5-.1 2.1-1.1.2z"/><path class="st54" d="M38.5 32.5l2.1-1.5-.2 2-1 .3z"/><path class="st55" d="M37.6 33.7l2.2-1.5-.2 2.1-1.1.2z"/><path class="st54" d="M41.4 31.5l-2.6-.3 1.1 1.7 1.1-.2z"/><path class="st55" d="M42.7 32.2l-2.5-.4 1.1 1.8 1.1-.3z"/><path class="st54" d="M44.5 44.8l-1.8 1.9 2 .2.5-1z"/><path class="st55" d="M41.8 32.9l-2.6-.3 1.1 1.8 1.1-.3z"/><path class="st54" d="M43.4 46.5l.2-2.6 1.5 1.4-.5 1zM35.3 34l2.1-1.5-.1 2-1.1.3z"/><path class="st55" d="M34.4 35.2l2.2-1.5-.2 2.1-1.1.2z"/><path class="st54" d="M45.4 42.8l-1.9 1.8 2.1.2.5-1z"/><path class="st55" d="M39.6 33.7l-2.6-.3 1.1 1.7 1.1-.3z"/><path class="st54" d="M41.5 33.3l-2.6-.3 1.1 1.7 1.1-.2z"/><path class="st55" d="M38.6 34.4l-2.6-.3 1.1 1.8 1.1-.3z"/><path class="st54" d="M34.2 35.4l2.2-1.5-.2 2-1.1.3z"/><path class="st54" d="M35.4 35.6l2.2-1.5-.2 2.1-1.1.2z"/><path class="st55" d="M34.6 36.8l2.1-1.5-.1 2.1-1.1.3z"/><path class="st54" d="M38.4 34.6l-2.6-.3 1.1 1.7 1.1-.2z"/><path class="st55" d="M39.7 35.3l-2.6-.3 1.1 1.7 1.1-.2z"/><path class="st54" d="M37.4 35.4l-2.6-.4 1.1 1.8 1.1-.3z"/><path class="st55" d="M38.7 36l-2.6-.3 1.2 1.8 1-.3z"/><path class="st54" d="M38 33.5l2.2-1.5-.2 2.1-1.1.2z"/><path class="st54" d="M39.2 33.7l2.2-1.5-.2 2.1-1.1.3z"/><path class="st55" d="M38.4 34.9l2.1-1.5-.2 2.1-1.1.3z"/><path class="st54" d="M42.2 32.7l-2.6-.3 1.1 1.8 1.1-.3z"/><path class="st55" d="M43.5 33.4l-2.6-.3 1.1 1.8 1.1-.3z"/><path class="st54" d="M43.3 35l-2.6-.3 1.1 1.7 1.1-.2z"/><path class="st55" d="M42.5 34.2l-2.6-.4 1.1 1.8 1.1-.3z"/><path class="st54" d="M38.2 35.1l2.1-1.5-.2 2.1-1.1.3z"/><path class="st55" d="M37.3 36.3l2.1-1.5-.1 2.1-1.1.3z"/><path class="st54" d="M39.4 35.3l2.1-1.5-.2 2.1-1.1.3z"/><path class="st55" d="M38.5 36.5l2.2-1.4-.2 2-1.1.3z"/><path class="st54" d="M42.3 34.3l-2.6-.3 1.1 1.8 1.1-.3z"/><path class="st55" d="M43.6 35l-2.5-.3 1.1 1.8 1.1-.3z"/><path class="st54" d="M41.3 35.1l-2.6-.3 1.2 1.7 1-.2z"/><path class="st55" d="M42.7 35.8l-2.6-.4 1.1 1.8 1.1-.3z"/><path class="st54" d="M38.7 35.5l1.4 2.2-2-.2-.3-1.1z"/><path class="st55" d="M37.5 34.6l1.4 2.2-2-.2-.3-1.1z"/><path class="st54" d="M38.5 36.7l1.4 2.2-2.1-.2-.2-1.1z"/><path class="st55" d="M37.3 35.8l1.4 2.2-2.1-.2-.2-1.1z"/><path class="st54" d="M39.4 39.7l.4-2.6-1.8 1.1.2 1.1z"/><path class="st55" d="M38.6 41l.4-2.6-1.7 1.1.2 1.1z"/><path class="st54" d="M38.6 38.7l.4-2.6-1.7 1.1.2 1.1z"/><path class="st55" d="M37.9 40l.4-2.6-1.8 1.1.3 1.1z"/><path class="st54" d="M37.1 35.6l1.4 2.2-2-.2-.3-1.1z"/><path class="st55" d="M35.9 34.7l1.4 2.2-2-.2-.3-1.1z"/><path class="st54" d="M36.9 36.8l1.4 2.2-2.1-.2-.2-1.1z"/><path class="st55" d="M35.7 35.9l1.4 2.2-2.1-.2-.2-1.1z"/><path class="st54" d="M37.8 39.8l.4-2.6-1.8 1.1.2 1.1z"/><path class="st55" d="M37 41.1l.4-2.6-1.8 1.1.3 1.1z"/><path class="st54" d="M37 38.8l.4-2.6-1.8 1.1.3 1.1zM38.9 39.4l1.4 2.2-2.1-.2-.2-1.1z"/><path class="st55" d="M37.7 38.5l1.4 2.2-2.1-.2-.2-1.1z"/><path class="st54" d="M38.6 40.6l1.5 2.2-2.1-.2-.2-1.1z"/><path class="st55" d="M37.4 39.8l1.5 2.1-2.1-.2-.2-1.1z"/><path class="st54" d="M39.5 43.6l.4-2.6-1.8 1.1.3 1.1z"/><path class="st55" d="M38.8 42.2l.4-2.6-1.8 1.1.2 1.1z"/><path class="st54" d="M40 39.3l.4-2.5-1.8 1 .3 1.1z"/><path class="st55" d="M38.1 43.9l.4-2.5-1.8 1 .2 1.1z"/><path class="st54" d="M40.3 40.8l1.5 2.2-2.1-.2-.2-1.1zM37 40.8l1.4 2.1-2-.2-.3-1.1z"/><path class="st54" d="M37.9 43.7l.4-2.6-1.8 1.1.3 1.1z"/><path class="st54" d="M37.2 42.7l.4-2.5-1.8 1 .2 1.1zM35.8 36.3l1.5 2.2-2.1-.2-.2-1.1z"/><path class="st54" d="M36.5 40.5l.4-2.6-1.8 1.1.2 1.1zM38.4 43.4l.4-2.6-1.8 1.1.3 1.1zM39.9 38.4l1.9 4.3-2.2-.8-.4-2.1zM42.5 37.8l.4-2.6-1.8 1 .2 1.1z"/><path class="st55" d="M42.1 48l2.6.3-1.4 1.4-1-.4z"/><path class="st54" d="M37.8 45.2l1.4 2.2-2.1-.2-.2-1.1z"/><path class="st54" d="M38.6 48.2l.5-2.6-1.8 1 .2 1.1z"/><path class="st55" d="M37.9 49.5l.4-2.6-1.8 1.1.3 1.1z"/><path class="st55" d="M38.1 50.7l.4-2.6-1.8 1.1.2 1.1z"/><path class="st54" d="M39.3 47.8l.4-2.6-1.8 1.1.3 1.1z"/><path class="st55" d="M39.2 37.6l2.2-1.4-.2 2-1.1.3z"/><path class="st54" d="M43.9 35.3l1.4 2.2-2.1-.2-.2-1.1z"/><path class="st54" d="M44.8 38.3l.4-2.6-1.8 1 .2 1.1z"/><path class="st55" d="M44 39.6l.4-2.6-1.8 1.1.3 1.1z"/><path class="st54" d="M44 37.3l.4-2.6-1.8 1 .3 1.2z"/><path class="st55" d="M43.3 38.6l.4-2.6-1.8 1.1.3 1.1z"/><path class="st54" d="M42.2 35.4l1.5 2.2-2.1-.2-.2-1.1z"/><path class="st54" d="M43.1 38.4l.4-2.6-1.7 1.1.2 1.1z"/><path class="st55" d="M42.4 39.7l.4-2.6-1.8 1.1.3 1.1z"/><path class="st55" d="M41.7 38.7l.4-2.6-1.8 1.1.2 1.1zM42.8 38.3l1.4 2.2-2-.2-.3-1.1z"/><path class="st55" d="M44.2 40.8l.4-2.6-1.8 1.1.2 1.1z"/><path class="st54" d="M45.4 37.9l.4-2.6-1.8 1.1.3 1.1z"/><path class="st55" d="M43.5 42.5l.4-2.6-1.8 1.1.2 1.1zM41.4 37.2l1.5 2.2-2.1-.2-.2-1.1z"/><path class="st54" d="M42.4 39.3l1.4 2.2-2-.2-.3-1.1z"/><path class="st55" d="M41.2 38.4l1.4 2.2-2-.2-.3-1.1z"/><path class="st54" d="M43.3 42.3l.4-2.6-1.8 1.1.2 1.1z"/><path class="st55" d="M42.6 43.6L43 41l-1.8 1.1.2 1.1z"/><path class="st54" d="M42.6 41.3l.4-2.6-1.8 1.1.2 1.1z"/><path class="st55" d="M41.9 42.6l.4-2.6-1.8 1.1.2 1.1z"/><path class="st54" d="M41 36.1l1.4 2.2-2.1-.2-.2-1.1z"/><path class="st54" d="M41.9 39.1l.4-2.6-1.8 1.1.2 1.1z"/><path class="st55" d="M41.1 40.4l.5-2.6-1.8 1.1.2 1.1z"/><path class="st54" d="M43.8 42l.4-2.6-1.8 1.1.3 1.1z"/><path class="st55" d="M40.4 39.4l.4-2.6-1.8 1.1.3 1.1z"/><path class="st54" d="M39.4 36.2l1.4 2.2-2.1-.2-.2-1.1z"/><path class="st54" d="M40.3 39.2l.4-2.6-1.8 1.1.2 1.1z"/><path class="st55" d="M39.5 40.5l.4-2.6-1.8 1.1.3 1.1z"/><path class="st54" d="M39.5 38.2l.4-2.6-1.7 1.1.2 1.1z"/><path class="st55" d="M38.8 39.5l.4-2.6-1.8 1.1.3 1.1z"/><path class="st54" d="M41.4 38.8l1.4 2.2-2.1-.2-.2-1.1z"/><path class="st55" d="M40.2 38l1.4 2.1-2.1-.2-.2-1.1z"/><path class="st54" d="M41.1 40.1l1.5 2.1-2.1-.2-.2-1.1z"/><path class="st55" d="M39.9 39.2l1.5 2.1-2.1-.2-.2-1.1z"/><path class="st54" d="M42 43l.4-2.6-1.8 1.1.3 1.1z"/><path class="st55" d="M41.3 44.3l.4-2.5-1.8 1 .3 1.1z"/><path class="st55" d="M40.6 43.3l.4-2.5-1.8 1 .2 1.1z"/><path class="st54" d="M39.8 39l1.4 2.1-2.1-.2-.2-1.1z"/><path class="st55" d="M38.6 38.1l1.4 2.1-2.1-.2-.2-1.1z"/><path class="st54" d="M39.5 40.2l1.5 2.1-2.1-.2-.2-1.1z"/><path class="st55" d="M38.3 39.3l1.5 2.2-2.1-.3-.2-1.1z"/><path class="st54" d="M40.4 43.1l.4-2.5-1.8 1 .3 1.1z"/><path class="st55" d="M39.7 44.4l.4-2.5-1.8 1 .2 1.1z"/><path class="st54" d="M39.7 42.1l.4-2.5-1.8 1 .2 1.1z"/><path class="st55" d="M39 43.4l.4-2.5-1.8 1 .2 1.1zM36.5 30.1l-2.6-.3 1.1 1.7 1.1-.2zM36.7 31.7l-2.6-.3 1.1 1.7 1.1-.2z"/><path class="st54" d="M36.1 32.3l-2.6-.4 1.1 1.8 1.1-.3z"/><path class="st55" d="M37.4 33l-2.6-.4 1.1 1.8 1.1-.3z"/><path class="st54" d="M37.2 34.5l-2.6-.3 1.1 1.8 1.1-.3z"/><path class="st55" d="M36.4 33.7l-2.6-.3 1.1 1.7 1.1-.2z"/><path class="st55" d="M37.6 34.6l-2.6-.4 1.1 1.8 1.1-.3z"/><path class="st54" d="M36.4 37.3l.4-2.6-1.8 1.1.2 1.1zM34.9 33.4l2.2-1.5-.2 2.1-1.1.2z"/><path class="st55" d="M34.1 34.6l2.1-1.5-.1 2.1-1.1.3z"/><path class="st54" d="M36.9 33.2l-2.6-.4 1.1 1.8 1.1-.3z"/><path class="st55" d="M38.2 33.8l-2.5-.3 1.1 1.8 1.1-.3z"/><path class="st54" d="M35.1 35l2.1-1.5-.1 2.1-1.1.2z"/><path class="st55" d="M39.4 34.7l-2.6-.3 1.1 1.7 1.1-.2z"/><path class="st54" d="M37.1 34.8l-2.6-.4 1.1 1.8 1.1-.3z"/><path class="st55" d="M38.4 35.5l-2.6-.4 1.1 1.8 1.1-.3zM36.8 34.1l2.1-1.5-.1 2.1-1.1.3z"/><path class="st54" d="M34.6 36l2.2-1.5-.2 2.1-1.1.3z"/><path class="st54" d="M38.8 35.3l-2.6-.4 1.1 1.8 1.1-.3zM17 42l1.4 2.1.6-2-.9-.6z"/><path class="st55" d="M18.6 42.9l.9 2.5-1.9-.7v-1.2z"/><path class="st54" d="M19.1 45.2l.8 2.4-1.9-.7v-1.1z"/><path class="st55" d="M18.1 44l.9 2.5-2-.7.1-1.2zM18.2 49.4l1-2.4-2 .6v1.1z"/><path class="st54" d="M18.8 47.1l1-2.4-2 .6v1.1z"/><path class="st55" d="M17.8 48.2l1-2.4-2 .6-.1 1.1zM18.9 48.2l.9 2.4-1.9-.7v-1.1zM19 53.5l1-2.4-1.9.6-.1 1.1z"/><path class="st55" d="M18.6 52.4l1-2.4-2 .6v1.1z"/><path class="st54" d="M18.8 47.9l.9 2.5-2-.7.1-1.2z"/><path class="st55" d="M17.9 46.8l.8 2.4-1.9-.7v-1.1z"/><path class="st54" d="M18.3 49l.9 2.5-2-.7v-1.1z"/><path class="st55" d="M17.3 47.9l.9 2.4-1.9-.7v-1.1z"/><path class="st54" d="M18.5 52.1l1-2.4-2 .6-.1 1.1z"/><path class="st55" d="M17.4 53.2l1-2.4-1.9.6-.1 1.1z"/><path class="st54" d="M18 51l1-2.4-2 .6v1.1z"/><path class="st55" d="M17 52.1l1-2.4-2 .6v1.1zM16.6 54.6l2.4-.9-.7 2h-1.1z"/><path class="st55" d="M18.7 56.3l1-2.5-2 .6v1.2z"/><path class="st55" d="M18.8 54.8l.9 2.4-2-.7.1-1.1z"/><path class="st54" d="M19.2 57l.9 2.5-1.9-.7v-1.1z"/><path class="st55" d="M18.3 55.9l.9 2.5-2-.7v-1.2zM18.4 61.3l1-2.5-2 .6v1.2z"/><path class="st54" d="M18.9 59l1-2.4-1.9.6-.1 1.1z"/><path class="st55" d="M17.9 60.1l1-2.4-2 .6v1.1z"/><path class="st54" d="M18.6 53.6l.9 2.4-2-.7.1-1.1z"/><path class="st54" d="M18.8 56.7l1-2.4-2 .6V56z"/><path class="st55" d="M17.8 57.8l1-2.4-2 .6v1.1z"/><path class="st55" d="M17.3 56.6l1-2.4-2 .6V56z"/><path class="st54" d="M17 53.3l.9 2.5-2-.7.1-1.2z"/><path class="st54" d="M17.2 56.4l1-2.4-2 .6v1.1z"/><path class="st55" d="M16.2 57.5l1-2.4-2 .6v1.1z"/><path class="st55" d="M15.7 56.4l1-2.4-2 .6v1.1z"/><path class="st54" d="M18.4 56.3l.8 2.5-1.9-.7V57z"/><path class="st55" d="M17.4 55.2l.9 2.4-2-.7.1-1.1z"/><path class="st54" d="M17.8 57.4l.9 2.5-1.9-.7v-1.1z"/><path class="st55" d="M16.9 56.3l.9 2.5-2-.8v-1.1z"/><path class="st54" d="M18 60.5l1-2.4-2 .6v1.2z"/><path class="st55" d="M17 61.6l1-2.4-2 .6V61z"/><path class="st55" d="M16.5 60.5l1-2.4-2 .6v1.1z"/><path class="st54" d="M16.8 56.1l.8 2.4-1.9-.7v-1.1z"/><path class="st55" d="M15.8 54.9l.9 2.5-2-.7.1-1.2z"/><path class="st54" d="M16.3 57.2l.8 2.4-1.9-.7v-1.1z"/><path class="st55" d="M15.3 56l.9 2.5-2-.7v-1.2z"/><path class="st54" d="M16.4 60.3l1-2.4-2 .6v1.1z"/><path class="st55" d="M15.4 61.4l1-2.4-2 .6v1.1z"/><path class="st54" d="M16 59.1l1-2.4-2 .6-.1 1.1z"/><path class="st55" d="M14.9 60.2l1-2.4-1.9.6-.1 1.1z"/><path class="st55" d="M13.6 60.4l2.4-1-.6 2h-1.1z"/><path class="st54" d="M15.8 59.9l2.5-1-.7 2h-1.1z"/><path class="st55" d="M14.7 60.9l2.5-1-.7 2h-1.1zM20.1 60.6l-2.5-.9.7 2h1.1z"/><path class="st54" d="M17.8 60.1l-2.4-.9.6 2h1.2z"/><path class="st55" d="M18.9 61.1l-2.4-.9.7 1.9h1.1z"/><path class="st54" d="M14.5 61l2.4-.9-.6 1.9h-1.2z"/><path class="st55" d="M17.5 61.1l2.4-1-.6 2h-1.2zM16.7 49.9l2.5-1-.7 2h-1.1z"/><path class="st54" d="M17.6 50.5l2.5-.9-.7 1.9h-1.1z"/><path class="st55" d="M16.5 51.5l2.4-1-.6 2h-1.2z"/><path class="st55" d="M17.6 52l2.5-1-.7 2h-1.1z"/><path class="st54" d="M14.9 52.4l1.5 2.2.6-2-1-.6zM20 52.2l-2.4-1 .6 2h1.2z"/><path class="st55" d="M15.9 53.2l2.4-1-.6 2h-1.1z"/><path class="st55" d="M16.7 54.5l2.4-1-.6 2h-1.2z"/><path class="st55" d="M19.1 54.4l.8 2.4-1.9-.7V55z"/><path class="st54" d="M19.1 54.8l.9 2.5-1.9-.7v-1.2z"/><path class="st55" d="M18.2 53.7l.9 2.4-2-.7v-1.1z"/><path class="st55" d="M17.7 54.8l.8 2.4-1.9-.7v-1.1z"/><path class="st55" d="M16.6 53.4l.9 2.4-2-.7V54z"/><path class="st55" d="M16.1 54.5l.8 2.5-1.9-.8v-1.1z"/><path class="st54" d="M16.7 57.6l1-2.4-2 .6v1.1zM16.9 63.9l1.4 2.2.7-2-.9-.6z"/><path class="st55" d="M16.6 62.4l1.4 2.2.7-1.9-.9-.7z"/><path class="st55" d="M17.8 62.7l1.4 2.2.7-1.9-.9-.7z"/><path class="st54" d="M19.8 65.2l-2.5-.8 1.8-1.1.9.7z"/><path class="st54" d="M17.7 62.5l1.4 2.2.7-2-.9-.7z"/><path class="st55" d="M17.4 61l1.4 2.2.7-1.9-.9-.7z"/><path class="st54" d="M16.8 59.3l2.5-.9-.8 2-1.1-.1z"/><path class="st55" d="M18 59.3l1.4 2.2.6-1.9-.8-.7z"/><path class="st54" d="M19 49.8l.1-2.6-1.7 1.2.4 1.1z"/><path class="st55" d="M18.4 51.1l.1-2.6-1.6 1.3.3 1.1zM16.9 46l1.7 2h-2.1l-.3-1z"/><path class="st55" d="M16.8 47.2l1.7 2h-2.1l-.3-1z"/><path class="st54" d="M19.4 46.5l.1-2.6-1.7 1.2.4 1.1z"/><path class="st55" d="M18.8 47.9l.1-2.6-1.7 1.2.4 1.1z"/><path class="st54" d="M18.5 45.6l.1-2.6-1.6 1.2.4 1.1z"/><path class="st55" d="M18 47l.1-2.7-1.7 1.3.4 1.1z"/><path class="st54" d="M17.8 42.6l1.7 2h-2.1l-.4-1.1z"/><path class="st55" d="M16.5 41.8l1.7 2h-2.1l-.4-1z"/><path class="st54" d="M17.7 43.8l1.6 2h-2l-.4-1.1z"/><path class="st55" d="M16.4 43l1.7 2-2.1.1-.4-1.1z"/><path class="st54" d="M17.9 47.2l.1-2.6-1.6 1.3.3 1z"/><path class="st55" d="M17.4 48.6l.1-2.6-1.7 1.2.4 1.1z"/><path class="st54" d="M17.1 46.3l.1-2.6-1.7 1.3.4 1z"/><path class="st55" d="M16.5 47.7l.1-2.6-1.6 1.2.3 1.1z"/><path class="st54" d="M16.3 43.3l1.7 2h-2.1l-.3-1z"/><path class="st55" d="M15 42.5l1.7 2.1h-2.1l-.3-1.1z"/><path class="st55" d="M14.9 43.8l1.7 2h-2.1l-.3-1.1z"/><path class="st54" d="M18.4 50.7l.1-2.6-1.7 1.3.4 1z"/><path class="st55" d="M17.8 53.2l.1-2.7-1.6 1.3.3 1.1z"/><path class="st54" d="M17.5 49.8l.1-2.6-1.6 1.2.4 1.1z"/><path class="st55" d="M17 51.2l.1-2.6-1.7 1.2.4 1.1z"/><path class="st54" d="M16.8 46.8l1.6 2h-2l-.4-1.1z"/><path class="st55" d="M15.5 46l1.7 2.1h-2.1l-.4-1.1z"/><path class="st54" d="M14.8 44.2l1.6 2h-2l-.4-1z"/><path class="st55" d="M15.4 47.3l1.6 2h-2l-.4-1.1z"/><path class="st54" d="M16.9 51.4l.1-2.6-1.6 1.3.3 1.1z"/><path class="st55" d="M16.4 52.8l.1-2.6-1.7 1.3.4 1z"/><path class="st54" d="M16.1 50.5l.1-2.6-1.7 1.3.4 1.1z"/><path class="st55" d="M15.5 51.9l.1-2.6-1.6 1.3.3 1z"/><path class="st54" d="M15.3 47.5l1.7 2h-2.1l-.3-1z"/><path class="st55" d="M14 46.8l1.7 2h-2.1l-.3-1.1z"/><path class="st54" d="M15.2 48.8l1.7 2h-2.1l-.3-1.1z"/><path class="st55" d="M13.9 48l1.7 2h-2.1l-.3-1z"/><path class="st54" d="M16.5 47.3l.1-2.7-1.7 1.3.4 1.1z"/><path class="st54" d="M15.6 46.4l.2-2.7-1.7 1.3.4 1.1z"/><path class="st55" d="M15.1 47.7l.1-2.6-1.7 1.3.4 1z"/><path class="st54" d="M14.9 43.3l1.7 2-2.1.1-.4-1.1z"/><path class="st55" d="M13.6 42.6l1.7 2h-2.1l-.4-1.1z"/><path class="st54" d="M12.4 43.6l1.6 2h-2l-.4-1z"/><path class="st55" d="M13.5 43.8l1.7 2h-2.1l-.4-1z"/><path class="st54" d="M15 48l.1-2.6-1.6 1.2.3 1.1z"/><path class="st55" d="M14.5 49.4l.1-2.6-1.7 1.2.4 1.1z"/><path class="st54" d="M14.2 47.1l.1-2.6-1.6 1.2.3 1.1z"/><path class="st55" d="M13.6 48.5l.1-2.6-1.6 1.2.3 1.1z"/><path class="st54" d="M13.4 44.1l1.7 2H13l-.3-1.1z"/><path class="st55" d="M12.1 43.3l1.7 2h-2.1l-.3-1z"/><path class="st54" d="M13.3 45.3l1.7 2h-2.1l-.3-1z"/><path class="st55" d="M12 44.6l1.7 2h-2.1l-.3-1.1z"/><path class="st54" d="M14.4 47.7h-2.6l1.3 1.6 1-.4z"/><path class="st55" d="M15.8 48.3l-2.6-.1 1.3 1.7 1-.4z"/><path class="st55" d="M14.9 49.1h-2.6l1.3 1.6 1.1-.4z"/><path class="st54" d="M11.8 49.5l1.9-1.7.1 2.1-1.1.3z"/><path class="st54" d="M15.2 49.2l-2.6-.1 1.3 1.6 1-.3z"/><path class="st55" d="M16.6 49.7H14l1.3 1.6 1-.4z"/><path class="st54" d="M14.3 50h-2.6l1.3 1.6 1-.4z"/><path class="st55" d="M15.7 50.5h-2.6l1.3 1.6 1-.4z"/><path class="st54" d="M12.5 50.9l2-1.7.1 2.1-1.1.4z"/><path class="st54" d="M15.3 50.6h-2.7l1.3 1.6 1.1-.4z"/><path class="st55" d="M16.6 51.1H14l1.3 1.6 1.1-.4z"/><path class="st55" d="M15.8 52h-2.6l1.2 1.6 1.1-.4z"/><path class="st55" d="M17.4 52.6l-2.6-.1 1.3 1.6 1.1-.3z"/><path class="st55" d="M16.5 53.4h-2.6l1.3 1.6 1.1-.4z"/><path class="st54" d="M13.4 53.8l1.9-1.7.1 2-1 .4zM10.5 45.8l1.9-1.8.1 2.1-1 .4z"/><path class="st55" d="M14.8 47.2l.1-2.6-1.6 1.2.3 1.1z"/><path class="st54" d="M14.6 44.9l.1-2.6-1.7 1.2.4 1.1z"/><path class="st55" d="M14 46.3l.1-2.6-1.7 1.2.4 1.1z"/><path class="st54" d="M13.7 43.1l1.7 2h-2.1l-.4-1z"/><path class="st55" d="M12.4 42.4l1.7 2H12l-.4-1.1z"/><path class="st54" d="M14 46.5l.1-2.6-1.7 1.3.4 1z"/><path class="st55" d="M13.4 47.9l.1-2.6-1.7 1.3.4 1z"/><path class="st54" d="M13.1 45.6l.1-2.6-1.6 1.3.3 1z"/><path class="st55" d="M12.6 47l.1-2.6-1.7 1.3.4 1zM11.1 41.9l1.6 2h-2l-.4-1.1z"/><path class="st54" d="M12.3 43.8l1.6 2-2 .1-.4-1.1z"/><path class="st55" d="M11 43.1l1.6 2h-2l-.4-1.1zM12.9 43.7l.1-2.6-1.6 1.3.3 1z"/><path class="st54" d="M20.3 32l-2-1.7v2.1l1 .4z"/><path class="st55" d="M21 33.3l-2-1.7v2.1l1.1.4z"/><path class="st54" d="M17.4 30.8l2.6-.1-1.2 1.6-1.1-.4z"/><path class="st55" d="M16 31.3l2.7-.1-1.3 1.7-1.1-.4z"/><path class="st54" d="M18.3 31.6l2.6-.1-1.2 1.6-1.1-.3z"/><path class="st55" d="M16.9 32.1h2.7l-1.3 1.6-1.1-.4z"/><path class="st54" d="M21.2 33.5l-2-1.7v2.1l1 .4z"/><path class="st54" d="M20 33.6l-2-1.7-.1 2.1 1.1.3z"/><path class="st55" d="M20.7 34.9l-2-1.7v2.1l1.1.3z"/><path class="st54" d="M17.1 32.3h2.6l-1.2 1.6-1.1-.4z"/><path class="st55" d="M15.7 32.9l2.7-.1-1.3 1.7-1.1-.4z"/><path class="st54" d="M11.6 44.8l1.7 2h-2.1l-.4-1z"/><path class="st55" d="M16.6 33.7h2.7L18 35.3l-1.1-.4z"/><path class="st54" d="M12.5 46.6l.1-2.6-1.6 1.2.3 1.1z"/><path class="st54" d="M10.9 42.7l1.7 2h-2.1l-.4-1.1zM16.9 34.2l2.6-.1-1.3 1.6-1-.4z"/><path class="st55" d="M18.5 36.3l2.6-.1-1.3 1.7-1.1-.4z"/><path class="st54" d="M20.3 34.7l-2-1.7v2.1l1.1.3z"/><path class="st54" d="M19.1 34.8l-2-1.7v2l1.1.4z"/><path class="st55" d="M19.9 36.1l-2-1.7-.1 2 1.1.4z"/><path class="st54" d="M16.3 33.5l2.6-.1-1.3 1.7-1.1-.4z"/><path class="st55" d="M14.9 34.1l2.6-.1-1.3 1.6-1-.3z"/><path class="st54" d="M14.9 35.7l2.6-.1-1.2 1.6-1.1-.4z"/><path class="st55" d="M15.8 34.9l2.6-.1-1.3 1.7-1-.4z"/><path class="st54" d="M20 36.3l-2-1.7v2l1.1.4z"/><path class="st55" d="M20.8 37.6l-2-1.7v2l1 .4z"/><path class="st54" d="M18.8 36.3l-2-1.6v2l1 .4z"/><path class="st55" d="M19.5 37.6l-2-1.6v2l1.1.4z"/><path class="st54" d="M16 35.1l2.6-.1-1.3 1.7-1.1-.4z"/><path class="st55" d="M14.6 35.7l2.6-.1-1.3 1.6-1-.3z"/><path class="st54" d="M16.9 35.9l2.6-.1-1.3 1.7-1.1-.4z"/><path class="st55" d="M15.5 36.5l2.6-.1-1.3 1.7-1-.4z"/><path class="st54" d="M19.4 36.6l-1.6 2h2.1l.3-1.1z"/><path class="st54" d="M19.6 37.8l-1.7 2.1 2.1-.1.4-1z"/><path class="st54" d="M17.2 40.2l-.2-2.6 1.7 1.2-.3 1.1z"/><path class="st55" d="M17.8 41.5l-.2-2.6 1.7 1.3-.3 1z"/><path class="st54" d="M19.2 39.8l-.2-2.6 1.7 1.2-.3 1.1z"/><path class="st55" d="M18.6 40.6l-.1-2.6 1.6 1.2-.3 1.1z"/><path class="st54" d="M17.7 40l-1.6 2h2.1l.3-1.1z"/><path class="st55" d="M19 39.2l-1.6 2h2l.4-1.1z"/><path class="st54" d="M17.8 41.2l-1.6 2h2.1l.3-1.1z"/><path class="st55" d="M19.1 40.4l-1.6 2.1 2.1-.1.3-1z"/><path class="st54" d="M16.7 44.1l-.2-2.6 1.7 1.2-.3 1.1z"/><path class="st55" d="M17.5 42.7l-.1-2.6 1.7 1.2-.4 1.1z"/><path class="st54" d="M16.6 39.8l-.2-2.6 1.7 1.2-.3 1z"/><path class="st55" d="M18.1 44.5l-.2-2.6 1.7 1.2-.3 1.1z"/><path class="st54" d="M16.1 41.2l-1.6 2.1 2.1-.1.3-1.1zM18.3 44.3l-.2-2.6 1.7 1.2-.3 1.1z"/><path class="st54" d="M17.8 44l-.2-2.6 1.7 1.2-.3 1zM16.8 38.8l-2.3 4.1 2.2-.6.7-2zM15.5 38.5l-.2-2.6 1.7 1.2-.3 1.1z"/><path class="st55" d="M13.7 48.2H11l1.3 1.6 1.1-.4z"/><path class="st54" d="M18.3 45.8l-1.7 2h2.1l.4-1.1z"/><path class="st54" d="M17.1 48.7l-.1-2.6 1.6 1.2-.3 1.1z"/><path class="st55" d="M17.7 50.1l-.1-2.7 1.6 1.3-.3 1z"/><path class="st54" d="M17.9 47.8l-.1-2.7 1.6 1.3-.3 1z"/><path class="st55" d="M17.4 51.2l-.1-2.6 1.7 1.3-.4 1z"/><path class="st54" d="M16.5 48.3l-.2-2.6 1.7 1.2-.3 1.1z"/><path class="st55" d="M18.7 38.7l-2-1.7v2.1l1.1.3z"/><path class="st54" d="M14.3 35.9l-1.6 2h2.1l.3-1.1z"/><path class="st54" d="M13.2 38.8l-.2-2.6 1.7 1.2-.4 1.1z"/><path class="st55" d="M12.6 39.6l-.2-2.6 1.7 1.2-.3 1.1z"/><path class="st54" d="M14 37.9l-.2-2.7 1.7 1.3-.3 1z"/><path class="st55" d="M14.6 39.2l-.2-2.6 1.7 1.2-.3 1.1z"/><path class="st54" d="M15.9 36.2l-1.6 2h2.1l.3-1.1z"/><path class="st54" d="M14.8 39l-.2-2.6 1.7 1.2-.4 1.1z"/><path class="st55" d="M14.2 39.9l-.2-2.6 1.7 1.2-.4 1.1zM16.2 39.5l-.2-2.6 1.7 1.2-.3 1.1z"/><path class="st55" d="M13.9 38.5l-1.6 2h2l.4-1.1z"/><path class="st55" d="M12.3 40.8l-.1-2.6 1.6 1.2-.3 1.1z"/><path class="st54" d="M12.5 38.4l-.1-2.6 1.7 1.2-.4 1.1z"/><path class="st55" d="M12.9 42.6l-.2-2.6 1.7 1.2-.4 1.1zM16.6 38.1l-1.7 2H17l.3-1.1z"/><path class="st54" d="M14.2 39.5l-1.6 2.1 2.1-.1.3-1z"/><path class="st55" d="M15.5 38.8l-1.6 2h2l.4-1.1z"/><path class="st54" d="M13 42.4l-.1-2.6 1.7 1.2-.4 1.1z"/><path class="st55" d="M13.6 43.8l-.1-2.6 1.7 1.2-.4 1.1z"/><path class="st54" d="M13.8 41.5l-.1-2.6 1.7 1.2-.4 1.1z"/><path class="st55" d="M14.4 42.9l-.1-2.7 1.7 1.3-.4 1z"/><path class="st54" d="M17.1 37l-1.6 2h2.1l.3-1.1z"/><path class="st54" d="M16 39.9l-.2-2.6 1.7 1.2-.4 1.1z"/><path class="st55" d="M15.4 40.7l-.2-2.6 1.7 1.2-.4 1.1z"/><path class="st54" d="M12.5 42l-.1-2.6 1.7 1.3-.4 1z"/><path class="st55" d="M16.2 39.8l-.2-2.6 1.7 1.2-.3 1.1z"/><path class="st54" d="M18.7 37.3l-1.6 2h2.1l.3-1.1z"/><path class="st54" d="M16.4 39.6l-.2-2.6 1.7 1.2-.4 1.1z"/><path class="st55" d="M17 41l-.2-2.6 1.7 1.2-.4 1.1z"/><path class="st54" d="M18.4 39.2l-.2-2.6 1.7 1.2-.4 1.1z"/><path class="st55" d="M17.8 40l-.2-2.6 1.7 1.3-.4 1z"/><path class="st54" d="M15.3 39.1l-1.7 2.1h2.1l.4-1.1z"/><path class="st55" d="M16.6 38.4l-1.7 2H17l.3-1.1z"/><path class="st54" d="M15.4 40.4l-1.6 2h2l.4-1.1z"/><path class="st55" d="M16.7 39.6l-1.7 2h2.1l.4-1.1z"/><path class="st54" d="M14.2 43.2l-.1-2.6 1.7 1.3-.4 1z"/><path class="st55" d="M14.8 44.6l-.1-2.6 1.7 1.2-.4 1.1z"/><path class="st55" d="M15.6 43.7l-.1-2.6 1.7 1.2-.4 1.1z"/><path class="st54" d="M16.9 39.4l-1.7 2h2.1l.4-1.1z"/><path class="st55" d="M18.2 38.6l-1.7 2.1 2.1-.1.3-1z"/><path class="st54" d="M17 40.6l-1.6 2.1 2-.1.4-1z"/><path class="st55" d="M18.3 39.9l-1.7 2h2.1l.4-1.1z"/><path class="st54" d="M15.8 43.5l-.1-2.6 1.7 1.2-.4 1.1z"/><path class="st55" d="M16.4 44.9l-.1-2.6 1.6 1.2-.3 1.1z"/><path class="st54" d="M16.6 42.6l-.1-2.6 1.7 1.2-.4 1.1z"/><path class="st55" d="M17.2 44l-.1-2.7 1.7 1.3-.4 1z"/></svg>